<?xml version="1.0" encoding="utf-8"?>
<!-- Generator: Adobe Illustrator 18.0.0, SVG Export Plug-In . SVG Version: 6.00 Build 0)  -->
<!DOCTYPE svg PUBLIC "-//W3C//DTD SVG 1.1//EN" "http://www.w3.org/Graphics/SVG/1.1/DTD/svg11.dtd">
<svg version="1.1" id="Ñëîé_1" xmlns="http://www.w3.org/2000/svg" xmlns:xlink="http://www.w3.org/1999/xlink" x="0px" y="0px"
	 viewBox="0 0 341 350" enable-background="new 0 0 341 350" xml:space="preserve">
<g>
	<rect x="0" y="0" fill="#0B0B16" width="344" height="350"/>
</g>
<radialGradient id="SVGID_1_" cx="171.9458" cy="101.7694" r="82.128" gradientUnits="userSpaceOnUse">
	<stop  offset="0" style="stop-color:#F89148"/>
	<stop  offset="4.282498e-002" style="stop-color:#E68643"/>
	<stop  offset="0.1941" style="stop-color:#AA6331"/>
	<stop  offset="0.3446" style="stop-color:#764522"/>
	<stop  offset="0.4909" style="stop-color:#4B2C16"/>
	<stop  offset="0.6322" style="stop-color:#2B190C"/>
	<stop  offset="0.7669" style="stop-color:#130B06"/>
	<stop  offset="0.8926" style="stop-color:#050301"/>
	<stop  offset="1" style="stop-color:#000000"/>
</radialGradient>
<circle opacity="0.6" fill="url(#SVGID_1_)" cx="171.9" cy="101.8" r="82.1"/>
<g>
	<rect x="192.2" y="74.4" opacity="0.8" fill="#F88635" width="2" height="2"/>
	<rect x="196.5" y="74.4" fill="#F88635" width="2" height="2"/>
	<rect x="200.7" y="74.4" opacity="0.4" fill="#F88635" width="2" height="2"/>
	<rect x="205" y="74.4" fill="#F88635" width="2" height="2"/>
	<rect x="218.6" y="74.4" fill="#F88635" width="2" height="2"/>
	<rect x="205" y="88.7" opacity="0.8" fill="#F88635" width="2" height="2"/>
	<rect x="205" y="97.7" fill="#F88635" width="2" height="2"/>
	<rect x="205" y="101.8" opacity="0.4" fill="#F88635" width="2" height="2"/>
	<rect x="205" y="105.8" fill="#F88635" width="2" height="2"/>
	<rect x="214.8" y="100.3" opacity="0.8" fill="#F88635" width="2" height="2"/>
	<rect x="218.2" y="97.2" fill="#F88635" width="2" height="2"/>
	<rect x="222.9" y="74.4" opacity="0.4" fill="#F88635" width="2" height="2"/>
</g>
<g>
	<rect x="140.2" y="105.4" opacity="0.4" fill="#F88635" width="2" height="2"/>
	<rect x="136" y="105.4" fill="#F88635" width="2" height="2"/>
	<rect x="121.4" y="84.3" fill="#F88635" width="2" height="2"/>
	<rect x="121.4" y="80.1" fill="#F88635" width="2" height="2"/>
	<rect x="121.4" y="76" fill="#F88635" width="2" height="2"/>
	<rect x="122.4" y="105.4" fill="#F88635" width="2" height="2"/>
	<rect x="136" y="91.1" opacity="0.8" fill="#F88635" width="2" height="2"/>
	<rect x="136" y="82.2" fill="#F88635" width="2" height="2"/>
	<rect x="136" y="78.1" opacity="0.4" fill="#F88635" width="2" height="2"/>
	<rect x="136" y="74.1" fill="#F88635" width="2" height="2"/>
	<rect x="118.1" y="105.4" opacity="0.4" fill="#F88635" width="2" height="2"/>
</g>
<g>
	<radialGradient id="SVGID_2_" cx="174.7558" cy="128.5569" r="82.8809" gradientUnits="userSpaceOnUse">
		<stop  offset="0" style="stop-color:#F86B07"/>
		<stop  offset="4.282498e-002" style="stop-color:#E66306"/>
		<stop  offset="0.1941" style="stop-color:#AA4905"/>
		<stop  offset="0.3446" style="stop-color:#763303"/>
		<stop  offset="0.4909" style="stop-color:#4B2102"/>
		<stop  offset="0.6322" style="stop-color:#2B1201"/>
		<stop  offset="0.7669" style="stop-color:#130801"/>
		<stop  offset="0.8926" style="stop-color:#050200"/>
		<stop  offset="1" style="stop-color:#000000"/>
	</radialGradient>
	<circle opacity="0.6" fill="url(#SVGID_2_)" cx="174.8" cy="128.6" r="82.9"/>
	<circle opacity="0.4" cx="150.9" cy="171" r="1.3"/>
	<circle opacity="0.4" cx="165.7" cy="152.1" r="5.1"/>
	<circle opacity="0.8" cx="165.7" cy="152.1" r="2.1"/>
	<g>
		<circle opacity="0.4" fill="#D33A03" cx="145.8" cy="144.7" r="2.6"/>
		<circle opacity="0.8" fill="#D33A03" cx="145.8" cy="144.7" r="1.3"/>
	</g>
	<circle opacity="0.4" fill="#D33A03" cx="125.6" cy="234.9" r="0.8"/>
	<g>
		<path opacity="0.6" d="M117.5,96.9c17.4-5.1,38.1-7.9,60.1-7.7c2.9,0,5.8,0.1,8.6,0.2c19.3,1.8,26.2,22.2,14.6,31.1
			c-5.4,4.1-11.8,4.1-14.6,4c-2.8-0.1-5.7-0.2-8.6-0.2c-22-0.2-42.7,2.7-60.1,7.7c-17.6,4.3-18.6-13.6-12.5-24.6
			C107.1,103.8,110.9,99,117.5,96.9L117.5,96.9z"/>
		<path fill="#D33A03" d="M112.5,133.1c-4.7,0-7.3-2-8.8-3.9c-4.2-5.6-2.7-15.4,0.9-21.8c2.1-3.7,6-8.6,12.7-10.8l0,0
			c18.1-5.2,38.9-7.9,60.2-7.7c2.9,0,5.8,0.1,8.6,0.2c9.7,0.9,17.5,6.8,19.9,15.1c1.9,6.4-0.1,12.8-5.2,16.7
			c-5.5,4.2-12,4.1-14.8,4.1c-2.9-0.1-5.8-0.2-8.6-0.2c-21.3-0.2-42,2.5-60,7.7C115.7,132.9,114,133.1,112.5,133.1z M117.6,97.3
			c-6.5,2.1-10.2,6.8-12.3,10.4c-3.5,6.2-5,15.7-1,21c2.6,3.4,7.1,4.4,13,3c18-5.2,38.9-7.9,60.2-7.7c2.9,0,5.8,0.1,8.6,0.2
			c2.7,0,9.1,0.1,14.3-4c4.8-3.7,6.7-9.8,4.9-15.9c-2.3-8-9.9-13.7-19.3-14.5c-2.8-0.1-5.7-0.2-8.6-0.2
			C156.3,89.4,135.6,92,117.6,97.3z"/>
	</g>
	<g>
		<path fill="#D33A03" d="M174.7,268.6c-2.3,0-4.6-0.5-6.3-1.5L126,242.6c-1.8-1-2.7-2.4-2.7-3.9c0-1.5,1-2.9,2.7-3.9l42.2-24.5
			c3.5-2,9.1-2,12.6,0l42.4,24.5c1.8,1,2.7,2.4,2.7,3.9c0,1.5-1,2.9-2.7,3.9L181,267.1C179.2,268.1,176.9,268.6,174.7,268.6z
			 M174.4,209.6c-2.1,0-4.3,0.5-5.9,1.4l-42.2,24.5c-1.5,0.9-2.3,2-2.3,3.2c0,1.2,0.8,2.3,2.3,3.2l42.4,24.5c3.3,1.9,8.6,1.9,11.8,0
			l42.2-24.5c1.5-0.9,2.3-2,2.3-3.2c0-1.2-0.8-2.3-2.3-3.2L180.3,211C178.7,210.1,176.6,209.6,174.4,209.6z"/>
		<path opacity="0.7" fill="#D33A03" d="M174.7,282.7c-2.3,0-4.6-0.5-6.3-1.5L126,256.7c-1.8-1-2.7-2.4-2.7-3.9c0-1.5,1-2.9,2.7-3.9
			l42.2-24.5c3.5-2,9.1-2,12.6,0l42.4,24.5c1.8,1,2.7,2.4,2.7,3.9c0,1.5-1,2.9-2.7,3.9L181,281.2
			C179.2,282.2,176.9,282.7,174.7,282.7z M174.4,223.7c-2.1,0-4.3,0.5-5.9,1.4l-42.2,24.5c-1.5,0.9-2.3,2-2.3,3.2
			c0,1.2,0.8,2.3,2.3,3.2l42.4,24.5c3.3,1.9,8.6,1.9,11.8,0l42.2-24.5c1.5-0.9,2.3-2,2.3-3.2c0-1.2-0.8-2.3-2.3-3.2l-42.4-24.5
			C178.7,224.2,176.6,223.7,174.4,223.7z"/>
		<path opacity="0.4" fill="#D33A03" d="M174.7,296.8c-2.3,0-4.6-0.5-6.3-1.5L126,270.9c-1.8-1-2.7-2.4-2.7-3.9c0-1.5,1-2.9,2.7-3.9
			l42.2-24.5c3.5-2,9.1-2,12.6,0l42.4,24.5c1.8,1,2.7,2.4,2.7,3.9c0,1.5-1,2.9-2.7,3.9L181,295.3
			C179.2,296.3,176.9,296.8,174.7,296.8z M174.4,237.9c-2.1,0-4.3,0.5-5.9,1.4l-42.2,24.5c-1.5,0.9-2.3,2-2.3,3.2
			c0,1.2,0.8,2.3,2.3,3.2l42.4,24.5c3.3,1.9,8.6,1.9,11.8,0l42.2-24.5c1.5-0.9,2.3-2,2.3-3.2c0-1.2-0.8-2.3-2.3-3.2l-42.4-24.5
			C178.7,238.3,176.6,237.9,174.4,237.9z"/>
		<g>
			<linearGradient id="SVGID_3_" gradientUnits="userSpaceOnUse" x1="117.7064" y1="225.3088" x2="189.5273" y2="225.3088">
				<stop  offset="0" style="stop-color:#EF6401"/>
				<stop  offset="4.309994e-002" style="stop-color:#E35F01"/>
				<stop  offset="0.4001" style="stop-color:#833701"/>
				<stop  offset="0.6889" style="stop-color:#3C1900"/>
				<stop  offset="0.8955" style="stop-color:#110700"/>
				<stop  offset="1" style="stop-color:#000000"/>
			</linearGradient>
			<path fill="url(#SVGID_3_)" d="M225.7,225.3L225.7,225.3l0-20.3l-25.7,3.4l-19.2-11.1c-3.4-1.9-8.8-1.9-12.2,0l-3,1.9l-41.7,5.6
				v20.6c0,0,0,0,0,0v0.1l0,0c0,1.2,0.9,2.5,2.5,3.4l42.4,24.5c3.4,1.9,8.8,1.9,12.2,0l42.2-24.5c1.6-0.9,2.5-2.2,2.5-3.4l0,0V225.3
				z"/>
			<radialGradient id="SVGID_4_" cx="104.9711" cy="171.4531" r="160.3906" gradientUnits="userSpaceOnUse">
				<stop  offset="0" style="stop-color:#EF6401"/>
				<stop  offset="9.691735e-002" style="stop-color:#E15E01"/>
				<stop  offset="0.2801" style="stop-color:#BC4F01"/>
				<stop  offset="0.5301" style="stop-color:#813601"/>
				<stop  offset="0.8341" style="stop-color:#2F1400"/>
				<stop  offset="1" style="stop-color:#000000"/>
			</radialGradient>
			<path fill="url(#SVGID_4_)" d="M223.1,201.3l-42.4-24.5c-3.4-1.9-8.8-1.9-12.2,0l-42.2,24.5c-3.4,1.9-3.4,5.1,0,7.1l42.4,24.5
				c3.4,1.9,8.8,1.9,12.2,0l42.2-24.5C226.5,206.4,226.5,203.2,223.1,201.3z"/>
			<path fill="#FFFFFF" d="M223.1,207.1L181,231.6c-3.4,1.9-8.8,1.9-12.2,0l-42.4-24.5c-1.4-0.8-2.2-1.8-2.5-2.9
				c-0.3,1.5,0.5,3,2.5,4.1l42.4,24.5c3.4,1.9,8.8,1.9,12.2,0l42.2-24.5c2-1.1,2.8-2.7,2.5-4.1C225.4,205.3,224.6,206.3,223.1,207.1
				z"/>
			<g>
				<polygon fill="#FFFFFF" points="186.7,238.3 184.7,239.4 184.7,237.1 186.7,236 				"/>
				<polygon fill="#FFFFFF" points="190.9,235.9 188.9,237 188.9,234.7 190.9,233.5 				"/>
				<polygon fill="#FFFFFF" points="195.1,233.4 193.1,234.6 193.1,232.3 195.1,231.1 				"/>
				<polygon fill="#FFFFFF" points="191.6,240.1 189.6,241.3 189.6,239 191.6,237.8 				"/>
				<polygon fill="#FFFFFF" points="195.3,238 193.3,239.1 193.3,236.8 195.3,235.7 				"/>
				<polygon fill="#FFFFFF" points="208.5,225.7 206.5,226.8 206.5,224.5 208.5,223.3 				"/>
				<polygon fill="#FFFFFF" points="220.1,219 218.1,220.1 218.1,217.8 220.1,216.7 				"/>
				<polygon fill="#FFFFFF" points="199.3,231 197.3,232.2 197.3,229.9 199.3,228.7 				"/>
			</g>
		</g>
		<path opacity="0.4" fill="#06033E" d="M172.4,222.5L143.8,206c-1.2-0.7-1-1.8,0.3-2.6l27.9-16.1c1.3-0.8,3.4-0.9,4.5-0.2
			l28.5,16.5c1.2,0.7,1,1.8-0.3,2.6l-27.9,16.1C175.5,223.1,173.5,223.2,172.4,222.5z"/>
		<path fill="#FFFFFF" d="M161.1,240.3l-23.5-13.6c-0.6-0.3-1-1.2-1-1.9v-1.7c0-0.7,0.5-1.1,1-0.8l23.5,13.6c0.6,0.3,1,1.2,1,1.9
			v1.7C162.2,240.3,161.7,240.7,161.1,240.3z"/>
		<g>
			<linearGradient id="SVGID_5_" gradientUnits="userSpaceOnUse" x1="117.7064" y1="187.1727" x2="189.5273" y2="187.1727">
				<stop  offset="0" style="stop-color:#EF6401"/>
				<stop  offset="4.309994e-002" style="stop-color:#E35F01"/>
				<stop  offset="0.4001" style="stop-color:#833701"/>
				<stop  offset="0.6889" style="stop-color:#3C1900"/>
				<stop  offset="0.8955" style="stop-color:#110700"/>
				<stop  offset="1" style="stop-color:#000000"/>
			</linearGradient>
			<path fill="url(#SVGID_5_)" d="M225.7,187.2L225.7,187.2l0-20.3l-25.7,3.4l-19.2-11.1c-3.4-1.9-8.8-1.9-12.2,0l-3,1.9l-41.7,5.6
				v20.6c0,0,0,0,0,0v0.1l0,0c0,1.2,0.9,2.5,2.5,3.4l42.4,24.5c3.4,1.9,8.8,1.9,12.2,0l42.2-24.5c1.6-0.9,2.5-2.2,2.5-3.4l0,0V187.2
				z"/>
			<radialGradient id="SVGID_6_" cx="104.9711" cy="133.317" r="160.3906" gradientUnits="userSpaceOnUse">
				<stop  offset="0" style="stop-color:#EF6401"/>
				<stop  offset="9.691735e-002" style="stop-color:#E15E01"/>
				<stop  offset="0.2801" style="stop-color:#BC4F01"/>
				<stop  offset="0.5301" style="stop-color:#813601"/>
				<stop  offset="0.8341" style="stop-color:#2F1400"/>
				<stop  offset="1" style="stop-color:#000000"/>
			</radialGradient>
			<path fill="url(#SVGID_6_)" d="M223.1,163.1l-42.4-24.5c-3.4-1.9-8.8-1.9-12.2,0l-42.2,24.5c-3.4,1.9-3.4,5.1,0,7.1l42.4,24.5
				c3.4,1.9,8.8,1.9,12.2,0l42.2-24.5C226.5,168.2,226.5,165.1,223.1,163.1z"/>
			<path opacity="0.4" fill="#06033E" d="M203,164.6l-24.7-14.3c-2-1.1-5.2-1.1-7.1,0l-24.6,14.3c-2,1.1-2,3,0,4.1l24.7,14.3
				c2,1.1,5.2,1.1,7.1,0l24.6-14.3C204.9,167.6,204.9,165.8,203,164.6z"/>
			<path fill="#FFFFFF" d="M223.1,169L181,193.5c-3.4,1.9-8.8,1.9-12.2,0L126.4,169c-1.4-0.8-2.2-1.8-2.5-2.9
				c-0.3,1.5,0.5,3,2.5,4.1l42.4,24.5c3.4,1.9,8.8,1.9,12.2,0l42.2-24.5c2-1.1,2.8-2.7,2.5-4.1C225.4,167.1,224.6,168.1,223.1,169z"
				/>
			<g>
				<polygon fill="#FFFFFF" points="186.7,200.1 184.7,201.3 184.7,199 186.7,197.8 				"/>
				<polygon fill="#FFFFFF" points="190.9,197.7 188.9,198.9 188.9,196.6 190.9,195.4 				"/>
				<polygon fill="#FFFFFF" points="195.1,195.3 193.1,196.5 193.1,194.1 195.1,193 				"/>
				<polygon fill="#FFFFFF" points="191.6,202 189.6,203.1 189.6,200.8 191.6,199.7 				"/>
				<polygon fill="#FFFFFF" points="195.3,199.8 193.3,201 193.3,198.7 195.3,197.5 				"/>
				<polygon fill="#FFFFFF" points="208.5,187.5 206.5,188.7 206.5,186.4 208.5,185.2 				"/>
				<polygon fill="#FFFFFF" points="220.1,180.8 218.1,182 218.1,179.7 220.1,178.5 				"/>
				<polygon fill="#FFFFFF" points="199.3,192.9 197.3,194 197.3,191.7 199.3,190.6 				"/>
			</g>
		</g>
		<g>
			<linearGradient id="SVGID_7_" gradientUnits="userSpaceOnUse" x1="117.7064" y1="149.0365" x2="189.5273" y2="149.0365">
				<stop  offset="0" style="stop-color:#EF6401"/>
				<stop  offset="4.309994e-002" style="stop-color:#E35F01"/>
				<stop  offset="0.4001" style="stop-color:#833701"/>
				<stop  offset="0.6889" style="stop-color:#3C1900"/>
				<stop  offset="0.8955" style="stop-color:#110700"/>
				<stop  offset="1" style="stop-color:#000000"/>
			</linearGradient>
			<path fill="url(#SVGID_7_)" d="M225.7,149L225.7,149l0-20.3l-25.7,3.4L180.8,121c-3.4-1.9-8.8-1.9-12.2,0l-3,1.9l-41.7,5.6V149
				c0,0,0,0,0,0v0.1l0,0c0,1.2,0.9,2.5,2.5,3.4l42.4,24.5c3.4,1.9,8.8,1.9,12.2,0l42.2-24.5c1.6-0.9,2.5-2.2,2.5-3.4l0,0V149z"/>
			<radialGradient id="SVGID_8_" cx="104.9711" cy="95.1809" r="160.3906" gradientUnits="userSpaceOnUse">
				<stop  offset="0" style="stop-color:#EF6401"/>
				<stop  offset="9.691735e-002" style="stop-color:#E15E01"/>
				<stop  offset="0.2801" style="stop-color:#BC4F01"/>
				<stop  offset="0.5301" style="stop-color:#813601"/>
				<stop  offset="0.8341" style="stop-color:#2F1400"/>
				<stop  offset="1" style="stop-color:#000000"/>
			</radialGradient>
			<path fill="url(#SVGID_8_)" d="M223.1,125l-42.4-24.5c-3.4-1.9-8.8-1.9-12.2,0l-42.2,24.5c-3.4,1.9-3.4,5.1,0,7.1l42.4,24.5
				c3.4,1.9,8.8,1.9,12.2,0l42.2-24.5C226.5,130.1,226.5,127,223.1,125z"/>
			<radialGradient id="SVGID_9_" cx="119.1242" cy="104.8457" r="110.2741" gradientUnits="userSpaceOnUse">
				<stop  offset="0" style="stop-color:#000000"/>
				<stop  offset="1" style="stop-color:#000000"/>
			</radialGradient>
			<path fill="url(#SVGID_9_)" d="M223.1,125l-42.4-24.5c-3.4-1.9-8.8-1.9-12.2,0l-42.2,24.5c-3.4,1.9-3.4,5.1,0,7.1l42.4,24.5
				c3.4,1.9,8.8,1.9,12.2,0l42.2-24.5C226.5,130.1,226.5,127,223.1,125z"/>
			<path fill="#FF5F00" d="M174.8,148.7c-1.6,0-3.1-0.3-4.3-1l-28.1-16.2c-1.3-0.7-2-1.7-2-2.8c0-1.1,0.7-2.1,2-2.8l27.9-16.2
				c2.4-1.4,6.2-1.4,8.6,0l28.1,16.2c1.3,0.7,2,1.7,2,2.8c0,1.1-0.7,2.1-2,2.8l-27.9,16.2C177.9,148.3,176.4,148.7,174.8,148.7z
				 M174.7,109.6c-1.4,0-2.7,0.3-3.8,0.9L143,126.7c-0.9,0.5-1.4,1.2-1.4,1.9c0,0.7,0.5,1.3,1.4,1.9l28.1,16.2
				c2.1,1.2,5.5,1.2,7.5,0l27.9-16.2c0.9-0.5,1.4-1.2,1.4-1.9c0-0.7-0.5-1.3-1.4-1.9l-28.1-16.2C177.4,109.9,176,109.6,174.7,109.6z
				"/>
			<path fill="#FFFFFF" d="M223.1,130.8L181,155.4c-3.4,1.9-8.8,1.9-12.2,0l-42.4-24.5c-1.4-0.8-2.2-1.8-2.5-2.9
				c-0.3,1.5,0.5,3,2.5,4.1l42.4,24.5c3.4,1.9,8.8,1.9,12.2,0l42.2-24.5c2-1.1,2.8-2.7,2.5-4.1C225.4,129,224.6,130,223.1,130.8z"/>
			<g>
				<polygon fill="#FFFFFF" points="186.7,162 184.7,163.2 184.7,160.9 186.7,159.7 				"/>
				<polygon fill="#FFFFFF" points="190.9,159.6 188.9,160.7 188.9,158.4 190.9,157.3 				"/>
				<polygon fill="#FFFFFF" points="195.1,157.2 193.1,158.3 193.1,156 195.1,154.8 				"/>
				<polygon fill="#FFFFFF" points="191.6,163.8 189.6,165 189.6,162.7 191.6,161.5 				"/>
				<polygon fill="#FFFFFF" points="195.3,161.7 193.3,162.9 193.3,160.5 195.3,159.4 				"/>
				<polygon fill="#FFFFFF" points="208.5,149.4 206.5,150.5 206.5,148.2 208.5,147.1 				"/>
				<polygon fill="#FFFFFF" points="220.1,142.7 218.1,143.9 218.1,141.5 220.1,140.4 				"/>
				<polygon fill="#FFFFFF" points="199.3,154.7 197.3,155.9 197.3,153.6 199.3,152.4 				"/>
			</g>
		</g>
	</g>
	<g>
		<path opacity="0.6" d="M182.1,205.6c-2.8,0.1-5.6,0.1-8.4,0.1c-22.1-0.2-42.6-3.4-59.7-8.8c-17.1-4.6-18.1,13.3-12.1,24.3
			c4.2,7.9,10,10,12.1,10.8c17.1,5.4,37.6,8.6,59.7,8.8c2.8,0,5.6,0,8.4-0.1c20.1-1.5,25.3-20.7,15.9-29.7
			C195.4,208.5,190.6,205.5,182.1,205.6L182.1,205.6z"/>
		<g>
			<g opacity="0.3">
				<path fill="#D33A03" d="M286,183.7l-0.3-0.6c-0.3-0.6-0.6-1.4-1-2.4c-3.7-10.9-14.6-20.8-31.5-28.6
					c-11.7-6.7-14.6-16.3-15.3-20.1l0,0c-0.8-4.5,0.1-10.9,4-14.3c2.8-2.5,6.7-3,11.5-1.4c17.1,7.9,28.2,17.9,31.9,29
					c0.8,3.1,1.4,5.6,1.4,16.6v18.7c0,1.6,0,1.7-0.5,2.5L286,183.7z M238.7,131.8c0.7,3.7,3.4,13.1,14.9,19.6
					c17.1,7.9,28.1,17.9,31.9,29c0.2,0.6,0.4,1.2,0.6,1.6c0-0.3,0-0.6,0-1.4v-18.7c0-11-0.6-13.4-1.4-16.4
					c-3.7-10.9-14.6-20.7-31.5-28.5c-4.5-1.5-8.1-1-10.8,1.3C238.7,121.4,237.9,127.5,238.7,131.8L238.7,131.8z"/>
				<path fill="#D33A03" d="M65.2,188.9l-0.8,0v-35.2c0-0.3,0-0.6,0-0.9c0.2-5.8,2.4-11.5,6.6-16.9l0.2-0.2c0.8-0.8,1.9-1.9,3-2
					c1.5-0.2,2.9,0.5,3.9,2.2c3.5,5.5,3.2,21.4-6.5,35.6C66.1,179,65.7,183.4,65.2,188.9z M74.8,134.3c-0.1,0-0.2,0-0.4,0
					c-0.9,0.1-1.9,1.1-2.6,1.8l-0.1,0.1c-4,5.3-6.2,10.8-6.4,16.5c0,0.3,0,0.6,0,0.9v29.2c0.7-3.4,2.2-7,5.9-12
					c9.4-13.9,9.8-29.4,6.4-34.8C77,135.3,76.1,134.3,74.8,134.3z"/>
			</g>
			<g>
				<g>
					<path fill="#D33A03" d="M73.2,207.2c-0.9,0-2.1-0.5-3.5-2.3c-4.6-6.3-5-12.3-5.3-16l0-35.2h0.8c0,5.3,1.7,10.6,5.1,15.6
						c7.5,12.4,8.4,24.6,7.7,29.9l0,0c-0.5,4.3-2.2,7.4-4.2,7.9C73.7,207.1,73.5,207.2,73.2,207.2z M65.2,159.8v29
						c0.3,3.5,0.7,9.5,5.1,15.6c0.8,1.1,2,2.3,3.3,1.9c1.7-0.4,3.2-3.3,3.7-7.3l0,0c0.6-5.2-0.2-17.2-7.6-29.4
						C67.6,166.5,66.1,163.2,65.2,159.8z"/>
					<path fill="#D33A03" d="M175.6,241.2c-0.6,0-1.3,0-1.9,0c-21.4-0.2-42.1-3.2-59.8-8.8c-2.2-0.8-8.1-3-12.4-11
						c-3.6-6.6-5-16.6-0.7-22c1.9-2.4,5.7-4.9,13.3-2.9c17.7,5.6,38.3,8.6,59.6,8.8c2.8,0,5.6,0,8.4-0.1h0c8.6,0,13.5,3,16.2,5.5
						c4.4,4.2,5.8,10.9,3.6,17.1c-2.8,7.6-10.1,12.6-19.7,13.3C180,241.2,177.8,241.2,175.6,241.2z M109,196.5
						c-3.3,0-5.8,1.1-7.6,3.3c-4.1,5.2-2.7,14.8,0.8,21.2c4.2,7.7,9.8,9.8,11.9,10.6c17.6,5.5,38.2,8.6,59.6,8.7
						c2.8,0,5.6,0,8.4-0.1c9.3-0.7,16.4-5.5,19.1-12.8c2.1-5.9,0.8-12.3-3.4-16.3c-2.5-2.4-7.3-5.3-15.4-5.3c-0.1,0-0.2,0-0.3,0
						c-2.8,0.1-5.6,0.1-8.4,0.1c-21.4-0.2-42.1-3.2-59.8-8.8C112.2,196.8,110.5,196.5,109,196.5z"/>
					<path fill="#D33A03" d="M245.5,228.4c-3.4,0-6.3-1.3-8.2-3.7c-3.8-4.7-3.9-13.2-0.2-20.2c4.2-7.9,10.7-11.4,13.1-12.7
						c17.5-7.5,29.2-17.2,33.8-28c0.5-1.1,0.9-1.9,1.3-2.4l0.1-0.1l0.9-0.1l0.1,0.3c0.3,0.9,0.4,1.2,0.5,5.4v10.8
						c-0.1,15.3-1,18.1-2.1,21.6c-4.7,11-16.5,20.8-34.2,28.4C248.7,228.1,247.1,228.4,245.5,228.4z M285.8,161.9
						c-0.3,0.5-0.7,1.2-1.1,2.1c-4.7,11-16.5,20.8-34.1,28.4c-2.4,1.3-8.7,4.6-12.8,12.4c-3.6,6.8-3.5,14.9,0.1,19.4
						c1.9,2.3,5.6,4.7,12.4,2.7c17.5-7.5,29.1-17.2,33.7-28c1.1-3.4,2-6.2,2.1-21.3v-10.8C286,163.3,285.9,162.6,285.8,161.9z"/>
				</g>
			</g>
		</g>
	</g>
	<g>
		<path fill="#D33A03" d="M252.1,282.1c-1,0-2-0.2-2.8-0.7l-18.3-10.5c-0.8-0.5-1.3-1.1-1.3-1.9c0-0.7,0.5-1.4,1.3-1.9l18.2-10.6
			c1.6-0.9,4.1-0.9,5.7,0l18.3,10.5c0.8,0.5,1.3,1.1,1.3,1.9c0,0.7-0.5,1.4-1.3,1.9L255,281.4C254.2,281.9,253.2,282.1,252.1,282.1z
			 M252,256.7c-0.9,0-1.8,0.2-2.4,0.6l-18.2,10.6c-0.6,0.3-0.9,0.8-0.9,1.2c0,0.4,0.3,0.8,0.9,1.2l18.3,10.5c1.3,0.8,3.5,0.8,4.9,0
			l18.2-10.6c0.6-0.3,0.9-0.8,0.9-1.2c0-0.4-0.3-0.8-0.9-1.2l-18.3-10.5C253.8,256.9,252.9,256.7,252,256.7z"/>
		<path fill="#D33A03" d="M97.3,282.1c-1,0-2-0.2-2.8-0.7l-18.3-10.5c-0.8-0.5-1.3-1.1-1.3-1.9c0-0.7,0.5-1.4,1.3-1.9l18.2-10.6
			c1.6-0.9,4.1-0.9,5.7,0l18.3,10.5c0.8,0.5,1.3,1.1,1.3,1.9c0,0.7-0.5,1.4-1.3,1.9l-18.2,10.6C99.3,281.9,98.3,282.1,97.3,282.1z
			 M97.2,256.7c-0.9,0-1.8,0.2-2.4,0.6l-18.2,10.6c-0.6,0.3-0.9,0.8-0.9,1.2c0,0.4,0.3,0.8,0.9,1.2l18.3,10.5c1.3,0.8,3.5,0.8,4.9,0
			l18.2-10.6c0.6-0.3,0.9-0.8,0.9-1.2c0-0.4-0.3-0.8-0.9-1.2l-18.3-10.5C98.9,256.9,98,256.7,97.2,256.7z"/>
	</g>
	<g opacity="0.5">
		<path fill="#D33A03" d="M252.1,273.9c-1,0-2-0.2-2.8-0.7l-18.3-10.5c-0.8-0.5-1.3-1.1-1.3-1.9c0-0.7,0.5-1.4,1.3-1.9l18.2-10.6
			c1.6-0.9,4.1-0.9,5.7,0l18.3,10.5c0.8,0.5,1.3,1.1,1.3,1.9c0,0.7-0.5,1.4-1.3,1.9L255,273.2C254.2,273.7,253.2,273.9,252.1,273.9z
			 M252,248.5c-0.9,0-1.8,0.2-2.4,0.6l-18.2,10.6c-0.6,0.3-0.9,0.8-0.9,1.2c0,0.4,0.3,0.8,0.9,1.2l18.3,10.5c1.3,0.8,3.5,0.8,4.9,0
			l18.2-10.6c0.6-0.3,0.9-0.8,0.9-1.2c0-0.4-0.3-0.8-0.9-1.2l-18.3-10.5C253.8,248.7,252.9,248.5,252,248.5z"/>
		<path fill="#D33A03" d="M97.3,273.9c-1,0-2-0.2-2.8-0.7l-18.3-10.5c-0.8-0.5-1.3-1.1-1.3-1.9c0-0.7,0.5-1.4,1.3-1.9l18.2-10.6
			c1.6-0.9,4.1-0.9,5.7,0l18.3,10.5c0.8,0.5,1.3,1.1,1.3,1.9c0,0.7-0.5,1.4-1.3,1.9l-18.2,10.6C99.3,273.7,98.3,273.9,97.3,273.9z
			 M97.2,248.5c-0.9,0-1.8,0.2-2.4,0.6l-18.2,10.6c-0.6,0.3-0.9,0.8-0.9,1.2c0,0.4,0.3,0.8,0.9,1.2l18.3,10.5c1.3,0.8,3.5,0.8,4.9,0
			l18.2-10.6c0.6-0.3,0.9-0.8,0.9-1.2c0-0.4-0.3-0.8-0.9-1.2l-18.3-10.5C98.9,248.7,98,248.5,97.2,248.5z"/>
	</g>
</g>
</svg>
