<?xml version="1.0" encoding="utf-8"?>
<!-- Generator: Adobe Illustrator 18.0.0, SVG Export Plug-In . SVG Version: 6.00 Build 0)  -->
<!DOCTYPE svg PUBLIC "-//W3C//DTD SVG 1.1//EN" "http://www.w3.org/Graphics/SVG/1.1/DTD/svg11.dtd">
<svg version="1.1" id="Ñëîé_1" xmlns="http://www.w3.org/2000/svg" xmlns:xlink="http://www.w3.org/1999/xlink" x="0px" y="0px"
	 viewBox="354.8 90.6 650 609" enable-background="new 354.8 90.6 650 609" xml:space="preserve">
<g>
	<g>
		<rect x="722.4" y="115.5" opacity="0.8" fill="#F88635" enable-background="new    " width="5.1" height="5.1"/>
		<rect x="733.5" y="115.5" fill="#F88635" width="5.1" height="5.1"/>
		<rect x="744.3" y="115.5" opacity="0.4" fill="#F88635" enable-background="new    " width="5.1" height="5.1"/>
		<rect x="755.3" y="115.5" fill="#F88635" width="5.1" height="5.1"/>
		<rect x="790.3" y="115.5" fill="#F88635" width="5.1" height="5.1"/>
		<rect x="755.3" y="152.3" opacity="0.8" fill="#F88635" enable-background="new    " width="5.1" height="5.1"/>
		<rect x="755.3" y="175.4" fill="#F88635" width="5.1" height="5.1"/>
		<rect x="755.3" y="186" opacity="0.4" fill="#F88635" enable-background="new    " width="5.1" height="5.1"/>
		<rect x="755.3" y="196.3" fill="#F88635" width="5.1" height="5.1"/>
		<rect x="780.5" y="182.1" opacity="0.8" fill="#F88635" enable-background="new    " width="5.1" height="5.1"/>
		<rect x="789.3" y="174.2" fill="#F88635" width="5.1" height="5.1"/>
		<rect x="801.3" y="115.5" opacity="0.4" fill="#F88635" enable-background="new    " width="5.1" height="5.1"/>
	</g>
	<g>
		<rect x="588.7" y="195.2" opacity="0.4" fill="#F88635" enable-background="new    " width="5.1" height="5.1"/>
		<rect x="577.9" y="195.2" fill="#F88635" width="5.1" height="5.1"/>
		<rect x="540.3" y="141" fill="#F88635" width="5.1" height="5.1"/>
		<rect x="540.3" y="130.2" fill="#F88635" width="5.1" height="5.1"/>
		<rect x="540.3" y="119.7" fill="#F88635" width="5.1" height="5.1"/>
		<rect x="542.9" y="195.2" fill="#F88635" width="5.1" height="5.1"/>
		<rect x="577.9" y="158.5" opacity="0.8" fill="#F88635" enable-background="new    " width="5.1" height="5.1"/>
		<rect x="577.9" y="135.6" fill="#F88635" width="5.1" height="5.1"/>
		<rect x="577.9" y="125.1" opacity="0.4" fill="#F88635" enable-background="new    " width="5.1" height="5.1"/>
		<rect x="577.9" y="114.8" fill="#F88635" width="5.1" height="5.1"/>
		<rect x="531.9" y="195.2" opacity="0.4" fill="#F88635" enable-background="new    " width="5.1" height="5.1"/>
	</g>
	<g>
		<circle opacity="0.4" enable-background="new    " cx="616.2" cy="363.9" r="3.3"/>
		<circle opacity="0.4" enable-background="new    " cx="654.3" cy="315.3" r="13.1"/>
		<circle opacity="0.8" enable-background="new    " cx="654.3" cy="315.3" r="5.4"/>
		<g>
			<circle opacity="0.4" fill="#D33A03" enable-background="new    " cx="603.1" cy="296.3" r="6.7"/>
			<circle opacity="0.8" fill="#D33A03" enable-background="new    " cx="603.1" cy="296.3" r="3.3"/>
		</g>
		<circle opacity="0.4" fill="#D33A03" enable-background="new    " cx="551.1" cy="528.3" r="2.1"/>
		<g>
			<path opacity="0.6" enable-background="new    " d="M530.3,173.4c44.7-13.1,98-20.3,154.5-19.8c7.5,0,14.9,0.3,22.1,0.5
				c49.6,4.6,67.4,57.1,37.5,80c-13.9,10.5-30.3,10.5-37.5,10.3s-14.7-0.5-22.1-0.5c-56.6-0.5-109.8,6.9-154.5,19.8
				c-45.3,11.1-47.8-35-32.1-63.3C503.6,191.1,513.3,178.8,530.3,173.4L530.3,173.4z"/>
			<path fill="#D33A03" d="M517.5,266.5c-12.1,0-18.8-5.1-22.6-10c-10.8-14.4-6.9-39.6,2.3-56.1c5.4-9.5,15.4-22.1,32.7-27.8l0,0
				c46.5-13.4,100-20.3,154.8-19.8c7.5,0,14.9,0.3,22.1,0.5c24.9,2.3,45,17.5,51.2,38.8c4.9,16.5-0.3,32.9-13.4,42.9
				c-14.1,10.8-30.9,10.5-38.1,10.5c-7.5-0.3-14.9-0.5-22.1-0.5c-54.8-0.5-108,6.4-154.3,19.8C525.7,266,521.3,266.5,517.5,266.5z
				 M530.6,174.4c-16.7,5.4-26.2,17.5-31.6,26.7c-9,15.9-12.9,40.4-2.6,54c6.7,8.7,18.3,11.3,33.4,7.7
				c46.3-13.4,100-20.3,154.8-19.8c7.5,0,14.9,0.3,22.1,0.5c6.9,0,23.4,0.3,36.8-10.3c12.3-9.5,17.2-25.2,12.6-40.9
				c-5.9-20.6-25.5-35.2-49.6-37.3c-7.2-0.3-14.7-0.5-22.1-0.5C630.1,154.1,576.9,160.8,530.6,174.4z"/>
		</g>
		<g>
			<path fill="#D33A03" d="M677.4,614.9c-5.9,0-11.8-1.3-16.2-3.9l-109-63c-4.6-2.6-6.9-6.2-6.9-10c0-3.9,2.6-7.5,6.9-10l108.5-63
				c9-5.1,23.4-5.1,32.4,0l109,63c4.6,2.6,6.9,6.2,6.9,10c0,3.9-2.6,7.5-6.9,10l-108.5,63C689,613.6,683.1,614.9,677.4,614.9z
				 M676.6,463.2c-5.4,0-11.1,1.3-15.2,3.6l-108.5,63c-3.9,2.3-5.9,5.1-5.9,8.2s2.1,5.9,5.9,8.2l109,63c8.5,4.9,22.1,4.9,30.3,0
				l108.5-63c3.9-2.3,5.9-5.1,5.9-8.2s-2.1-5.9-5.9-8.2l-109-63C687.7,464.5,682.3,463.2,676.6,463.2z"/>
			<path opacity="0.7" fill="#D33A03" enable-background="new    " d="M677.4,651.2c-5.9,0-11.8-1.3-16.2-3.9l-109-63
				c-4.6-2.6-6.9-6.2-6.9-10c0-3.9,2.6-7.5,6.9-10l108.5-63c9-5.1,23.4-5.1,32.4,0l109,63c4.6,2.6,6.9,6.2,6.9,10
				c0,3.9-2.6,7.5-6.9,10l-108.5,63C689,649.9,683.1,651.2,677.4,651.2z M676.6,499.4c-5.4,0-11.1,1.3-15.2,3.6l-108.5,63
				c-3.9,2.3-5.9,5.1-5.9,8.2c0,3.1,2.1,5.9,5.9,8.2l109,63c8.5,4.9,22.1,4.9,30.3,0l108.5-63c3.9-2.3,5.9-5.1,5.9-8.2
				s-2.1-5.9-5.9-8.2l-109-63C687.7,500.7,682.3,499.4,676.6,499.4z"/>
			<path opacity="0.4" fill="#D33A03" enable-background="new    " d="M677.4,687.4c-5.9,0-11.8-1.3-16.2-3.9l-109-62.7
				c-4.6-2.6-6.9-6.2-6.9-10c0-3.9,2.6-7.5,6.9-10l108.5-63c9-5.1,23.4-5.1,32.4,0l109,63c4.6,2.6,6.9,6.2,6.9,10
				c0,3.9-2.6,7.5-6.9,10l-108.5,62.7C689,686.1,683.1,687.4,677.4,687.4z M676.6,536c-5.4,0-11.1,1.3-15.2,3.6l-108.5,63
				c-3.9,2.3-5.9,5.1-5.9,8.2s2.1,5.9,5.9,8.2l109,63c8.5,4.9,22.1,4.9,30.3,0l108.5-63c3.9-2.3,5.9-5.1,5.9-8.2s-2.1-5.9-5.9-8.2
				l-109-63C687.7,537,682.3,536,676.6,536z"/>
			<g>
				
					<linearGradient id="SVGID_1_" gradientUnits="userSpaceOnUse" x1="111.3277" y1="704.1194" x2="183.1486" y2="704.1194" gradientTransform="matrix(2.5714 0 0 -2.5714 244.5715 2314.2856)">
					<stop  offset="0" style="stop-color:#EF6401"/>
					<stop  offset="4.309994e-002" style="stop-color:#E35F01"/>
					<stop  offset="0.4001" style="stop-color:#833701"/>
					<stop  offset="0.6889" style="stop-color:#3C1900"/>
					<stop  offset="0.8955" style="stop-color:#110700"/>
					<stop  offset="1" style="stop-color:#000000"/>
				</linearGradient>
				<path fill="url(#SVGID_1_)" d="M808.5,503.6L808.5,503.6v-52.2l-66.1,8.7l-49.4-28.5c-8.7-4.9-22.6-4.9-31.4,0l-7.7,4.9
					l-107.2,14.4v53l0,0v0.3l0,0c0,3.1,2.3,6.4,6.4,8.7l109,63c8.7,4.9,22.6,4.9,31.4,0l108.5-63c4.1-2.3,6.4-5.7,6.4-8.7l0,0
					L808.5,503.6L808.5,503.6z"/>
				
					<radialGradient id="SVGID_2_" cx="98.5924" cy="758.0164" r="160.3906" gradientTransform="matrix(2.5714 0 0 -2.5714 244.5715 2314.2856)" gradientUnits="userSpaceOnUse">
					<stop  offset="0" style="stop-color:#EF6401"/>
					<stop  offset="9.691735e-002" style="stop-color:#E15E01"/>
					<stop  offset="0.2801" style="stop-color:#BC4F01"/>
					<stop  offset="0.5301" style="stop-color:#813601"/>
					<stop  offset="0.8341" style="stop-color:#2F1400"/>
					<stop  offset="1" style="stop-color:#000000"/>
				</radialGradient>
				<path fill="url(#SVGID_2_)" d="M801.9,441.9l-109-63c-8.7-4.9-22.6-4.9-31.4,0l-108.5,63c-8.7,4.9-8.7,13.1,0,18.3l109,63
					c8.7,4.9,22.6,4.9,31.4,0l108.5-63C810.6,455,810.6,446.7,801.9,441.9z"/>
				<path fill="#FFFFFF" d="M801.9,456.8l-108.3,63c-8.7,4.9-22.6,4.9-31.4,0l-109-63c-3.6-2.1-5.7-4.6-6.4-7.5
					c-0.8,3.9,1.3,7.7,6.4,10.5l109,63c8.7,4.9,22.6,4.9,31.4,0l108.5-63c5.1-2.8,7.2-6.9,6.4-10.5
					C807.8,452.1,805.7,454.7,801.9,456.8z"/>
				<g>
					<polygon fill="#FFFFFF" points="708.3,537 703.1,539.8 703.1,533.9 708.3,531.1 					"/>
					<polygon fill="#FFFFFF" points="719.1,530.8 713.9,533.7 713.9,527.7 719.1,524.7 					"/>
					<polygon fill="#FFFFFF" points="729.9,524.4 724.7,527.5 724.7,521.6 729.9,518.5 					"/>
					<polygon fill="#FFFFFF" points="720.9,541.6 715.7,544.7 715.7,538.8 720.9,535.7 					"/>
					<polygon fill="#FFFFFF" points="730.4,536.2 725.2,539 725.2,533.1 730.4,530.3 					"/>
					<polygon fill="#FFFFFF" points="764.3,504.6 759.2,507.4 759.2,501.5 764.3,498.4 					"/>
					<polygon fill="#FFFFFF" points="794.1,487.4 789,490.2 789,484.3 794.1,481.4 					"/>
					<polygon fill="#FFFFFF" points="740.7,518.2 735.5,521.3 735.5,515.4 740.7,512.3 					"/>
				</g>
			</g>
			<path opacity="0.4" fill="#06033E" enable-background="new    " d="M671.5,496.4l-73.5-42.4c-3.1-1.8-2.6-4.6,0.8-6.7l71.7-41.4
				c3.3-2.1,8.7-2.3,11.6-0.5l73.3,42.4c3.1,1.8,2.6,4.6-0.8,6.7l-71.7,41.4C679.5,497.9,674.3,498.2,671.5,496.4z"/>
			<path fill="#FFFFFF" d="M642.4,542.1l-60.4-35c-1.5-0.8-2.6-3.1-2.6-4.9v-4.4c0-1.8,1.3-2.8,2.6-2.1l60.4,35
				c1.5,0.8,2.6,3.1,2.6,4.9v4.4C645.3,542.1,644,543.2,642.4,542.1z"/>
			<g>
				
					<linearGradient id="SVGID_3_" gradientUnits="userSpaceOnUse" x1="111.3277" y1="742.2195" x2="183.1486" y2="742.2195" gradientTransform="matrix(2.5714 0 0 -2.5714 244.5715 2314.2856)">
					<stop  offset="0" style="stop-color:#EF6401"/>
					<stop  offset="4.309994e-002" style="stop-color:#E35F01"/>
					<stop  offset="0.4001" style="stop-color:#833701"/>
					<stop  offset="0.6889" style="stop-color:#3C1900"/>
					<stop  offset="0.8955" style="stop-color:#110700"/>
					<stop  offset="1" style="stop-color:#000000"/>
				</linearGradient>
				<path fill="url(#SVGID_3_)" d="M808.5,405.6L808.5,405.6v-52.2l-66.1,8.7l-49.4-28.5c-8.7-4.9-22.6-4.9-31.4,0l-7.7,4.9
					l-107.2,14.4v53l0,0v0.3l0,0c0,3.1,2.3,6.4,6.4,8.7l109,63c8.7,4.9,22.6,4.9,31.4,0l108.5-63c4.1-2.3,6.4-5.7,6.4-8.7l0,0
					L808.5,405.6L808.5,405.6z"/>
				
					<radialGradient id="SVGID_4_" cx="98.5924" cy="796.1525" r="160.3906" gradientTransform="matrix(2.5714 0 0 -2.5714 244.5715 2314.2856)" gradientUnits="userSpaceOnUse">
					<stop  offset="0" style="stop-color:#EF6401"/>
					<stop  offset="9.691735e-002" style="stop-color:#E15E01"/>
					<stop  offset="0.2801" style="stop-color:#BC4F01"/>
					<stop  offset="0.5301" style="stop-color:#813601"/>
					<stop  offset="0.8341" style="stop-color:#2F1400"/>
					<stop  offset="1" style="stop-color:#000000"/>
				</radialGradient>
				<path fill="url(#SVGID_4_)" d="M801.9,343.6l-109-63c-8.7-4.9-22.6-4.9-31.4,0l-108.5,63c-8.7,4.9-8.7,13.1,0,18.3l109,63
					c8.7,4.9,22.6,4.9,31.4,0l108.5-63C810.6,356.7,810.6,348.8,801.9,343.6z"/>
				<path opacity="0.4" fill="#06033E" enable-background="new    " d="M750.2,347.5l-63.5-36.8c-5.1-2.8-13.4-2.8-18.3,0
					l-63.3,36.8c-5.1,2.8-5.1,7.7,0,10.5l63.5,36.8c5.1,2.8,13.4,2.8,18.3,0l63.3-36.8C755.1,355.2,755.1,350.6,750.2,347.5z"/>
				<path fill="#FFFFFF" d="M801.9,358.8l-108.3,63c-8.7,4.9-22.6,4.9-31.4,0l-109-63c-3.6-2.1-5.7-4.6-6.4-7.5
					c-0.8,3.9,1.3,7.7,6.4,10.5l109,63c8.7,4.9,22.6,4.9,31.4,0l108.5-63c5.1-2.8,7.2-6.9,6.4-10.5
					C807.8,353.9,805.7,356.5,801.9,358.8z"/>
				<g>
					<polygon fill="#FFFFFF" points="708.3,438.8 703.1,441.9 703.1,435.9 708.3,432.9 					"/>
					<polygon fill="#FFFFFF" points="719.1,432.6 713.9,435.7 713.9,429.8 719.1,426.7 					"/>
					<polygon fill="#FFFFFF" points="729.9,426.4 724.7,429.5 724.7,423.3 729.9,420.5 					"/>
					<polygon fill="#FFFFFF" points="720.9,443.6 715.7,446.5 715.7,440.6 720.9,437.7 					"/>
					<polygon fill="#FFFFFF" points="730.4,438 725.2,441.1 725.2,435.2 730.4,432.1 					"/>
					<polygon fill="#FFFFFF" points="764.3,406.4 759.2,409.4 759.2,403.5 764.3,400.4 					"/>
					<polygon fill="#FFFFFF" points="794.1,389.1 789,392.2 789,386.3 794.1,383.2 					"/>
					<polygon fill="#FFFFFF" points="740.7,420.3 735.5,423.1 735.5,417.2 740.7,414.3 					"/>
				</g>
			</g>
			<g>
				
					<linearGradient id="SVGID_5_" gradientUnits="userSpaceOnUse" x1="111.3277" y1="780.4694" x2="183.1486" y2="780.4694" gradientTransform="matrix(2.5714 0 0 -2.5714 244.5715 2314.2856)">
					<stop  offset="0" style="stop-color:#EF6401"/>
					<stop  offset="4.309994e-002" style="stop-color:#E35F01"/>
					<stop  offset="0.4001" style="stop-color:#833701"/>
					<stop  offset="0.6889" style="stop-color:#3C1900"/>
					<stop  offset="0.8955" style="stop-color:#110700"/>
					<stop  offset="1" style="stop-color:#000000"/>
				</linearGradient>
				<path fill="url(#SVGID_5_)" d="M808.5,307.4L808.5,307.4v-52.2l-66.1,8.7l-49.4-28.5c-8.7-4.9-22.6-4.9-31.4,0l-7.7,4.9
					l-107.2,14.4v52.7l0,0v0.3l0,0c0,3.1,2.3,6.4,6.4,8.7l109,63c8.7,4.9,22.6,4.9,31.4,0l108.5-63c4.1-2.3,6.4-5.7,6.4-8.7l0,0
					L808.5,307.4L808.5,307.4z"/>
				
					<radialGradient id="SVGID_6_" cx="98.5924" cy="834.2885" r="160.3906" gradientTransform="matrix(2.5714 0 0 -2.5714 244.5715 2314.2856)" gradientUnits="userSpaceOnUse">
					<stop  offset="0" style="stop-color:#EF6401"/>
					<stop  offset="9.691735e-002" style="stop-color:#E15E01"/>
					<stop  offset="0.2801" style="stop-color:#BC4F01"/>
					<stop  offset="0.5301" style="stop-color:#813601"/>
					<stop  offset="0.8341" style="stop-color:#2F1400"/>
					<stop  offset="1" style="stop-color:#000000"/>
				</radialGradient>
				<path fill="url(#SVGID_6_)" d="M801.9,245.7l-109-63c-8.7-4.9-22.6-4.9-31.4,0l-108.5,63c-8.7,4.9-8.7,13.1,0,18.3l109,63
					c8.7,4.9,22.6,4.9,31.4,0l108.5-63C810.6,258.8,810.6,250.8,801.9,245.7z"/>
				
					<radialGradient id="SVGID_7_" cx="112.7455" cy="824.6237" r="110.2741" gradientTransform="matrix(2.5714 0 0 -2.5714 244.5715 2314.2856)" gradientUnits="userSpaceOnUse">
					<stop  offset="0" style="stop-color:#000000"/>
					<stop  offset="1" style="stop-color:#000000"/>
				</radialGradient>
				<path fill="url(#SVGID_7_)" d="M801.9,245.7l-109-63c-8.7-4.9-22.6-4.9-31.4,0l-108.5,63c-8.7,4.9-8.7,13.1,0,18.3l109,63
					c8.7,4.9,22.6,4.9,31.4,0l108.5-63C810.6,258.8,810.6,250.8,801.9,245.7z"/>
				<path fill="#FF5F00" d="M677.7,306.6c-4.1,0-8-0.8-11.1-2.6l-72.3-41.7c-3.3-1.8-5.1-4.4-5.1-7.2s1.8-5.4,5.1-7.2l71.7-41.7
					c6.2-3.6,15.9-3.6,22.1,0l72.3,41.7c3.3,1.8,5.1,4.4,5.1,7.2c0,2.8-1.8,5.4-5.1,7.2L688.7,304
					C685.6,305.6,681.8,306.6,677.7,306.6z M677.4,206.1c-3.6,0-6.9,0.8-9.8,2.3L595.9,250c-2.3,1.3-3.6,3.1-3.6,4.9
					c0,1.8,1.3,3.3,3.6,4.9l72.3,41.7c5.4,3.1,14.1,3.1,19.3,0l71.7-41.7c2.3-1.3,3.6-3.1,3.6-4.9c0-1.8-1.3-3.3-3.6-4.9l-72.3-41.7
					C684.3,206.8,680.7,206.1,677.4,206.1z"/>
				<path fill="#FFFFFF" d="M801.9,260.6l-108.3,63.3c-8.7,4.9-22.6,4.9-31.4,0l-109-63c-3.6-2.1-5.7-4.6-6.4-7.5
					c-0.8,3.9,1.3,7.7,6.4,10.5l109,63c8.7,4.9,22.6,4.9,31.4,0l108.5-63c5.1-2.8,7.2-6.9,6.4-10.5
					C807.8,255.9,805.7,258.5,801.9,260.6z"/>
				<g>
					<polygon fill="#FFFFFF" points="708.3,340.8 703.1,343.9 703.1,338 708.3,334.9 					"/>
					<polygon fill="#FFFFFF" points="719.1,334.6 713.9,337.5 713.9,331.5 719.1,328.7 					"/>
					<polygon fill="#FFFFFF" points="729.9,328.5 724.7,331.3 724.7,325.4 729.9,322.3 					"/>
					<polygon fill="#FFFFFF" points="720.9,345.4 715.7,348.5 715.7,342.6 720.9,339.5 					"/>
					<polygon fill="#FFFFFF" points="730.4,340 725.2,343.1 725.2,336.9 730.4,334.1 					"/>
					<polygon fill="#FFFFFF" points="764.3,308.4 759.2,311.2 759.2,305.3 764.3,302.5 					"/>
					<polygon fill="#FFFFFF" points="794.1,291.2 789,294.3 789,288.1 794.1,285.3 					"/>
					<polygon fill="#FFFFFF" points="740.7,322 735.5,325.1 735.5,319.2 740.7,316.1 					"/>
				</g>
			</g>
		</g>
		<g>
			<path opacity="0.6" enable-background="new    " d="M696.4,452.9c-7.2,0.3-14.4,0.3-21.6,0.3c-56.8-0.5-109.5-8.7-153.5-22.6
				c-44-11.8-46.5,34.2-31.1,62.5c10.8,20.3,25.7,25.7,31.1,27.8c44,13.9,96.7,22.1,153.5,22.6c7.2,0,14.4,0,21.6-0.3
				c51.7-3.9,65.1-53.2,40.9-76.4C730.6,460.4,718.3,452.6,696.4,452.9L696.4,452.9z"/>
			<g>
				<g opacity="0.3">
					<path fill="#D33A03" d="M963.6,396.6l-0.8-1.5c-0.8-1.5-1.5-3.6-2.6-6.2c-9.5-28-37.5-53.5-81-73.5
						c-30.1-17.2-37.5-41.9-39.3-51.7l0,0c-2.1-11.6,0.3-28,10.3-36.8c7.2-6.4,17.2-7.7,29.6-3.6c44,20.3,72.5,46,82,74.6
						c2.1,8,3.6,14.4,3.6,42.7v48.1c0,4.1,0,4.4-1.3,6.4L963.6,396.6z M842,263.1c1.8,9.5,8.7,33.7,38.3,50.4
						c44,20.3,72.3,46,82,74.6c0.5,1.5,1,3.1,1.5,4.1c0-0.8,0-1.5,0-3.6v-48.1c0-28.3-1.5-34.5-3.6-42.2c-9.5-28-37.5-53.2-81-73.3
						c-11.6-3.9-20.8-2.6-27.8,3.3C842,236.4,839.9,252.1,842,263.1L842,263.1z"/>
					<path fill="#D33A03" d="M395.8,410h-2.1v-90.5c0-0.8,0-1.5,0-2.3c0.5-14.9,6.2-29.6,17-43.5l0.5-0.5c2.1-2.1,4.9-4.9,7.7-5.1
						c3.9-0.5,7.5,1.3,10,5.7c9,14.1,8.2,55-16.7,91.5C398.1,384.5,397.1,395.8,395.8,410z M420.5,269.6c-0.3,0-0.5,0-1,0
						c-2.3,0.3-4.9,2.8-6.7,4.6l-0.3,0.3c-10.3,13.6-15.9,27.8-16.5,42.4c0,0.8,0,1.5,0,2.3v75.1c1.8-8.7,5.7-18,15.2-30.9
						c24.2-35.7,25.2-75.6,16.5-89.5C426.2,272.1,423.9,269.6,420.5,269.6z"/>
				</g>
				<g>
					<g>
						<path fill="#D33A03" d="M416.4,457c-2.3,0-5.4-1.3-9-5.9c-11.8-16.2-12.9-31.6-13.6-41.1v-90.5h2.1c0,13.6,4.4,27.3,13.1,40.1
							c19.3,31.9,21.6,63.3,19.8,76.9l0,0c-1.3,11.1-5.7,19-10.8,20.3C417.7,456.8,417.2,457,416.4,457z M395.8,335.1v74.6
							c0.8,9,1.8,24.4,13.1,40.1c2.1,2.8,5.1,5.9,8.5,4.9c4.4-1,8.2-8.5,9.5-18.8l0,0c1.5-13.4-0.5-44.2-19.5-75.6
							C402,352.4,398.1,343.9,395.8,335.1z"/>
						<path fill="#D33A03" d="M679.7,544.5c-1.5,0-3.3,0-4.9,0c-55-0.5-108.3-8.2-153.8-22.6c-5.7-2.1-20.8-7.7-31.9-28.3
							c-9.3-17-12.9-42.7-1.8-56.6c4.9-6.2,14.7-12.6,34.2-7.5c45.5,14.4,98.5,22.1,153.3,22.6c7.2,0,14.4,0,21.6-0.3l0,0
							c22.1,0,34.7,7.7,41.7,14.1c11.3,10.8,14.9,28,9.3,44c-7.2,19.5-26,32.4-50.7,34.2C691,544.5,685.4,544.5,679.7,544.5z
							 M508.5,429.5c-8.5,0-14.9,2.8-19.5,8.5c-10.5,13.4-6.9,38.1,2.1,54.5c10.8,19.8,25.2,25.2,30.6,27.3
							c45.3,14.1,98.2,22.1,153.3,22.4c7.2,0,14.4,0,21.6-0.3c23.9-1.8,42.2-14.1,49.1-32.9c5.4-15.2,2.1-31.6-8.7-41.9
							c-6.4-6.2-18.8-13.6-39.6-13.6c-0.3,0-0.5,0-0.8,0c-7.2,0.3-14.4,0.3-21.6,0.3c-55-0.5-108.3-8.2-153.8-22.6
							C516.7,430.3,512.3,429.5,508.5,429.5z"/>
						<path fill="#D33A03" d="M859.5,511.5c-8.7,0-16.2-3.3-21.1-9.5c-9.8-12.1-10-33.9-0.5-51.9c10.8-20.3,27.5-29.3,33.7-32.7
							c45-19.3,75.1-44.2,86.9-72c1.3-2.8,2.3-4.9,3.3-6.2l0.3-0.3l2.3-0.3l0.3,0.8c0.8,2.3,1,3.1,1.3,13.9v27.8
							c-0.3,39.3-2.6,46.5-5.4,55.5c-12.1,28.3-42.4,53.5-87.9,73C867.7,510.8,863.6,511.5,859.5,511.5z M963.1,340.5
							c-0.8,1.3-1.8,3.1-2.8,5.4c-12.1,28.3-42.4,53.5-87.7,73c-6.2,3.3-22.4,11.8-32.9,31.9c-9.3,17.5-9,38.3,0.3,49.9
							c4.9,5.9,14.4,12.1,31.9,6.9c45-19.3,74.8-44.2,86.7-72c2.8-8.7,5.1-15.9,5.4-54.8v-27.8C963.6,344.1,963.3,342.3,963.1,340.5
							z"/>
					</g>
				</g>
			</g>
		</g>
		<g>
			<path fill="#D33A03" d="M876.4,649.6c-2.6,0-5.1-0.5-7.2-1.8l-47.1-27c-2.1-1.3-3.3-2.8-3.3-4.9c0-1.8,1.3-3.6,3.3-4.9l46.8-27.3
				c4.1-2.3,10.5-2.3,14.7,0l47.1,27c2.1,1.3,3.3,2.8,3.3,4.9c0,1.8-1.3,3.6-3.3,4.9l-46.8,27.3
				C881.8,649.1,879.3,649.6,876.4,649.6z M876.2,584.3c-2.3,0-4.6,0.5-6.2,1.5l-46.8,27.3c-1.5,0.8-2.3,2.1-2.3,3.1
				c0,1,0.8,2.1,2.3,3.1l47.1,27c3.3,2.1,9,2.1,12.6,0l46.8-27.3c1.5-0.8,2.3-2.1,2.3-3.1c0-1-0.8-2.1-2.3-3.1l-47.1-27
				C880.8,584.8,878.5,584.3,876.2,584.3z"/>
			<path fill="#D33A03" d="M478.4,649.6c-2.6,0-5.1-0.5-7.2-1.8l-47.1-27c-2.1-1.3-3.3-2.8-3.3-4.9c0-1.8,1.3-3.6,3.3-4.9l46.8-27.3
				c4.1-2.3,10.5-2.3,14.7,0l47.1,27c2.1,1.3,3.3,2.8,3.3,4.9c0,1.8-1.3,3.6-3.3,4.9l-46.8,27.3
				C483.5,649.1,480.9,649.6,478.4,649.6z M478.1,584.3c-2.3,0-4.6,0.5-6.2,1.5l-46.8,27.3c-1.5,0.8-2.3,2.1-2.3,3.1
				c0,1,0.8,2.1,2.3,3.1l47.1,27c3.3,2.1,9,2.1,12.6,0l46.8-27.3c1.5-0.8,2.3-2.1,2.3-3.1c0-1-0.8-2.1-2.3-3.1l-47.1-27
				C482.5,584.8,480.2,584.3,478.1,584.3z"/>
		</g>
		<g opacity="0.5">
			<path fill="#D33A03" d="M876.4,628.5c-2.6,0-5.1-0.5-7.2-1.8l-47.1-27c-2.1-1.3-3.3-2.8-3.3-4.9c0-1.8,1.3-3.6,3.3-4.9l46.8-27.3
				c4.1-2.3,10.5-2.3,14.7,0l47.1,27c2.1,1.3,3.3,2.8,3.3,4.9c0,1.8-1.3,3.6-3.3,4.9l-46.8,27.3C881.8,628,879.3,628.5,876.4,628.5z
				 M876.2,563.2c-2.3,0-4.6,0.5-6.2,1.5L823.2,592c-1.5,0.8-2.3,2.1-2.3,3.1c0,1,0.8,2.1,2.3,3.1l47.1,27c3.3,2.1,9,2.1,12.6,0
				l46.8-27.3c1.5-0.8,2.3-2.1,2.3-3.1c0-1-0.8-2.1-2.3-3.1l-47.1-27C880.8,563.7,878.5,563.2,876.2,563.2z"/>
			<path fill="#D33A03" d="M478.4,628.5c-2.6,0-5.1-0.5-7.2-1.8l-47.1-27c-2.1-1.3-3.3-2.8-3.3-4.9c0-1.8,1.3-3.6,3.3-4.9l46.8-27.3
				c4.1-2.3,10.5-2.3,14.7,0l47.1,27c2.1,1.3,3.3,2.8,3.3,4.9c0,1.8-1.3,3.6-3.3,4.9l-46.8,27.3C483.5,628,480.9,628.5,478.4,628.5z
				 M478.1,563.2c-2.3,0-4.6,0.5-6.2,1.5L425.1,592c-1.5,0.8-2.3,2.1-2.3,3.1c0,1,0.8,2.1,2.3,3.1l47.1,27c3.3,2.1,9,2.1,12.6,0
				l46.8-27.3c1.5-0.8,2.3-2.1,2.3-3.1c0-1-0.8-2.1-2.3-3.1l-47.1-27C482.5,563.7,480.2,563.2,478.1,563.2z"/>
		</g>
	</g>
</g>
</svg>
