<?xml version="1.0" encoding="utf-8"?>
<!-- Generator: Adobe Illustrator 18.0.0, SVG Export Plug-In . SVG Version: 6.00 Build 0)  -->
<!DOCTYPE svg PUBLIC "-//W3C//DTD SVG 1.1//EN" "http://www.w3.org/Graphics/SVG/1.1/DTD/svg11.dtd">
<svg version="1.1" id="Layer_1" xmlns="http://www.w3.org/2000/svg" xmlns:xlink="http://www.w3.org/1999/xlink" x="0px" y="0px"
	 viewBox="0 0 200 200" enable-background="new 0 0 200 200" xml:space="preserve">
<g>
	<linearGradient id="SVGID_1_" gradientUnits="userSpaceOnUse" x1="30.718" y1="100" x2="169.2804" y2="100">
		<stop  offset="0" style="stop-color:#E96428"/>
		<stop  offset="1" style="stop-color:#9E391A"/>
	</linearGradient>
	<path fill="url(#SVGID_1_)" d="M100,24.4L30.7,63.5v79.7l45.8,26.4c13.7,7.9,30.6,8.1,44.5,0.4l48.3-26.7l0-78.6L100,24.4z"/>
	<linearGradient id="SVGID_2_" gradientUnits="userSpaceOnUse" x1="103.3783" y1="175.4064" x2="95.851" y2="103.7883">
		<stop  offset="0" style="stop-color:#E96428"/>
		<stop  offset="1" style="stop-color:#9E391A"/>
	</linearGradient>
	<path fill="url(#SVGID_2_)" d="M30.7,143.2l69.3-39.9l69.3,40L121,170c-13.9,7.7-30.8,7.5-44.5-0.4L30.7,143.2z"/>
	<linearGradient id="SVGID_3_" gradientUnits="userSpaceOnUse" x1="169.282" y1="83.8506" x2="100.0008" y2="83.8506">
		<stop  offset="0" style="stop-color:#E96428"/>
		<stop  offset="1" style="stop-color:#9E391A"/>
	</linearGradient>
	<polygon fill="url(#SVGID_3_)" points="169.3,143.3 100,103.4 100,24.4 169.3,64.7 	"/>
	<linearGradient id="SVGID_4_" gradientUnits="userSpaceOnUse" x1="30.7197" y1="83.801" x2="100.0008" y2="83.801">
		<stop  offset="0" style="stop-color:#E96428"/>
		<stop  offset="1" style="stop-color:#9E391A"/>
	</linearGradient>
	<polygon fill="url(#SVGID_4_)" points="30.7,143.2 100,103.4 100,24.4 30.7,63.5 	"/>
	<g opacity="0.6">
		
			<image overflow="visible" width="499" height="418" xlink:href="790266E0.png"  transform="matrix(0.24 0 0 0.24 37.4926 85.4384)">
		</image>
	</g>
	<g>
		<path fill="#FFFFFF" d="M129.1,145.7c-1.3,1.5-3,2.1-5,2.3c-4.3,0.5-7.7-1.6-11.2-3.6c-8.5-4.8-17-9.6-25.5-14.4
			c-4.9-2.8-9.8-5.5-14.7-8.3c-4.3-2.5-7.5-6.2-10-10.4c-1.7-2.9-3-6-3.6-9.4c-0.5-3.3-0.7-6.6,1.1-9.6c0.8-1.4,2.1-2.4,3.6-3.1
			c0.2,0,0.4,0,0.6,0c1.5-0.4,3.1-0.3,4.6,0.1c1.9,0.5,3.6,1.3,5.2,2.4c0.5,0.4,0.7,0.2,0.7-0.4c0-0.6,0.1-1.1,0.2-1.7
			c0.8-3.5,2.4-6.4,5.9-7.9c0.2-0.1,0.5-0.1,0.4-0.5c3.7-2.3,7.4-4.7,11.1-7c1.6-1,3.5-1.3,5.4-1.2c5,0.3,9.1,2.6,12.7,5.8
			c6.1,5.2,10.4,11.8,12.8,19.5c0.2,0.6,0.3,1.3,0.5,1.9c-4.1,2.6-8.3,5.3-12.5,8c0.9,0.3,1.6,0.6,2.3,0.9c0.7,0.3,1.4,0.6,2.1,1.1
			c9.3,6.1,14.8,14.6,16.1,25.6C132.3,139.3,131.6,142.8,129.1,145.7z M101.5,106.5L101.5,106.5c0-0.3-0.1-0.5-0.2-0.7
			c-2-4.4-4.1-8.7-6.2-13.1c-0.6-1.3-1.1-2.7-2-4c0-0.1,0-0.2-0.1-0.4c-0.4-1.1-0.5-1.1-1.2-0.2c-3,3.5-6,7-9,10.6
			c-0.4,0.4-0.4,0.6,0.2,0.9c1.3,0.7,2.5,1.5,3.8,2.2c0.5,0.3,0.7,0.6,0.7,1.2c0,1.7,0,3.3,0,5c0,5.7,0,11.5,0,17.2
			c0,0.5,0.1,0.8,0.6,1.1c3,1.7,5.9,3.4,8.9,5.1c0.5,0.3,0.8,0.4,0.8-0.4c0-1,0-1.9,0-2.9c0-5.1,0-10.1,0-15.2
			c0-1.6-0.1-3.2,0.1-4.8c2,1.2,3.9,2.3,5.9,3.5c0.1-0.1,0.1-0.1,0.2-0.2c-0.7-1.6-1.5-3.1-2.2-4.7
			C101.6,106.6,101.5,106.5,101.5,106.5z"/>
		<path fill="#1D2A33" d="M129.1,145.7c2.5-2.9,3.2-6.4,2.8-10c-1.4-11-6.8-19.5-16.1-25.6c-0.6-0.4-1.4-0.7-2.1-1.1
			c-0.7-0.3-1.4-0.6-2.3-0.9c4.2-2.7,8.4-5.3,12.5-8c0.1,0,0.1,0.1,0.2,0.1c0,0,0,0.1,0,0.1l0.1,0c3.9,1.2,7.2,3.6,10,6.5
			c4.7,4.8,8,10.4,9.6,17c0.9,3.5,1.1,7-0.1,10.5c-0.8,2.3-2.2,4-4.3,5.2c-3.2,1.9-6.2,3.9-9.3,5.9
			C129.8,145.5,129.5,145.8,129.1,145.7z"/>
		<path fill="#1D2A33" d="M81.4,81.2c0.1,0.4-0.2,0.4-0.4,0.5c-3.5,1.5-5.1,4.4-5.9,7.9c-0.1,0.6-0.2,1.1-0.2,1.7
			c0,0.6-0.2,0.7-0.7,0.4c-1.6-1.1-3.3-1.9-5.2-2.4c-1.5-0.4-3.1-0.5-4.6-0.1c-0.2,0.1-0.4,0-0.6,0c3.1-2,6.2-3.8,9.1-5.9
			C75.5,81.6,78.2,80.5,81.4,81.2z"/>
		<polygon fill="#72EDF6" points="124.2,100.3 124.1,100.3 124.1,100.2 124.2,100.2 		"/>
		<linearGradient id="SVGID_5_" gradientUnits="userSpaceOnUse" x1="85.7821" y1="108.3589" x2="101.474" y2="108.3589">
			<stop  offset="0" style="stop-color:#E96428"/>
			<stop  offset="1" style="stop-color:#9E391A"/>
		</linearGradient>
		<path fill="url(#SVGID_5_)" d="M93.1,88.7c0.8,1.2,1.3,2.7,2,4c2.1,4.3,4.1,8.7,6.2,13.1c0.1,0.2,0.3,0.5,0.2,0.8
			c-0.3,0-0.6-0.2-0.9,0c-0.9,0.6-1.8,1.1-2.8,1.6c-0.2,1.6-0.1,3.2-0.1,4.8c0,5.1,0,10.1,0,15.2c-2.1-1.2-4.2-2.4-6.3-3.6
			c-0.5-0.3-0.7-0.6-0.7-1.3c0-7.3,0-14.7,0-22c0-0.6-0.1-1-0.7-1.3c-1.3-0.7-2.5-1.5-3.8-2.2c-0.4-0.2-0.6-0.4-0.2-0.8
			C88.4,94.2,90.8,91.4,93.1,88.7z"/>
		<path fill="#1D2A33" d="M93.1,88.7c-2.4,2.8-4.7,5.5-7.1,8.3c-0.4,0.4-0.2,0.6,0.2,0.8c1.3,0.7,2.5,1.5,3.8,2.2
			c0.6,0.3,0.7,0.7,0.7,1.3c0,7.3,0,14.7,0,22c0,0.6,0.2,1,0.7,1.3c2.1,1.2,4.2,2.4,6.3,3.6c0,1,0,1.9,0,2.9c0,0.8-0.2,0.7-0.8,0.4
			c-3-1.7-5.9-3.4-8.9-5.1c-0.5-0.3-0.6-0.6-0.6-1.1c0-5.7,0-11.5,0-17.2c0-1.7,0-3.3,0-5c0-0.6-0.2-0.9-0.7-1.2
			c-1.3-0.7-2.5-1.5-3.8-2.2c-0.5-0.3-0.5-0.5-0.2-0.9c3-3.5,6-7,9-10.6c0.8-0.9,0.8-0.9,1.2,0.2C93.1,88.4,93.1,88.5,93.1,88.7z"/>
		<path fill="#1D2A33" d="M97.8,108c0.9-0.5,1.9-1,2.8-1.6c0.3-0.2,0.6,0,0.9,0c0,0,0,0,0,0c0,0.1,0.1,0.2,0.2,0.2
			c0.7,1.6,1.5,3.1,2.2,4.7c-0.1,0.1-0.1,0.1-0.2,0.2C101.7,110.4,99.7,109.2,97.8,108z"/>
		<path fill="#FEFEFE" d="M101.6,106.6c-0.1,0-0.2,0-0.2-0.2C101.5,106.5,101.6,106.6,101.6,106.6z"/>
	</g>
</g>
</svg>
