<?xml version="1.0" encoding="utf-8"?>
<!-- Generator: Adobe Illustrator 18.0.0, SVG Export Plug-In . SVG Version: 6.00 Build 0)  -->
<!DOCTYPE svg PUBLIC "-//W3C//DTD SVG 1.1//EN" "http://www.w3.org/Graphics/SVG/1.1/DTD/svg11.dtd">
<svg version="1.1" id="Layer_1" xmlns="http://www.w3.org/2000/svg" xmlns:xlink="http://www.w3.org/1999/xlink" x="0px" y="0px"
	 viewBox="0 0 300 250" enable-background="new 0 0 300 250" xml:space="preserve">
<g>
	<path fill="#142226" d="M255.3,206.7H49.7c-4.3,0-7.8-3.5-7.8-7.8V62.2c0-4.3,3.5-7.8,7.8-7.8h205.6c4.3,0,7.8,3.5,7.8,7.8v136.7
		C263.1,203.2,259.6,206.7,255.3,206.7z"/>
	<path fill="#FFFFFF" d="M251.7,200.5H54.1c-4.6,0-8.3-3.7-8.3-8.3V68.9c0-4.6,3.7-8.3,8.3-8.3h197.6c4.6,0,8.3,3.7,8.3,8.3v123.3
		C260.1,196.8,256.3,200.5,251.7,200.5z"/>
	<circle fill="#F9D939" cx="69.7" cy="73.9" r="2.4"/>
	<circle fill="#ED1C26" cx="61.9" cy="73.9" r="2.4"/>
	<circle fill="#5FBB46" cx="77.5" cy="73.9" r="2.4"/>
	<linearGradient id="SVGID_1_" gradientUnits="userSpaceOnUse" x1="59.1969" y1="134.8158" x2="126.1143" y2="134.8158">
		<stop  offset="0" style="stop-color:#EA6428"/>
		<stop  offset="1" style="stop-color:#C9491E"/>
	</linearGradient>
	<path opacity="0.3" fill="url(#SVGID_1_)" d="M103,140.3c-1.6-0.8-3.2-2.2-4.6-4.1c4.6-2,8.1-6.4,9.4-11.8c1.7-0.6,3-2.4,3-4.6
		c0-2.3-1.3-4.2-3.2-4.7c-1.9-7.1-7.8-12.2-14.8-12.2c-7,0-12.9,5.2-14.8,12.2c-1.8,0.5-3.2,2.4-3.2,4.7c0,2.2,1.3,4,3,4.6
		c1.2,5.4,4.8,9.8,9.4,11.8c-1.4,1.9-3.1,3.3-4.6,4.1c-10.5,3.6-20.7,9.8-23.2,19c9.4,4.8,22.2,7.5,33.5,7.5s24.1-2.8,33.5-7.5
		C123.7,150.1,113.4,143.9,103,140.3z"/>
	<linearGradient id="SVGID_2_" gradientUnits="userSpaceOnUse" x1="179.8856" y1="134.8158" x2="246.803" y2="134.8158">
		<stop  offset="0" style="stop-color:#EA6428"/>
		<stop  offset="1" style="stop-color:#C9491E"/>
	</linearGradient>
	<path opacity="0.3" fill="url(#SVGID_2_)" d="M223.6,140.3c-1.6-0.8-3.2-2.2-4.6-4.1c4.6-2,8.1-6.4,9.4-11.8c1.7-0.6,3-2.4,3-4.6
		c0-2.3-1.3-4.2-3.2-4.7c-1.9-7.1-7.8-12.2-14.8-12.2c-7,0-12.9,5.2-14.8,12.2c-1.8,0.5-3.2,2.4-3.2,4.7c0,2.2,1.3,4,3,4.6
		c1.2,5.4,4.8,9.8,9.4,11.8c-1.4,1.9-3.1,3.3-4.6,4.1c-10.5,3.6-20.7,9.8-23.2,19c9.4,4.8,22.2,7.5,33.5,7.5s24.1-2.8,33.5-7.5
		C244.4,150.1,234.1,143.9,223.6,140.3z"/>
	<linearGradient id="SVGID_3_" gradientUnits="userSpaceOnUse" x1="109.0895" y1="134.8158" x2="210.0564" y2="134.8158">
		<stop  offset="0" style="stop-color:#EA6428"/>
		<stop  offset="1" style="stop-color:#C9491E"/>
	</linearGradient>
	<path fill="url(#SVGID_3_)" stroke="#FFFFFF" stroke-width="4.2097" stroke-miterlimit="10" d="M175.1,143.1
		c-2.4-1.2-4.9-3.3-7-6.2c6.9-3,12.2-9.7,14.1-17.9c2.6-0.9,4.5-3.7,4.5-7c0-3.4-2-6.3-4.8-7.1c-2.9-10.7-11.8-18.5-22.4-18.5
		c-10.5,0-19.5,7.8-22.4,18.5c-2.7,0.8-4.8,3.6-4.8,7.1c0,3.3,1.9,6.1,4.5,7c1.9,8.2,7.2,14.8,14.1,17.9c-2.1,2.9-4.6,5-7,6.2
		c-15.8,5.4-31.3,14.8-34.9,28.6c14.1,7.2,33.6,11.4,50.5,11.4s36.4-4.2,50.5-11.4C206.4,157.9,190.9,148.5,175.1,143.1z"/>
	<g>
		<linearGradient id="SVGID_4_" gradientUnits="userSpaceOnUse" x1="210.2979" y1="72.4055" x2="258.9887" y2="72.4055">
			<stop  offset="0" style="stop-color:#EA6428"/>
			<stop  offset="1" style="stop-color:#C9491E"/>
		</linearGradient>
		<path fill="url(#SVGID_4_)" d="M251.4,51h-33.4c-4.2,0-7.6,3.4-7.6,7.6V79c0,4.2,3.4,7.6,7.6,7.6h-0.8l-2.9,7.2l14.7-7.2h22.5
			c4.2,0,7.6-3.4,7.6-7.6V58.7C259,54.5,255.6,51,251.4,51z"/>
		<g>
			<rect x="218.6" y="61.7" fill="#FFFFFF" width="25" height="1.1"/>
			<rect x="218.6" y="65" fill="#FFFFFF" width="25" height="1.1"/>
			<linearGradient id="SVGID_5_" gradientUnits="userSpaceOnUse" x1="218.5674" y1="68.9629" x2="243.5674" y2="68.9629">
				<stop  offset="0" style="stop-color:#EA6428"/>
				<stop  offset="1" style="stop-color:#C9491E"/>
			</linearGradient>
			<rect x="218.6" y="68.4" fill="url(#SVGID_5_)" width="25" height="1.1"/>
			<rect x="218.6" y="71.8" fill="#FFFFFF" width="25" height="1.1"/>
		</g>
		<path fill="#142226" d="M261.8,58.9h-33.4c-4.2,0-7.6,3.4-7.6,7.6v20.3c0,4.2,3.4,7.6,7.6,7.6l-2.9,7.2l14.7-7.2h21.6
			c4.2,0,7.6-3.4,7.6-7.6V66.5C269.4,62.3,266,58.9,261.8,58.9z"/>
		<g>
			<rect x="232.6" y="71.8" fill="#FFFFFF" width="25" height="1.1"/>
			<rect x="232.6" y="75.1" fill="#FFFFFF" width="25" height="1.1"/>
			<linearGradient id="SVGID_6_" gradientUnits="userSpaceOnUse" x1="232.5825" y1="79.0817" x2="257.5825" y2="79.0817">
				<stop  offset="0" style="stop-color:#EA6428"/>
				<stop  offset="1" style="stop-color:#C9491E"/>
			</linearGradient>
			<rect x="232.6" y="78.5" fill="url(#SVGID_6_)" width="25" height="1.1"/>
			<rect x="232.6" y="81.9" fill="#FFFFFF" width="25" height="1.1"/>
		</g>
	</g>
</g>
</svg>
