<?xml version="1.0" encoding="utf-8"?>
<!-- Generator: Adobe Illustrator 18.0.0, SVG Export Plug-In . SVG Version: 6.00 Build 0)  -->
<!DOCTYPE svg PUBLIC "-//W3C//DTD SVG 1.1//EN" "http://www.w3.org/Graphics/SVG/1.1/DTD/svg11.dtd">
<svg version="1.1" id="Layer_1" xmlns="http://www.w3.org/2000/svg" xmlns:xlink="http://www.w3.org/1999/xlink" x="0px" y="0px"
	 viewBox="0 0 300 300" enable-background="new 0 0 300 300" xml:space="preserve">
<linearGradient id="SVGID_1_" gradientUnits="userSpaceOnUse" x1="27.0038" y1="265.0044" x2="58.995" y2="265.0044">
	<stop  offset="0" style="stop-color:#EA6428"/>
	<stop  offset="1" style="stop-color:#C9491E"/>
</linearGradient>
<polygon fill="url(#SVGID_1_)" points="27,256 59,256 59,274 27,274 35.8,265.3 "/>
<path fill="none" stroke="#142226" stroke-width="59.315" stroke-miterlimit="10" d="M226.1,89.4c0,0-20.4-0.6-38-8.2
	C172.2,74.3,150,60.3,150,60.3s-22.2,14-38.1,20.9c-17.6,7.6-38,8.2-38,8.2s-5.1,69,76.1,150.2C231.2,158.4,226.1,89.4,226.1,89.4z"
	/>
<linearGradient id="SVGID_2_" gradientUnits="userSpaceOnUse" x1="73.7905" y1="149.9999" x2="226.2095" y2="149.9999">
	<stop  offset="0" style="stop-color:#EA6428"/>
	<stop  offset="1" style="stop-color:#C9491E"/>
</linearGradient>
<path fill="url(#SVGID_2_)" d="M226.1,89.4c0,0-20.4-0.6-38-8.2C172.2,74.3,150,60.3,150,60.3s-22.2,14-38.1,20.9
	c-17.6,7.6-38,8.2-38,8.2s-5.1,69,76.1,150.2C231.2,158.4,226.1,89.4,226.1,89.4z"/>
<linearGradient id="SVGID_3_" gradientUnits="userSpaceOnUse" x1="150" y1="239.658" x2="150" y2="239.658">
	<stop  offset="0" style="stop-color:#EA6428"/>
	<stop  offset="1" style="stop-color:#C9491E"/>
</linearGradient>
<path fill="url(#SVGID_3_)" d="M150,239.7"/>
<linearGradient id="SVGID_4_" gradientUnits="userSpaceOnUse" x1="150" y1="239.658" x2="150" y2="239.658">
	<stop  offset="0" style="stop-color:#EA6428"/>
	<stop  offset="1" style="stop-color:#C9491E"/>
</linearGradient>
<path fill="url(#SVGID_4_)" d="M150,239.7"/>
<g>
	<path fill="#FFFFFF" d="M122.5,105.1c12.7,0,19.6,7.4,19.6,16.6c0,7.6-4.8,12.8-9.8,14.4v0.4c6.7,2,10.9,7.5,10.9,16.4
		c0,10.2-7.2,17.9-20.5,17.9c-12.1,0-21.4-6.3-22.1-18.8h9.6c0.4,6,4.8,10.5,12.3,10.5c7.4,0,11.1-4.6,11.1-10.5
		c0-8.4-5.4-11.3-15.8-11.3h-2.3v-8.2h2.4c9-0.1,14.5-2.7,14.5-9.5c0-5.5-3.6-9.2-10.4-9.2c-7,0-10.2,4.2-10.9,8.7h-9.7
		C102.3,111.4,110.9,105.1,122.5,105.1z"/>
	<path fill="#FFFFFF" d="M176.5,105.5c17.9,0,22.8,14,22.8,32.2c0,18.6-4.9,32.6-22.8,32.6s-22.8-14-22.8-32.6
		C153.8,119.5,158.7,105.5,176.5,105.5z M176.5,114.6c-11.6,0-13,11.2-13,23.1c0,12.5,1.3,23.5,13,23.5s13-10.9,13-23.5
		C189.5,125.8,188.2,114.6,176.5,114.6z"/>
</g>
<linearGradient id="SVGID_5_" gradientUnits="userSpaceOnUse" x1="53.7168" y1="272.0695" x2="59.3765" y2="265.3246">
	<stop  offset="0" style="stop-color:#EA6428"/>
	<stop  offset="1" style="stop-color:#C9491E"/>
</linearGradient>
<polygon fill="url(#SVGID_5_)" points="59,274 49.7,268.7 59,265 "/>
<g>
	
		<linearGradient id="SVGID_6_" gradientUnits="userSpaceOnUse" x1="227.0896" y1="265.0044" x2="259.0808" y2="265.0044" gradientTransform="matrix(-1 0 0 1 495.4987 0)">
		<stop  offset="0" style="stop-color:#EA6428"/>
		<stop  offset="1" style="stop-color:#C9491E"/>
	</linearGradient>
	<polygon fill="url(#SVGID_6_)" points="268.4,256 236.4,256 236.4,274 268.4,274 259.7,265.3 	"/>
	
		<linearGradient id="SVGID_7_" gradientUnits="userSpaceOnUse" x1="253.8026" y1="272.0695" x2="259.4623" y2="265.3246" gradientTransform="matrix(-1 0 0 1 495.4987 0)">
		<stop  offset="0" style="stop-color:#EA6428"/>
		<stop  offset="1" style="stop-color:#C9491E"/>
	</linearGradient>
	<polygon fill="url(#SVGID_7_)" points="236.4,274 245.7,268.7 236.4,265 	"/>
</g>
<rect x="49.7" y="243.3" fill="#122226" width="196.7" height="25.3"/>
<text transform="matrix(1 0 0 1 97.5083 261.9766)" fill="#FFFFFF" font-family="'Poppins-Medium'" font-size="19.3381">Guarantee</text>
<g>
	<circle fill="none" stroke="#FFFFFF" stroke-miterlimit="10" stroke-dasharray="10.8182,10.8182" cx="150" cy="195.7" r="10.3"/>
</g>
<line fill="none" stroke="#FFFFFF" stroke-miterlimit="10" stroke-dasharray="12" x1="83.5" y1="93.9" x2="94" y2="104.3"/>
<line fill="none" stroke="#FFFFFF" stroke-miterlimit="10" stroke-dasharray="12" x1="217.5" y1="94.2" x2="207.1" y2="104.6"/>
</svg>
