<?xml version="1.0" encoding="utf-8"?>
<!-- Generator: Adobe Illustrator 18.0.0, SVG Export Plug-In . SVG Version: 6.00 Build 0)  -->
<!DOCTYPE svg PUBLIC "-//W3C//DTD SVG 1.1//EN" "http://www.w3.org/Graphics/SVG/1.1/DTD/svg11.dtd">
<svg version="1.1" id="Layer_1" xmlns="http://www.w3.org/2000/svg" xmlns:xlink="http://www.w3.org/1999/xlink" x="0px" y="0px"
	 viewBox="483 250 400 400" enable-background="new 483 250 400 400" xml:space="preserve">
<g>
	
		<linearGradient id="SVGID_1_" gradientUnits="userSpaceOnUse" x1="3144.6472" y1="123.7392" x2="3164.4783" y2="123.7392" gradientTransform="matrix(-3 0 0 3 10135.541 0)">
		<stop  offset="0" style="stop-color:#F3CBBB"/>
		<stop  offset="0.223" style="stop-color:#F2C7B6"/>
		<stop  offset="0.4859" style="stop-color:#F0BCA8"/>
		<stop  offset="0.7678" style="stop-color:#EBAA90"/>
		<stop  offset="1" style="stop-color:#E79677"/>
	</linearGradient>
	<polygon opacity="0.2" fill="url(#SVGID_1_)" enable-background="new    " points="701.6,288.1 701.6,420 642.1,454.3 642.1,322.4 
			"/>
	
		<linearGradient id="SVGID_2_" gradientUnits="userSpaceOnUse" x1="3142.3091" y1="125.0752" x2="3162.1404" y2="125.0752" gradientTransform="matrix(-3 0 0 3 10135.541 0)">
		<stop  offset="0" style="stop-color:#F3CBBB"/>
		<stop  offset="0.223" style="stop-color:#F2C7B6"/>
		<stop  offset="0.4859" style="stop-color:#F0BCA8"/>
		<stop  offset="0.7678" style="stop-color:#EBAA90"/>
		<stop  offset="1" style="stop-color:#E79677"/>
	</linearGradient>
	<polygon opacity="0.6" fill="url(#SVGID_2_)" enable-background="new    " points="708.6,292.1 708.6,424 649.1,458.3 649.1,326.4 
			"/>
	<polygon fill="#D85623" points="715.5,296.1 715.5,428 656,462.3 656,330.4 	"/>
	<polygon fill="#D85623" points="721.5,368.5 781,334.2 721.5,299.9 662,334.2 	"/>
	<path fill="#110C0A" d="M719.3,529.5l-65.1-37.6c-0.6-0.4-1.1-1.1-1.1-1.9s0.4-1.5,1.1-1.9l65.1-37.6c1.4-0.8,3.1-0.8,4.5,0
		l65.1,37.6c0.6,0.4,1.1,1.1,1.1,1.9s-0.4,1.5-1.1,1.9l-65.1,37.6l0,0c-0.8,0.4-1.5,0.6-2.3,0.6
		C720.8,530.1,719.9,529.8,719.3,529.5z M788.1,490.8c0.4-0.3,0.4-0.6,0.4-0.8s0-0.5-0.4-0.8L723,451.7c-1-0.6-2.3-0.6-3.3,0
		l-65.1,37.6c-0.4,0.3-0.4,0.6-0.4,0.8s0,0.5,0.4,0.8l65.1,37.6c1,0.6,2.3,0.6,3.3,0L788.1,490.8z"/>
	<polygon fill="#D85623" points="721.5,519.1 771.9,490 721.5,461 671,490 	"/>
	<polygon fill="#FFFFFF" points="721.5,500.4 781,466.1 721.5,431.7 662,466.1 	"/>
	<polygon fill="#110C0A" points="662,334.2 662,466.1 721.5,500.4 721.5,368.5 	"/>
	<polygon fill="#110C0A" points="781,334.2 781,466.1 721.5,500.4 721.5,368.5 	"/>
	<polygon fill="#D85623" points="777,343 777,461.5 725.5,491.1 725.5,372.7 	"/>
	<polygon fill="#FFFFFF" points="670.9,366 670.9,369.5 712.6,393.6 712.6,390.1 	"/>
	<polygon fill="#D85623" points="670.9,380.8 670.9,384.3 712.6,408.4 712.6,404.8 	"/>
	<polygon fill="#FFFFFF" points="670.9,395.6 670.9,399 712.6,423 712.6,419.6 	"/>
	<polygon fill="#D85623" points="670.9,410.2 670.9,413.7 712.6,437.8 712.6,434.3 	"/>
	<polygon fill="#FFFFFF" points="670.9,425 670.9,428.5 712.6,452.6 712.6,449.1 	"/>
	<polygon fill="#D85623" points="670.9,439.8 670.9,443.2 712.6,467.2 712.6,463.8 	"/>
	<polygon fill="#110C0A" points="721.5,356.5 764.7,331.6 721.5,306.7 678.3,331.6 	"/>
	
		<linearGradient id="SVGID_3_" gradientUnits="userSpaceOnUse" x1="3147.0688" y1="118.4247" x2="3143.5698" y2="112.3154" gradientTransform="matrix(-3 0 0 3 10135.541 0)">
		<stop  offset="0" style="stop-color:#F6D6CA"/>
		<stop  offset="0.326" style="stop-color:#F7DACF"/>
		<stop  offset="0.7095" style="stop-color:#F9E5DD"/>
		<stop  offset="1" style="stop-color:#FCF1ED"/>
	</linearGradient>
	<polygon fill="url(#SVGID_3_)" points="678.3,331.6 678.3,334.6 721.5,359.5 721.5,356.5 	"/>
	
		<linearGradient id="SVGID_4_" gradientUnits="userSpaceOnUse" x1="3130.8069" y1="115.5257" x2="3130.8069" y2="106.206" gradientTransform="matrix(-3 0 0 3 10135.541 0)">
		<stop  offset="0" style="stop-color:#E79677"/>
		<stop  offset="0.1991" style="stop-color:#E89A7C"/>
		<stop  offset="0.4336" style="stop-color:#EAA58A"/>
		<stop  offset="0.6862" style="stop-color:#EFB7A2"/>
		<stop  offset="0.9499" style="stop-color:#F5D0C3"/>
		<stop  offset="1" style="stop-color:#F6D6CA"/>
	</linearGradient>
	<polygon fill="url(#SVGID_4_)" points="764.7,331.6 764.7,334.6 721.5,359.5 721.5,356.5 	"/>
	<polygon fill="#DF764D" points="738.3,332 740.2,330.8 740.1,329.9 722.3,319.7 719.8,320.8 720.3,321.6 	"/>
	
		<linearGradient id="SVGID_5_" gradientUnits="userSpaceOnUse" x1="3131.387" y1="108.3126" x2="3138.8403" y2="108.3126" gradientTransform="matrix(-3 0 0 3 10135.541 0)">
		<stop  offset="0" style="stop-color:#E79677"/>
		<stop  offset="0.1991" style="stop-color:#E89A7C"/>
		<stop  offset="0.4336" style="stop-color:#EAA58A"/>
		<stop  offset="0.6862" style="stop-color:#EFB7A2"/>
		<stop  offset="0.9499" style="stop-color:#F5D0C3"/>
		<stop  offset="1" style="stop-color:#F6D6CA"/>
	</linearGradient>
	<polygon fill="url(#SVGID_5_)" points="722.1,320.4 720.3,321.6 719,320.9 722.1,319.1 741.4,330.2 740.2,330.8 	"/>
	<polygon fill="#DF764D" points="732.4,335.3 734.3,334.2 734.2,333.3 716.5,322.9 714,324.2 714.5,324.9 	"/>
	
		<linearGradient id="SVGID_6_" gradientUnits="userSpaceOnUse" x1="3133.3218" y1="109.4399" x2="3140.7749" y2="109.4399" gradientTransform="matrix(-3 0 0 3 10135.541 0)">
		<stop  offset="0" style="stop-color:#E79677"/>
		<stop  offset="0.1991" style="stop-color:#E89A7C"/>
		<stop  offset="0.4336" style="stop-color:#EAA58A"/>
		<stop  offset="0.6862" style="stop-color:#EFB7A2"/>
		<stop  offset="0.9499" style="stop-color:#F5D0C3"/>
		<stop  offset="1" style="stop-color:#F6D6CA"/>
	</linearGradient>
	<polygon fill="url(#SVGID_6_)" points="716.4,323.8 714.5,324.9 713.2,324.2 716.4,322.4 735.5,333.5 734.3,334.2 	"/>
	<polygon fill="#DF764D" points="726.6,338.6 728.5,337.6 728.4,336.6 710.6,326.3 708.2,327.4 708.6,328.3 	"/>
	
		<linearGradient id="SVGID_7_" gradientUnits="userSpaceOnUse" x1="3135.2534" y1="110.5462" x2="3142.7068" y2="110.5462" gradientTransform="matrix(-3 0 0 3 10135.541 0)">
		<stop  offset="0" style="stop-color:#E79677"/>
		<stop  offset="0.1991" style="stop-color:#E89A7C"/>
		<stop  offset="0.4336" style="stop-color:#EAA58A"/>
		<stop  offset="0.6862" style="stop-color:#EFB7A2"/>
		<stop  offset="0.9499" style="stop-color:#F5D0C3"/>
		<stop  offset="1" style="stop-color:#F6D6CA"/>
	</linearGradient>
	<polygon fill="url(#SVGID_7_)" points="710.5,327.2 708.6,328.3 707.4,327.6 710.5,325.7 729.8,336.8 728.5,337.6 	"/>
	<polygon fill="#DF764D" points="720.9,342 722.8,340.8 722.6,340 704.9,329.7 702.4,330.8 702.9,331.6 	"/>
	
		<linearGradient id="SVGID_8_" gradientUnits="userSpaceOnUse" x1="3137.1912" y1="111.6526" x2="3144.6443" y2="111.6526" gradientTransform="matrix(-3 0 0 3 10135.541 0)">
		<stop  offset="0" style="stop-color:#E79677"/>
		<stop  offset="0.1991" style="stop-color:#E89A7C"/>
		<stop  offset="0.4336" style="stop-color:#EAA58A"/>
		<stop  offset="0.6862" style="stop-color:#EFB7A2"/>
		<stop  offset="0.9499" style="stop-color:#F5D0C3"/>
		<stop  offset="1" style="stop-color:#F6D6CA"/>
	</linearGradient>
	<polygon fill="url(#SVGID_8_)" points="704.7,330.4 702.9,331.6 701.6,330.9 704.7,329.1 724,340.2 722.8,340.8 	"/>
	
		<linearGradient id="SVGID_9_" gradientUnits="userSpaceOnUse" x1="3135.3215" y1="124.5243" x2="3137.2302" y2="124.5243" gradientTransform="matrix(-3 0 0 3 10135.541 0)">
		<stop  offset="0" style="stop-color:#F6D6CA"/>
		<stop  offset="0.326" style="stop-color:#F7DACF"/>
		<stop  offset="0.7095" style="stop-color:#F9E5DD"/>
		<stop  offset="1" style="stop-color:#FCF1ED"/>
	</linearGradient>
	<path fill="url(#SVGID_9_)" d="M723.9,374.5c0-1.5,1-3.4,2.4-4.1c0.6-0.4,1.3-0.4,1.6-0.1l0,0l1.6,1h-1c0,0.1,0,0.4,0,0.5
		c0,1.5-1,3.4-2.4,4.1c-0.1,0.1-0.4,0.1-0.5,0.3l0.5,0.9l-1.6-1l0,0C724.1,375.8,723.9,375.3,723.9,374.5z"/>
	
		<linearGradient id="SVGID_10_" gradientUnits="userSpaceOnUse" x1="3135.0894" y1="124.6786" x2="3136.6677" y2="124.6786" gradientTransform="matrix(-3 0 0 3 10135.541 0)">
		<stop  offset="0" style="stop-color:#E79677"/>
		<stop  offset="0.1991" style="stop-color:#E89A7C"/>
		<stop  offset="0.4336" style="stop-color:#EAA58A"/>
		<stop  offset="0.6862" style="stop-color:#EFB7A2"/>
		<stop  offset="0.9499" style="stop-color:#F5D0C3"/>
		<stop  offset="1" style="stop-color:#F6D6CA"/>
	</linearGradient>
	<path fill="url(#SVGID_10_)" d="M725.5,375.4c0,1.5,1,2.1,2.4,1.4c1.3-0.8,2.4-2.6,2.4-4.1c0-1.5-1-2.1-2.4-1.4
		C726.6,372.2,725.5,373.9,725.5,375.4z"/>
	<path fill="#DF764D" d="M726.5,374.9c0,0.9,0.6,1.3,1.4,0.8c0.8-0.4,1.4-1.5,1.4-2.4c0-0.9-0.6-1.3-1.4-0.8
		C727.2,372.9,726.5,374,726.5,374.9z"/>
	
		<linearGradient id="SVGID_11_" gradientUnits="userSpaceOnUse" x1="3118.6868" y1="114.2955" x2="3120.5952" y2="114.2955" gradientTransform="matrix(-3 0 0 3 10135.541 0)">
		<stop  offset="0" style="stop-color:#F6D6CA"/>
		<stop  offset="0.326" style="stop-color:#F7DACF"/>
		<stop  offset="0.7095" style="stop-color:#F9E5DD"/>
		<stop  offset="1" style="stop-color:#FCF1ED"/>
	</linearGradient>
	<path fill="url(#SVGID_11_)" d="M773.7,343.9c0-1.5,1-3.4,2.4-4.1c0.6-0.4,1.3-0.4,1.6-0.1l0,0l1.6,1h-1c0,0.1,0,0.4,0,0.5
		c0,1.5-1,3.4-2.4,4.1c-0.1,0.1-0.4,0.1-0.5,0.3l0.5,0.9l-1.6-1l0,0C774,345.1,773.7,344.6,773.7,343.9z"/>
	
		<linearGradient id="SVGID_12_" gradientUnits="userSpaceOnUse" x1="3118.4543" y1="114.4916" x2="3120.0327" y2="114.4916" gradientTransform="matrix(-3 0 0 3 10135.541 0)">
		<stop  offset="0" style="stop-color:#E79677"/>
		<stop  offset="0.1991" style="stop-color:#E89A7C"/>
		<stop  offset="0.4336" style="stop-color:#EAA58A"/>
		<stop  offset="0.6862" style="stop-color:#EFB7A2"/>
		<stop  offset="0.9499" style="stop-color:#F5D0C3"/>
		<stop  offset="1" style="stop-color:#F6D6CA"/>
	</linearGradient>
	<path fill="url(#SVGID_12_)" d="M775.5,344.9c0,1.5,1,2.1,2.4,1.4c1.3-0.8,2.4-2.6,2.4-4.1s-1-2.1-2.4-1.4S775.5,343.3,775.5,344.9
		z"/>
	<path fill="#DF764D" d="M776.5,344.2c0,0.9,0.6,1.3,1.4,0.8c0.8-0.4,1.4-1.5,1.4-2.4s-0.6-1.3-1.4-0.8
		C777,342.3,776.5,343.3,776.5,344.2z"/>
	
		<linearGradient id="SVGID_13_" gradientUnits="userSpaceOnUse" x1="3135.3215" y1="163.8528" x2="3137.2302" y2="163.8528" gradientTransform="matrix(-3 0 0 3 10135.541 0)">
		<stop  offset="0" style="stop-color:#F6D6CA"/>
		<stop  offset="0.326" style="stop-color:#F7DACF"/>
		<stop  offset="0.7095" style="stop-color:#F9E5DD"/>
		<stop  offset="1" style="stop-color:#FCF1ED"/>
	</linearGradient>
	<path fill="url(#SVGID_13_)" d="M723.9,492.5c0-1.5,1-3.4,2.4-4.1c0.6-0.4,1.3-0.4,1.6-0.1l0,0l1.6,1h-1c0,0.1,0,0.4,0,0.5
		c0,1.5-1,3.4-2.4,4.1c-0.1,0.1-0.4,0.1-0.5,0.3l0.5,0.9l-1.6-1l0,0C724.1,493.9,723.9,493.4,723.9,492.5z"/>
	
		<linearGradient id="SVGID_14_" gradientUnits="userSpaceOnUse" x1="3135.0894" y1="164.0489" x2="3136.6677" y2="164.0489" gradientTransform="matrix(-3 0 0 3 10135.541 0)">
		<stop  offset="0" style="stop-color:#E79677"/>
		<stop  offset="0.1991" style="stop-color:#E89A7C"/>
		<stop  offset="0.4336" style="stop-color:#EAA58A"/>
		<stop  offset="0.6862" style="stop-color:#EFB7A2"/>
		<stop  offset="0.9499" style="stop-color:#F5D0C3"/>
		<stop  offset="1" style="stop-color:#F6D6CA"/>
	</linearGradient>
	<path fill="url(#SVGID_14_)" d="M725.5,493.5c0,1.5,1,2.1,2.4,1.4c1.3-0.8,2.4-2.6,2.4-4.1s-1-2.1-2.4-1.4
		C726.6,490.3,725.5,492,725.5,493.5z"/>
	<path fill="#DF764D" d="M726.5,493c0,0.9,0.6,1.3,1.4,0.8c0.8-0.4,1.4-1.5,1.4-2.4s-0.6-1.3-1.4-0.8
		C727.2,491,726.5,492.1,726.5,493z"/>
	
		<linearGradient id="SVGID_15_" gradientUnits="userSpaceOnUse" x1="3118.6868" y1="153.6658" x2="3120.5952" y2="153.6658" gradientTransform="matrix(-3 0 0 3 10135.541 0)">
		<stop  offset="0" style="stop-color:#F6D6CA"/>
		<stop  offset="0.326" style="stop-color:#F7DACF"/>
		<stop  offset="0.7095" style="stop-color:#F9E5DD"/>
		<stop  offset="1" style="stop-color:#FCF1ED"/>
	</linearGradient>
	<path fill="url(#SVGID_15_)" d="M773.7,462c0-1.5,1-3.4,2.4-4.1c0.6-0.4,1.3-0.4,1.6-0.1l0,0l1.6,1h-1c0,0.1,0,0.4,0,0.5
		c0,1.5-1,3.4-2.4,4.1c-0.1,0.1-0.4,0.1-0.5,0.3l0.5,0.9l-1.6-1l0,0C774,463.2,773.7,462.7,773.7,462z"/>
	
		<linearGradient id="SVGID_16_" gradientUnits="userSpaceOnUse" x1="3118.4543" y1="153.8619" x2="3120.0327" y2="153.8619" gradientTransform="matrix(-3 0 0 3 10135.541 0)">
		<stop  offset="0" style="stop-color:#E79677"/>
		<stop  offset="0.1991" style="stop-color:#E89A7C"/>
		<stop  offset="0.4336" style="stop-color:#EAA58A"/>
		<stop  offset="0.6862" style="stop-color:#EFB7A2"/>
		<stop  offset="0.9499" style="stop-color:#F5D0C3"/>
		<stop  offset="1" style="stop-color:#F6D6CA"/>
	</linearGradient>
	<path fill="url(#SVGID_16_)" d="M775.5,463c0,1.5,1,2.1,2.4,1.4c1.3-0.8,2.4-2.6,2.4-4.1c0-1.5-1-2.1-2.4-1.4
		S775.5,461.3,775.5,463z"/>
	<path fill="#DF764D" d="M776.5,462.3c0,0.9,0.6,1.3,1.4,0.8c0.8-0.4,1.4-1.5,1.4-2.4c0-0.9-0.6-1.3-1.4-0.8
		C777,460.5,776.5,461.5,776.5,462.3z"/>
	<path fill="#110C0A" d="M801.7,552.9L768.9,534c-0.3-0.1-0.4-0.4-0.4-0.5c0-0.3,0.1-0.5,0.4-0.5l32.8-18.9c0.3-0.1,0.5-0.1,0.6,0
		l32.8,18.9c0.3,0.1,0.4,0.4,0.4,0.5c0,0.3-0.1,0.5-0.4,0.5l-32.8,18.9c-0.1,0-0.3,0.1-0.4,0.1S801.8,553,801.7,552.9z M801.9,515.2
		l-31.6,18.2l31.6,18.2l31.6-18.2L801.9,515.2z"/>
	<polygon fill="#D85623" points="772.4,526.6 772.4,520.6 801.9,536.9 831.5,520.6 831.5,526.6 801.9,543.6 	"/>
	
		<linearGradient id="SVGID_17_" gradientUnits="userSpaceOnUse" x1="3101.3523" y1="173.5261" x2="3121.0583" y2="173.5261" gradientTransform="matrix(-3 0 0 3 10135.541 0)">
		<stop  offset="0" style="stop-color:#F6D6CA"/>
		<stop  offset="0.326" style="stop-color:#F7DACF"/>
		<stop  offset="0.7095" style="stop-color:#F9E5DD"/>
		<stop  offset="1" style="stop-color:#FCF1ED"/>
	</linearGradient>
	<polygon fill="url(#SVGID_17_)" points="801.9,537.6 831.5,520.6 801.9,503.5 772.4,520.6 	"/>
	<polygon opacity="0.5" fill="#FFFFFF" enable-background="new    " points="801.9,537.1 831.1,520.3 831.5,520.6 801.9,537.6 
		772.4,520.6 772.9,520.3 	"/>
	<polygon fill="#D85623" points="801.9,531.1 820.2,520.6 801.9,510.1 783.6,520.6 	"/>
	
		<linearGradient id="SVGID_18_" gradientUnits="userSpaceOnUse" x1="3105.1099" y1="173.5261" x2="3117.3008" y2="173.5261" gradientTransform="matrix(-3 0 0 3 10135.541 0)">
		<stop  offset="0" style="stop-color:#F3CBBB"/>
		<stop  offset="0.223" style="stop-color:#F2C7B6"/>
		<stop  offset="0.4859" style="stop-color:#F0BCA8"/>
		<stop  offset="0.7678" style="stop-color:#EBAA90"/>
		<stop  offset="1" style="stop-color:#E79677"/>
	</linearGradient>
	<polygon opacity="0.5" fill="url(#SVGID_18_)" enable-background="new    " points="801.9,531.1 820.2,520.6 801.9,510.1 
		783.6,520.6 	"/>
	
		<linearGradient id="SVGID_19_" gradientUnits="userSpaceOnUse" x1="183.5621" y1="169.3094" x2="189.6576" y2="169.3094" gradientTransform="matrix(3 0 0 3 233 0)">
		<stop  offset="0" style="stop-color:#D85623;stop-opacity:0.4"/>
		<stop  offset="1" style="stop-color:#D85623"/>
	</linearGradient>
	<polygon opacity="0.5" fill="url(#SVGID_19_)" enable-background="new    " points="801.9,495.3 783.6,505.8 783.6,520.6 
		801.9,510.1 	"/>
	
		<linearGradient id="SVGID_20_" gradientUnits="userSpaceOnUse" x1="189.6544" y1="169.3094" x2="195.7499" y2="169.3094" gradientTransform="matrix(3 0 0 3 233 0)">
		<stop  offset="0" style="stop-color:#D85623;stop-opacity:0.4"/>
		<stop  offset="1" style="stop-color:#D85623"/>
	</linearGradient>
	<polygon opacity="0.5" fill="url(#SVGID_20_)" enable-background="new    " points="801.9,510.1 820.2,520.6 820.2,505.8 
		801.9,495.3 	"/>
	
		<linearGradient id="SVGID_21_" gradientUnits="userSpaceOnUse" x1="183.5621" y1="168.5996" x2="195.7531" y2="168.5996" gradientTransform="matrix(3 0 0 3 233 0)">
		<stop  offset="0" style="stop-color:#D85623;stop-opacity:0.4"/>
		<stop  offset="1" style="stop-color:#D85623"/>
	</linearGradient>
	<polygon opacity="0.5" fill="url(#SVGID_21_)" enable-background="new    " points="801.9,516.3 820.2,505.8 801.9,495.3 
		783.6,505.8 	"/>
	
		<linearGradient id="SVGID_22_" gradientUnits="userSpaceOnUse" x1="183.5621" y1="172.8164" x2="189.6576" y2="172.8164" gradientTransform="matrix(3 0 0 3 233 0)">
		<stop  offset="0" style="stop-color:#D85623;stop-opacity:0.4"/>
		<stop  offset="1" style="stop-color:#D85623"/>
	</linearGradient>
	<polygon opacity="0.5" fill="url(#SVGID_22_)" enable-background="new    " points="801.9,516.3 801.9,531.1 783.6,520.6 
		783.6,505.8 	"/>
	
		<linearGradient id="SVGID_23_" gradientUnits="userSpaceOnUse" x1="3105.1001" y1="172.8164" x2="3111.1956" y2="172.8164" gradientTransform="matrix(-3 0 0 3 10135.541 0)">
		<stop  offset="0" style="stop-color:#F3CBBB"/>
		<stop  offset="0.223" style="stop-color:#F2C7B6"/>
		<stop  offset="0.4859" style="stop-color:#F0BCA8"/>
		<stop  offset="0.7678" style="stop-color:#EBAA90"/>
		<stop  offset="1" style="stop-color:#E79677"/>
	</linearGradient>
	<polygon opacity="0.5" fill="url(#SVGID_23_)" enable-background="new    " points="820.2,505.8 820.2,520.6 801.9,531.1 
		801.9,516.3 	"/>
	<polygon fill="#F3CBBB" points="755.5,399.8 762.1,396 762.1,394.5 755.5,398.3 	"/>
	<polygon fill="#F3CBBB" points="752.1,401.7 754.5,400.3 754.5,399 752.1,400.3 	"/>
	<polygon fill="#F3CBBB" points="749.4,403.3 751.1,402.3 751.1,400.8 749.4,401.8 	"/>
	<polygon fill="#F3CBBB" points="758.5,401.3 762.1,399.3 762.1,397.8 758.5,400 	"/>
	<polygon fill="#F3CBBB" points="753.1,404.5 757.5,402 757.5,400.5 753.1,403.1 	"/>
	<polygon fill="#F3CBBB" points="750.4,406.1 752.1,405.1 752.1,403.7 750.4,404.6 	"/>
	<polygon fill="#F3CBBB" points="747.9,407.5 749.6,406.6 749.6,405.1 747.9,406.1 	"/>
	<polygon fill="#F3CBBB" points="759.5,404.1 762.1,402.6 762.1,401.2 759.5,402.7 	"/>
	<polygon fill="#F3CBBB" points="757.6,405.2 758.5,404.7 758.5,403.2 757.6,403.8 	"/>
	<polygon fill="#F3CBBB" points="755,406.7 756.6,405.8 756.6,404.3 755,405.3 	"/>
	<polygon fill="#F3CBBB" points="752.5,411.5 762.1,406 762.1,404.5 752.5,410.1 	"/>
	<polygon fill="#F3CBBB" points="749.1,413.5 751.4,412.1 751.4,410.7 749.1,412.1 	"/>
	<polygon fill="#F3CBBB" points="759.5,410.9 762.1,409.4 762.1,407.9 759.5,409.4 	"/>
	<polygon fill="#F3CBBB" points="753.3,414.4 758.5,411.4 758.5,410 753.3,412.9 	"/>
	<polygon fill="#F3CBBB" points="750.7,415.9 752.3,415 752.3,413.5 750.7,414.4 	"/>
	<polygon fill="#F3CBBB" points="756.7,415.7 762.1,412.6 762.1,411.1 756.7,414.2 	"/>
	<polygon fill="#F3CBBB" points="751.8,418.5 755.7,416.4 755.7,414.9 751.8,417.1 	"/>
	<polygon fill="#F3CBBB" points="748.2,420.6 750.8,419.1 750.8,417.6 748.2,419.1 	"/>
	<polygon fill="#F3CBBB" points="760.3,417 762.1,416 762.1,414.5 760.3,415.5 	"/>
	<polygon fill="#F3CBBB" points="757,419 759.3,417.6 759.3,416.1 757,417.5 	"/>
	<polygon fill="#F3CBBB" points="752.1,421.8 755.8,419.5 755.8,418.1 752.1,420.4 	"/>
	<polygon fill="#F3CBBB" points="756.6,422.5 762.1,419.3 762.1,417.9 756.6,421 	"/>
	<polygon fill="#F3CBBB" points="750.3,426.1 755.6,423.1 755.6,421.6 750.3,424.6 	"/>
	<polygon fill="#F3CBBB" points="747.7,427.6 749.3,426.6 749.3,425.3 747.7,426.1 	"/>
	<polygon fill="#F3CBBB" points="745.2,429 746.8,428.1 746.8,426.6 745.2,427.6 	"/>
	<polygon fill="#F3CBBB" points="758.8,424.5 762.1,422.6 762.1,421.1 758.8,423.1 	"/>
	<polygon fill="#F3CBBB" points="744.9,405.8 740.3,408.6 740.3,407.1 744.9,404.5 	"/>
	<polygon fill="#F3CBBB" points="743.9,409.9 740.3,411.9 740.3,410.5 743.9,408.4 	"/>
	<polygon fill="#F3CBBB" points="742.9,413.7 740.3,415.2 740.3,413.7 742.9,412.2 	"/>
	<polygon fill="#F3CBBB" points="744.1,416.4 740.3,418.6 740.3,417.1 744.1,414.9 	"/>
	<polygon fill="#F3CBBB" points="742.9,420.4 740.3,421.9 740.3,420.4 742.9,418.9 	"/>
	<polygon fill="#F3CBBB" points="743.7,423.3 740.3,425.3 740.3,423.8 743.7,421.9 	"/>
	<polygon fill="#F3CBBB" points="742.1,427.5 740.3,428.5 740.3,427.1 742.1,426 	"/>
	<polygon fill="#F3CBBB" points="743.8,429.9 740.3,431.9 740.3,430.4 743.8,428.4 	"/>
	<polygon fill="#F3CBBB" points="743.7,433.3 740.3,435.3 740.3,433.8 743.7,431.9 	"/>
	<polygon fill="#F3CBBB" points="756.3,425.9 757.8,425.1 757.8,423.6 756.3,424.5 	"/>
	<polygon fill="#F3CBBB" points="752.2,428.4 755.3,426.5 755.3,425.1 752.2,426.9 	"/>
	<polygon fill="#F3CBBB" points="749.6,439.5 755,436.5 755,435 749.6,438.2 	"/>
	<polygon fill="#F3CBBB" points="745.8,441.7 747.9,440.5 747.9,439 745.8,440.3 	"/>
	
		<linearGradient id="SVGID_24_" gradientUnits="userSpaceOnUse" x1="3181.8464" y1="146.5347" x2="3201.6777" y2="146.5347" gradientTransform="matrix(-3 0 0 3 10135.541 0)">
		<stop  offset="0" style="stop-color:#F3CBBB"/>
		<stop  offset="0.223" style="stop-color:#F2C7B6"/>
		<stop  offset="0.4859" style="stop-color:#F0BCA8"/>
		<stop  offset="0.7678" style="stop-color:#EBAA90"/>
		<stop  offset="1" style="stop-color:#E79677"/>
	</linearGradient>
	<polygon opacity="0.2" fill="url(#SVGID_24_)" enable-background="new    " points="590,356.5 590,488.4 530.5,522.7 530.5,390.8 	
		"/>
	
		<linearGradient id="SVGID_25_" gradientUnits="userSpaceOnUse" x1="3179.55" y1="147.8707" x2="3199.3813" y2="147.8707" gradientTransform="matrix(-3 0 0 3 10135.541 0)">
		<stop  offset="0" style="stop-color:#F3CBBB"/>
		<stop  offset="0.223" style="stop-color:#F2C7B6"/>
		<stop  offset="0.4859" style="stop-color:#F0BCA8"/>
		<stop  offset="0.7678" style="stop-color:#EBAA90"/>
		<stop  offset="1" style="stop-color:#E79677"/>
	</linearGradient>
	<polygon opacity="0.6" fill="url(#SVGID_25_)" enable-background="new    " points="596.9,360.5 596.9,492.4 537.4,526.7 
		537.4,394.8 	"/>
	<polygon fill="#D85623" points="603.9,364.5 603.9,496.4 544.4,530.7 544.4,398.8 	"/>
	<polygon fill="#D85623" points="609.9,436.9 669.4,402.6 609.9,368.1 550.4,402.6 	"/>
	<path fill="#110C0A" d="M607.5,597.9l-65.1-37.6c-0.6-0.4-1.1-1.1-1.1-1.9c0-0.8,0.4-1.5,1.1-1.9l65.1-37.6c1.4-0.8,3.1-0.8,4.5,0
		l65.1,37.6c0.6,0.4,1.1,1.1,1.1,1.9c0,0.8-0.4,1.5-1.1,1.9L612,597.9l0,0c-0.8,0.4-1.5,0.6-2.3,0.6
		C609,598.5,608.3,598.2,607.5,597.9z M676.5,559.2c0.4-0.3,0.4-0.6,0.4-0.8s0-0.5-0.4-0.8l-65.1-37.6c-1-0.6-2.3-0.6-3.3,0
		L543,557.7c-0.4,0.3-0.4,0.6-0.4,0.8s0,0.5,0.4,0.8l65.1,37.6c1,0.6,2.3,0.6,3.3,0L676.5,559.2z"/>
	<polygon fill="#D85623" points="609.9,587.5 660.3,558.4 609.9,529.2 559.4,558.4 	"/>
	<polygon fill="#FFFFFF" points="609.9,568.8 669.4,534.5 609.9,500 550.4,534.5 	"/>
	<polygon fill="#110C0A" points="550.4,402.6 550.4,534.5 609.9,568.8 609.9,436.9 	"/>
	<polygon fill="#110C0A" points="669.4,402.6 669.4,534.5 609.9,568.8 609.9,436.9 	"/>
	<polygon fill="#D85623" points="665.4,411.4 665.4,529.8 613.9,559.5 613.9,441 	"/>
	<polygon fill="#FFFFFF" points="559.3,434.4 559.3,437.9 600.9,462 600.9,458.5 	"/>
	<polygon fill="#D85623" points="559.3,449.2 559.3,452.7 600.9,476.7 600.9,473.2 	"/>
	<polygon fill="#FFFFFF" points="559.3,463.8 559.3,467.3 600.9,491.4 600.9,487.9 	"/>
	<polygon fill="#D85623" points="559.3,478.6 559.3,482.1 600.9,506.2 600.9,502.7 	"/>
	<polygon fill="#FFFFFF" points="559.3,493.4 559.3,496.9 600.9,521 600.9,517.4 	"/>
	<polygon fill="#D85623" points="559.3,508.1 559.3,511.6 600.9,535.6 600.9,532.1 	"/>
	<polygon fill="#110C0A" points="609.9,424.9 653,400 609.9,375 566.7,400 	"/>
	
		<linearGradient id="SVGID_26_" gradientUnits="userSpaceOnUse" x1="3184.2676" y1="141.2192" x2="3180.7686" y2="135.1099" gradientTransform="matrix(-3 0 0 3 10135.541 0)">
		<stop  offset="0" style="stop-color:#F6D6CA"/>
		<stop  offset="0.326" style="stop-color:#F7DACF"/>
		<stop  offset="0.7095" style="stop-color:#F9E5DD"/>
		<stop  offset="1" style="stop-color:#FCF1ED"/>
	</linearGradient>
	<polygon fill="url(#SVGID_26_)" points="566.7,400 566.7,403 609.9,427.9 609.9,424.9 	"/>
	
		<linearGradient id="SVGID_27_" gradientUnits="userSpaceOnUse" x1="3168.0271" y1="138.3147" x2="3168.0271" y2="128.995" gradientTransform="matrix(-3 0 0 3 10135.541 0)">
		<stop  offset="0" style="stop-color:#E79677"/>
		<stop  offset="0.1991" style="stop-color:#E89A7C"/>
		<stop  offset="0.4336" style="stop-color:#EAA58A"/>
		<stop  offset="0.6862" style="stop-color:#EFB7A2"/>
		<stop  offset="0.9499" style="stop-color:#F5D0C3"/>
		<stop  offset="1" style="stop-color:#F6D6CA"/>
	</linearGradient>
	<polygon fill="url(#SVGID_27_)" points="653,400 653,403 609.9,427.9 609.9,424.9 	"/>
	<polygon fill="#DF764D" points="626.6,400.3 628.6,399.2 628.3,398.3 610.7,388.1 608.2,389.2 608.7,389.9 	"/>
	
		<linearGradient id="SVGID_28_" gradientUnits="userSpaceOnUse" x1="3168.5955" y1="131.1081" x2="3176.0486" y2="131.1081" gradientTransform="matrix(-3 0 0 3 10135.541 0)">
		<stop  offset="0" style="stop-color:#E79677"/>
		<stop  offset="0.1991" style="stop-color:#E89A7C"/>
		<stop  offset="0.4336" style="stop-color:#EAA58A"/>
		<stop  offset="0.6862" style="stop-color:#EFB7A2"/>
		<stop  offset="0.9499" style="stop-color:#F5D0C3"/>
		<stop  offset="1" style="stop-color:#F6D6CA"/>
	</linearGradient>
	<polygon fill="url(#SVGID_28_)" points="610.5,388.8 608.7,389.9 607.4,389.2 610.5,387.4 629.7,398.5 628.6,399.2 	"/>
	<polygon fill="#DF764D" points="620.8,403.7 622.7,402.6 622.6,401.7 604.8,391.3 602.4,392.6 602.8,393.3 	"/>
	
		<linearGradient id="SVGID_29_" gradientUnits="userSpaceOnUse" x1="3170.5322" y1="132.2354" x2="3177.9854" y2="132.2354" gradientTransform="matrix(-3 0 0 3 10135.541 0)">
		<stop  offset="0" style="stop-color:#E79677"/>
		<stop  offset="0.1991" style="stop-color:#E89A7C"/>
		<stop  offset="0.4336" style="stop-color:#EAA58A"/>
		<stop  offset="0.6862" style="stop-color:#EFB7A2"/>
		<stop  offset="0.9499" style="stop-color:#F5D0C3"/>
		<stop  offset="1" style="stop-color:#F6D6CA"/>
	</linearGradient>
	<polygon fill="url(#SVGID_29_)" points="604.8,392.2 602.8,393.3 601.7,392.6 604.8,390.8 623.9,401.8 622.7,402.6 	"/>
	<polygon fill="#DF764D" points="615.1,407 616.9,405.8 616.8,405 599,394.7 596.5,395.8 597,396.6 	"/>
	
		<linearGradient id="SVGID_30_" gradientUnits="userSpaceOnUse" x1="3172.4648" y1="133.3209" x2="3179.918" y2="133.3209" gradientTransform="matrix(-3 0 0 3 10135.541 0)">
		<stop  offset="0" style="stop-color:#E79677"/>
		<stop  offset="0.1991" style="stop-color:#E89A7C"/>
		<stop  offset="0.4336" style="stop-color:#EAA58A"/>
		<stop  offset="0.6862" style="stop-color:#EFB7A2"/>
		<stop  offset="0.9499" style="stop-color:#F5D0C3"/>
		<stop  offset="1" style="stop-color:#F6D6CA"/>
	</linearGradient>
	<polygon fill="url(#SVGID_30_)" points="598.9,395.6 597,396.6 595.8,396 598.9,394.1 618.2,405.2 616.9,405.8 	"/>
	<polygon fill="#DF764D" points="609.2,410.4 611.2,409.2 610.9,408.4 593.3,398.1 590.8,399.2 591.3,400 	"/>
	
		<linearGradient id="SVGID_31_" gradientUnits="userSpaceOnUse" x1="3174.3994" y1="134.4481" x2="3181.8528" y2="134.4481" gradientTransform="matrix(-3 0 0 3 10135.541 0)">
		<stop  offset="0" style="stop-color:#E79677"/>
		<stop  offset="0.1991" style="stop-color:#E89A7C"/>
		<stop  offset="0.4336" style="stop-color:#EAA58A"/>
		<stop  offset="0.6862" style="stop-color:#EFB7A2"/>
		<stop  offset="0.9499" style="stop-color:#F5D0C3"/>
		<stop  offset="1" style="stop-color:#F6D6CA"/>
	</linearGradient>
	<polygon fill="url(#SVGID_31_)" points="593.1,398.8 591.3,400 590,399.2 593.1,397.5 612.3,408.5 611.2,409.2 	"/>
	
		<linearGradient id="SVGID_32_" gradientUnits="userSpaceOnUse" x1="3172.53" y1="147.278" x2="3174.4385" y2="147.278" gradientTransform="matrix(-3 0 0 3 10135.541 0)">
		<stop  offset="0" style="stop-color:#F6D6CA"/>
		<stop  offset="0.326" style="stop-color:#F7DACF"/>
		<stop  offset="0.7095" style="stop-color:#F9E5DD"/>
		<stop  offset="1" style="stop-color:#FCF1ED"/>
	</linearGradient>
	<path fill="url(#SVGID_32_)" d="M612.2,442.8c0-1.5,1-3.4,2.4-4.1c0.6-0.4,1.3-0.4,1.6-0.1l0,0l1.6,1h-1c0,0.1,0,0.4,0,0.5
		c0,1.5-1,3.4-2.4,4.1c-0.1,0.1-0.4,0.1-0.5,0.3l0.5,0.9l-1.6-1l0,0C612.5,444.2,612.2,443.5,612.2,442.8z"/>
	
		<linearGradient id="SVGID_33_" gradientUnits="userSpaceOnUse" x1="3172.2976" y1="147.4741" x2="3173.876" y2="147.4741" gradientTransform="matrix(-3 0 0 3 10135.541 0)">
		<stop  offset="0" style="stop-color:#E79677"/>
		<stop  offset="0.1991" style="stop-color:#E89A7C"/>
		<stop  offset="0.4336" style="stop-color:#EAA58A"/>
		<stop  offset="0.6862" style="stop-color:#EFB7A2"/>
		<stop  offset="0.9499" style="stop-color:#F5D0C3"/>
		<stop  offset="1" style="stop-color:#F6D6CA"/>
	</linearGradient>
	<path fill="url(#SVGID_33_)" d="M613.9,443.8c0,1.5,1,2.1,2.4,1.4c1.3-0.8,2.4-2.6,2.4-4.1s-1-2.1-2.4-1.4
		C614.9,440.5,613.9,442.3,613.9,443.8z"/>
	<path fill="#DF764D" d="M614.9,443.3c0,0.9,0.6,1.3,1.4,0.8c0.8-0.4,1.4-1.5,1.4-2.4c0-0.9-0.6-1.3-1.4-0.8
		C615.6,441.3,614.9,442.4,614.9,443.3z"/>
	
		<linearGradient id="SVGID_34_" gradientUnits="userSpaceOnUse" x1="3172.53" y1="186.6483" x2="3174.4385" y2="186.6483" gradientTransform="matrix(-3 0 0 3 10135.541 0)">
		<stop  offset="0" style="stop-color:#F6D6CA"/>
		<stop  offset="0.326" style="stop-color:#F7DACF"/>
		<stop  offset="0.7095" style="stop-color:#F9E5DD"/>
		<stop  offset="1" style="stop-color:#FCF1ED"/>
	</linearGradient>
	<path fill="url(#SVGID_34_)" d="M612.2,560.9c0-1.5,1-3.4,2.4-4.1c0.6-0.4,1.3-0.4,1.6-0.1l0,0l1.6,1h-1c0,0.1,0,0.4,0,0.5
		c0,1.5-1,3.4-2.4,4.1c-0.1,0.1-0.4,0.1-0.5,0.3l0.5,0.9l-1.6-1l0,0C612.5,562.3,612.2,561.7,612.2,560.9z"/>
	
		<linearGradient id="SVGID_35_" gradientUnits="userSpaceOnUse" x1="3172.2976" y1="186.8444" x2="3173.876" y2="186.8444" gradientTransform="matrix(-3 0 0 3 10135.541 0)">
		<stop  offset="0" style="stop-color:#E79677"/>
		<stop  offset="0.1991" style="stop-color:#E89A7C"/>
		<stop  offset="0.4336" style="stop-color:#EAA58A"/>
		<stop  offset="0.6862" style="stop-color:#EFB7A2"/>
		<stop  offset="0.9499" style="stop-color:#F5D0C3"/>
		<stop  offset="1" style="stop-color:#F6D6CA"/>
	</linearGradient>
	<path fill="url(#SVGID_35_)" d="M613.9,561.9c0,1.5,1,2.1,2.4,1.4c1.3-0.8,2.4-2.6,2.4-4.1c0-1.5-1-2.1-2.4-1.4
		C614.9,558.5,613.9,560.4,613.9,561.9z"/>
	<path fill="#DF764D" d="M614.9,561.4c0,0.9,0.6,1.3,1.4,0.8c0.8-0.4,1.4-1.5,1.4-2.4c0-0.9-0.6-1.3-1.4-0.8
		C615.6,559.4,614.9,560.5,614.9,561.4z"/>
	<polygon fill="#F3CBBB" points="643.9,468.2 650.5,464.3 650.5,462.8 643.9,466.7 	"/>
	<polygon fill="#F3CBBB" points="640.5,470.1 642.9,468.7 642.9,467.3 640.5,468.7 	"/>
	<polygon fill="#F3CBBB" points="637.8,471.6 639.5,470.7 639.5,469.2 637.8,470.2 	"/>
	<polygon fill="#F3CBBB" points="646.9,469.7 650.5,467.7 650.5,466.2 646.9,468.3 	"/>
	<polygon fill="#F3CBBB" points="641.5,472.9 645.9,470.4 645.9,468.9 641.5,471.5 	"/>
	<polygon fill="#F3CBBB" points="638.7,474.5 640.4,473.5 640.4,472 638.7,473 	"/>
	<polygon fill="#F3CBBB" points="636.2,475.9 637.8,475 637.8,473.5 636.2,474.4 	"/>
	<polygon fill="#F3CBBB" points="647.9,472.5 650.5,471 650.5,469.5 647.9,471.1 	"/>
	<polygon fill="#F3CBBB" points="646,473.6 646.9,473.1 646.9,471.6 646,472.1 	"/>
	<polygon fill="#F3CBBB" points="643.4,475.1 645,474.2 645,472.7 643.4,473.7 	"/>
	<polygon fill="#F3CBBB" points="640.9,479.9 650.5,474.4 650.5,472.9 640.9,478.5 	"/>
	<polygon fill="#F3CBBB" points="637.5,481.9 639.9,480.5 639.9,479 637.5,480.4 	"/>
	<polygon fill="#F3CBBB" points="647.9,479.1 650.5,477.6 650.5,476.2 647.9,477.7 	"/>
	<polygon fill="#F3CBBB" points="641.7,482.8 646.9,479.7 646.9,478.2 641.7,481.2 	"/>
	<polygon fill="#F3CBBB" points="639.1,484.3 640.7,483.3 640.7,481.9 639.1,482.8 	"/>
	<polygon fill="#F3CBBB" points="645.1,484.1 650.5,481 650.5,479.5 645.1,482.6 	"/>
	<polygon fill="#F3CBBB" points="640.2,486.9 644.1,484.6 644.1,483.3 640.2,485.5 	"/>
	<polygon fill="#F3CBBB" points="636.6,489 639.2,487.5 639.2,486 636.6,487.5 	"/>
	<polygon fill="#F3CBBB" points="648.7,485.4 650.5,484.4 650.5,482.9 648.7,483.9 	"/>
	<polygon fill="#F3CBBB" points="645.2,487.4 647.6,486 647.6,484.5 645.2,485.9 	"/>
	<polygon fill="#F3CBBB" points="640.4,490.1 644.2,487.9 644.2,486.5 640.4,488.6 	"/>
	<polygon fill="#F3CBBB" points="645,490.9 650.5,487.6 650.5,486.3 645,489.4 	"/>
	<polygon fill="#F3CBBB" points="638.7,494.4 644,491.4 644,490 638.7,493 	"/>
	<polygon fill="#F3CBBB" points="636.1,496 637.7,495 637.7,493.5 636.1,494.5 	"/>
	<polygon fill="#F3CBBB" points="633.6,497.4 635.2,496.5 635.2,495 633.6,496 	"/>
	<polygon fill="#F3CBBB" points="647.1,492.9 650.5,491 650.5,489.5 647.1,491.4 	"/>
	<polygon fill="#F3CBBB" points="633.3,474.2 628.7,477 628.7,475.5 633.3,472.9 	"/>
	<polygon fill="#F3CBBB" points="632.3,478.1 628.7,480.2 628.7,478.7 632.3,476.7 	"/>
	<polygon fill="#F3CBBB" points="631.3,482.1 628.7,483.6 628.7,482.1 631.3,480.6 	"/>
	<polygon fill="#F3CBBB" points="632.5,484.8 628.7,486.9 628.7,485.5 632.5,483.3 	"/>
	<polygon fill="#F3CBBB" points="631.3,488.8 628.7,490.3 628.7,488.8 631.3,487.3 	"/>
	<polygon fill="#F3CBBB" points="632,491.6 628.7,493.6 628.7,492.1 632,490.3 	"/>
	<polygon fill="#F3CBBB" points="630.5,495.9 628.7,496.9 628.7,495.5 630.5,494.4 	"/>
	<polygon fill="#F3CBBB" points="632.2,498.3 628.7,500.3 628.7,498.8 632.2,496.8 	"/>
	<polygon fill="#F3CBBB" points="632,501.7 628.7,503.5 628.7,502.2 632,500.2 	"/>
	<polygon fill="#F3CBBB" points="644.7,494.3 646.1,493.5 646.1,492 644.7,492.9 	"/>
	<polygon fill="#F3CBBB" points="640.6,496.8 643.7,494.9 643.7,493.4 640.6,495.3 	"/>
	<polygon fill="#F3CBBB" points="638,507.9 643.2,504.8 643.2,503.4 638,506.6 	"/>
	<polygon fill="#F3CBBB" points="634.2,510.1 636.3,508.8 636.3,507.4 634.2,508.6 	"/>
</g>
</svg>
