<?xml version="1.0" encoding="utf-8"?>
<!-- Generator: Adobe Illustrator 18.0.0, SVG Export Plug-In . SVG Version: 6.00 Build 0)  -->
<!DOCTYPE svg PUBLIC "-//W3C//DTD SVG 1.1//EN" "http://www.w3.org/Graphics/SVG/1.1/DTD/svg11.dtd">
<svg version="1.1" id="Layer_1" xmlns="http://www.w3.org/2000/svg" xmlns:xlink="http://www.w3.org/1999/xlink" x="0px" y="0px"
	 viewBox="0 0 300 300" enable-background="new 0 0 300 300" xml:space="preserve">
<linearGradient id="SVGID_1_" gradientUnits="userSpaceOnUse" x1="3126.0493" y1="83.9654" x2="3173.5579" y2="83.9654" gradientTransform="matrix(-1 0 0 1 3300.8469 0)">
	<stop  offset="0" style="stop-color:#F3CBBB"/>
	<stop  offset="0.223" style="stop-color:#F2C7B6"/>
	<stop  offset="0.4859" style="stop-color:#F0BCA8"/>
	<stop  offset="0.7678" style="stop-color:#EBAA90"/>
	<stop  offset="1" style="stop-color:#E79677"/>
</linearGradient>
<polygon opacity="0.2" fill="url(#SVGID_1_)" points="174.8,17.6 174.8,122.9 127.3,150.3 127.3,45 "/>
<linearGradient id="SVGID_2_" gradientUnits="userSpaceOnUse" x1="3120.4863" y1="87.1545" x2="3167.9949" y2="87.1545" gradientTransform="matrix(-1 0 0 1 3300.8469 0)">
	<stop  offset="0" style="stop-color:#F3CBBB"/>
	<stop  offset="0.223" style="stop-color:#F2C7B6"/>
	<stop  offset="0.4859" style="stop-color:#F0BCA8"/>
	<stop  offset="0.7678" style="stop-color:#EBAA90"/>
	<stop  offset="1" style="stop-color:#E79677"/>
</linearGradient>
<polygon opacity="0.6" fill="url(#SVGID_2_)" points="180.4,20.8 180.4,126.1 132.9,153.5 132.9,48.2 "/>
<polygon fill="#D85623" points="185.9,24 185.9,129.3 138.4,156.7 138.4,51.4 "/>
<polygon fill="#D85623" points="190.7,81.8 238.2,54.4 190.7,27 143.2,54.4 "/>
<path fill="#110C0A" d="M188.9,210.3l-52-30c-0.5-0.3-0.9-0.9-0.9-1.5c0-0.6,0.3-1.2,0.9-1.5l52-30c1.1-0.6,2.5-0.6,3.6,0l52,30
	c0.5,0.3,0.9,0.9,0.9,1.5c0,0.6-0.3,1.2-0.9,1.5l-52,30l0,0c-0.6,0.3-1.2,0.5-1.8,0.5C190.1,210.8,189.4,210.6,188.9,210.3z
	 M243.9,179.4c0.3-0.2,0.3-0.5,0.3-0.6c0-0.1,0-0.4-0.3-0.6l-52-30c-0.8-0.5-1.8-0.5-2.6,0l-52,30c-0.3,0.2-0.3,0.5-0.3,0.6
	c0,0.1,0,0.4,0.3,0.6l52,30c0.8,0.5,1.8,0.5,2.6,0L243.9,179.4z"/>
<polygon fill="#D85623" points="190.7,202 230.9,178.8 190.7,155.6 150.4,178.8 "/>
<path fill="#110C0A" d="M196.4,275.8l-35.7-20.6c-0.4-0.2-0.6-0.6-0.6-1c0-0.4,0.2-0.8,0.6-1l35.7-20.6c0.8-0.4,1.7-0.4,2.5,0
	l35.7,20.6c0.4,0.2,0.6,0.6,0.6,1c0,0.4-0.2,0.8-0.6,1l-35.7,20.6l0,0c-0.4,0.2-0.8,0.3-1.2,0.3C197.3,276.1,196.8,276,196.4,275.8z
	 M234.3,254.5c0.2-0.1,0.2-0.3,0.2-0.4c0-0.1,0-0.3-0.2-0.4l-35.7-20.6c-0.5-0.3-1.2-0.3-1.8,0l-35.7,20.6c-0.2,0.1-0.2,0.3-0.2,0.4
	c0,0.1,0,0.3,0.2,0.4l35.7,20.6c0.5,0.3,1.2,0.3,1.8,0L234.3,254.5z"/>
<polygon fill="#D85623" points="197.7,270.1 225.4,254.1 197.7,238.1 170,254.1 "/>
<polygon fill="#FFFFFF" points="190.7,187.1 238.2,159.7 190.7,132.2 143.2,159.7 "/>
<polygon fill="#110C0A" points="143.2,54.4 143.2,159.7 190.7,187.1 190.7,81.8 "/>
<polygon fill="#110C0A" points="238.2,54.4 238.2,159.7 190.7,187.1 190.7,81.8 "/>
<polygon fill="#D85623" points="235,61.4 235,156 193.9,179.7 193.9,85.1 "/>
<polygon fill="#FFFFFF" points="150.3,79.8 150.3,82.6 183.6,101.8 183.6,99 "/>
<polygon fill="#D85623" points="150.3,91.6 150.3,94.4 183.6,113.6 183.6,110.8 "/>
<polygon fill="#FFFFFF" points="150.3,103.4 150.3,106.1 183.6,125.3 183.6,122.6 "/>
<polygon fill="#D85623" points="150.3,115.1 150.3,117.9 183.6,137.1 183.6,134.3 "/>
<polygon fill="#FFFFFF" points="150.3,126.9 150.3,129.7 183.6,148.9 183.6,146.1 "/>
<polygon fill="#D85623" points="150.3,138.7 150.3,141.4 183.6,160.6 183.6,157.9 "/>
<polygon fill="#110C0A" points="190.7,72.2 225.2,52.3 190.7,32.4 156.2,52.3 "/>
<linearGradient id="SVGID_3_" gradientUnits="userSpaceOnUse" x1="3131.8484" y1="71.22" x2="3123.4675" y2="56.5869" gradientTransform="matrix(-1 0 0 1 3300.8469 0)">
	<stop  offset="0" style="stop-color:#F6D6CA"/>
	<stop  offset="0.326" style="stop-color:#F7DACF"/>
	<stop  offset="0.7095" style="stop-color:#F9E5DD"/>
	<stop  offset="1" style="stop-color:#FCF1ED"/>
</linearGradient>
<polygon fill="url(#SVGID_3_)" points="156.2,52.3 156.2,54.7 190.7,74.6 190.7,72.2 "/>
<linearGradient id="SVGID_4_" gradientUnits="userSpaceOnUse" x1="3092.9282" y1="64.2768" x2="3092.9282" y2="41.9542" gradientTransform="matrix(-1 0 0 1 3300.8469 0)">
	<stop  offset="0" style="stop-color:#E79677"/>
	<stop  offset="0.1991" style="stop-color:#E89A7C"/>
	<stop  offset="0.4336" style="stop-color:#EAA58A"/>
	<stop  offset="0.6862" style="stop-color:#EFB7A2"/>
	<stop  offset="0.9499" style="stop-color:#F5D0C3"/>
	<stop  offset="1" style="stop-color:#F6D6CA"/>
</linearGradient>
<polygon fill="url(#SVGID_4_)" points="225.2,52.3 225.2,54.7 190.7,74.6 190.7,72.2 "/>
<polygon fill="#DF764D" points="204.1,52.6 205.6,51.7 205.5,51 191.3,42.8 189.3,43.7 189.7,44.3 "/>
<linearGradient id="SVGID_5_" gradientUnits="userSpaceOnUse" x1="3094.2864" y1="47.0152" x2="3112.1384" y2="47.0152" gradientTransform="matrix(-1 0 0 1 3300.8469 0)">
	<stop  offset="0" style="stop-color:#E79677"/>
	<stop  offset="0.1991" style="stop-color:#E89A7C"/>
	<stop  offset="0.4336" style="stop-color:#EAA58A"/>
	<stop  offset="0.6862" style="stop-color:#EFB7A2"/>
	<stop  offset="0.9499" style="stop-color:#F5D0C3"/>
	<stop  offset="1" style="stop-color:#F6D6CA"/>
</linearGradient>
<polygon fill="url(#SVGID_5_)" points="191.2,43.4 189.7,44.3 188.7,43.8 191.2,42.3 206.6,51.2 205.6,51.7 "/>
<polygon fill="#DF764D" points="199.4,55.3 200.9,54.4 200.8,53.7 186.7,45.4 184.7,46.4 185.1,47 "/>
<linearGradient id="SVGID_6_" gradientUnits="userSpaceOnUse" x1="3098.9202" y1="49.6823" x2="3116.7725" y2="49.6823" gradientTransform="matrix(-1 0 0 1 3300.8469 0)">
	<stop  offset="0" style="stop-color:#E79677"/>
	<stop  offset="0.1991" style="stop-color:#E89A7C"/>
	<stop  offset="0.4336" style="stop-color:#EAA58A"/>
	<stop  offset="0.6862" style="stop-color:#EFB7A2"/>
	<stop  offset="0.9499" style="stop-color:#F5D0C3"/>
	<stop  offset="1" style="stop-color:#F6D6CA"/>
</linearGradient>
<polygon fill="url(#SVGID_6_)" points="186.6,46.1 185.1,47 184.1,46.4 186.6,45 201.9,53.8 200.9,54.4 "/>
<polygon fill="#DF764D" points="194.8,57.9 196.3,57.1 196.2,56.3 182,48.1 180.1,49 180.4,49.7 "/>
<linearGradient id="SVGID_7_" gradientUnits="userSpaceOnUse" x1="3103.5542" y1="52.3494" x2="3121.4065" y2="52.3494" gradientTransform="matrix(-1 0 0 1 3300.8469 0)">
	<stop  offset="0" style="stop-color:#E79677"/>
	<stop  offset="0.1991" style="stop-color:#E89A7C"/>
	<stop  offset="0.4336" style="stop-color:#EAA58A"/>
	<stop  offset="0.6862" style="stop-color:#EFB7A2"/>
	<stop  offset="0.9499" style="stop-color:#F5D0C3"/>
	<stop  offset="1" style="stop-color:#F6D6CA"/>
</linearGradient>
<polygon fill="url(#SVGID_7_)" points="181.9,48.8 180.4,49.7 179.4,49.1 181.9,47.6 197.3,56.5 196.3,57.1 "/>
<polygon fill="#DF764D" points="190.2,60.6 191.7,59.7 191.6,59 177.4,50.8 175.4,51.7 175.8,52.3 "/>
<linearGradient id="SVGID_8_" gradientUnits="userSpaceOnUse" x1="3108.1882" y1="55.0165" x2="3126.0403" y2="55.0165" gradientTransform="matrix(-1 0 0 1 3300.8469 0)">
	<stop  offset="0" style="stop-color:#E79677"/>
	<stop  offset="0.1991" style="stop-color:#E89A7C"/>
	<stop  offset="0.4336" style="stop-color:#EAA58A"/>
	<stop  offset="0.6862" style="stop-color:#EFB7A2"/>
	<stop  offset="0.9499" style="stop-color:#F5D0C3"/>
	<stop  offset="1" style="stop-color:#F6D6CA"/>
</linearGradient>
<polygon fill="url(#SVGID_8_)" points="177.3,51.4 175.8,52.3 174.8,51.8 177.3,50.3 192.7,59.2 191.7,59.7 "/>
<linearGradient id="SVGID_9_" gradientUnits="userSpaceOnUse" x1="3103.7104" y1="85.7862" x2="3108.2817" y2="85.7862" gradientTransform="matrix(-1 0 0 1 3300.8469 0)">
	<stop  offset="0" style="stop-color:#F6D6CA"/>
	<stop  offset="0.326" style="stop-color:#F7DACF"/>
	<stop  offset="0.7095" style="stop-color:#F9E5DD"/>
	<stop  offset="1" style="stop-color:#FCF1ED"/>
</linearGradient>
<path fill="url(#SVGID_9_)" d="M192.6,86.6c0-1.2,0.8-2.7,1.9-3.3c0.5-0.3,1-0.3,1.3-0.1l0,0l1.3,0.8l-0.8,0c0,0.1,0,0.3,0,0.4
	c0,1.2-0.8,2.7-1.9,3.3c-0.1,0.1-0.3,0.1-0.4,0.2l0.4,0.7l-1.3-0.8l0,0C192.8,87.6,192.6,87.2,192.6,86.6z"/>
<linearGradient id="SVGID_10_" gradientUnits="userSpaceOnUse" x1="3103.1541" y1="86.2519" x2="3106.9346" y2="86.2519" gradientTransform="matrix(-1 0 0 1 3300.8469 0)">
	<stop  offset="0" style="stop-color:#E79677"/>
	<stop  offset="0.1991" style="stop-color:#E89A7C"/>
	<stop  offset="0.4336" style="stop-color:#EAA58A"/>
	<stop  offset="0.6862" style="stop-color:#EFB7A2"/>
	<stop  offset="0.9499" style="stop-color:#F5D0C3"/>
	<stop  offset="1" style="stop-color:#F6D6CA"/>
</linearGradient>
<path fill="url(#SVGID_10_)" d="M193.9,87.3c0,1.2,0.8,1.7,1.9,1.1c1-0.6,1.9-2.1,1.9-3.3c0-1.2-0.8-1.7-1.9-1.1
	C194.8,84.7,193.9,86.1,193.9,87.3z"/>
<path fill="#DF764D" d="M194.7,86.9c0,0.7,0.5,1,1.1,0.6c0.6-0.3,1.1-1.2,1.1-1.9c0-0.7-0.5-1-1.1-0.6
	C195.2,85.3,194.7,86.2,194.7,86.9z"/>
<linearGradient id="SVGID_11_" gradientUnits="userSpaceOnUse" x1="3063.8662" y1="61.3049" x2="3068.4375" y2="61.3049" gradientTransform="matrix(-1 0 0 1 3300.8469 0)">
	<stop  offset="0" style="stop-color:#F6D6CA"/>
	<stop  offset="0.326" style="stop-color:#F7DACF"/>
	<stop  offset="0.7095" style="stop-color:#F9E5DD"/>
	<stop  offset="1" style="stop-color:#FCF1ED"/>
</linearGradient>
<path fill="url(#SVGID_11_)" d="M232.4,62.1c0-1.2,0.8-2.7,1.9-3.3c0.5-0.3,1-0.3,1.3-0.1l0,0l1.3,0.8l-0.8,0c0,0.1,0,0.3,0,0.4
	c0,1.2-0.8,2.7-1.9,3.3c-0.1,0.1-0.3,0.1-0.4,0.2l0.4,0.7l-1.3-0.8l0,0C232.6,63.1,232.4,62.7,232.4,62.1z"/>
<linearGradient id="SVGID_12_" gradientUnits="userSpaceOnUse" x1="3063.3098" y1="61.7706" x2="3067.0903" y2="61.7706" gradientTransform="matrix(-1 0 0 1 3300.8469 0)">
	<stop  offset="0" style="stop-color:#E79677"/>
	<stop  offset="0.1991" style="stop-color:#E89A7C"/>
	<stop  offset="0.4336" style="stop-color:#EAA58A"/>
	<stop  offset="0.6862" style="stop-color:#EFB7A2"/>
	<stop  offset="0.9499" style="stop-color:#F5D0C3"/>
	<stop  offset="1" style="stop-color:#F6D6CA"/>
</linearGradient>
<path fill="url(#SVGID_12_)" d="M233.8,62.9c0,1.2,0.8,1.7,1.9,1.1c1-0.6,1.9-2.1,1.9-3.3s-0.8-1.7-1.9-1.1S233.8,61.7,233.8,62.9z"
	/>
<path fill="#DF764D" d="M234.6,62.4c0,0.7,0.5,1,1.1,0.6c0.6-0.3,1.1-1.2,1.1-1.9c0-0.7-0.5-1-1.1-0.6
	C235,60.9,234.6,61.7,234.6,62.4z"/>
<linearGradient id="SVGID_13_" gradientUnits="userSpaceOnUse" x1="3103.7104" y1="180.0781" x2="3108.2817" y2="180.0781" gradientTransform="matrix(-1 0 0 1 3300.8469 0)">
	<stop  offset="0" style="stop-color:#F6D6CA"/>
	<stop  offset="0.326" style="stop-color:#F7DACF"/>
	<stop  offset="0.7095" style="stop-color:#F9E5DD"/>
	<stop  offset="1" style="stop-color:#FCF1ED"/>
</linearGradient>
<path fill="url(#SVGID_13_)" d="M192.6,180.8c0-1.2,0.8-2.7,1.9-3.3c0.5-0.3,1-0.3,1.3-0.1l0,0l1.3,0.8l-0.8,0c0,0.1,0,0.3,0,0.4
	c0,1.2-0.8,2.7-1.9,3.3c-0.1,0.1-0.3,0.1-0.4,0.2l0.4,0.7l-1.3-0.8l0,0C192.8,181.9,192.6,181.5,192.6,180.8z"/>
<linearGradient id="SVGID_14_" gradientUnits="userSpaceOnUse" x1="3103.1541" y1="180.5439" x2="3106.9346" y2="180.5439" gradientTransform="matrix(-1 0 0 1 3300.8469 0)">
	<stop  offset="0" style="stop-color:#E79677"/>
	<stop  offset="0.1991" style="stop-color:#E89A7C"/>
	<stop  offset="0.4336" style="stop-color:#EAA58A"/>
	<stop  offset="0.6862" style="stop-color:#EFB7A2"/>
	<stop  offset="0.9499" style="stop-color:#F5D0C3"/>
	<stop  offset="1" style="stop-color:#F6D6CA"/>
</linearGradient>
<path fill="url(#SVGID_14_)" d="M193.9,181.6c0,1.2,0.8,1.7,1.9,1.1c1-0.6,1.9-2.1,1.9-3.3c0-1.2-0.8-1.7-1.9-1.1
	C194.8,179,193.9,180.4,193.9,181.6z"/>
<path fill="#DF764D" d="M194.7,181.2c0,0.7,0.5,1,1.1,0.6c0.6-0.3,1.1-1.2,1.1-1.9c0-0.7-0.5-1-1.1-0.6
	C195.2,179.6,194.7,180.5,194.7,181.2z"/>
<linearGradient id="SVGID_15_" gradientUnits="userSpaceOnUse" x1="3063.8662" y1="155.5968" x2="3068.4375" y2="155.5968" gradientTransform="matrix(-1 0 0 1 3300.8469 0)">
	<stop  offset="0" style="stop-color:#F6D6CA"/>
	<stop  offset="0.326" style="stop-color:#F7DACF"/>
	<stop  offset="0.7095" style="stop-color:#F9E5DD"/>
	<stop  offset="1" style="stop-color:#FCF1ED"/>
</linearGradient>
<path fill="url(#SVGID_15_)" d="M232.4,156.4c0-1.2,0.8-2.7,1.9-3.3c0.5-0.3,1-0.3,1.3-0.1l0,0l1.3,0.8l-0.8,0c0,0.1,0,0.3,0,0.4
	c0,1.2-0.8,2.7-1.9,3.3c-0.1,0.1-0.3,0.1-0.4,0.2l0.4,0.7l-1.3-0.8l0,0C232.6,157.4,232.4,157,232.4,156.4z"/>
<linearGradient id="SVGID_16_" gradientUnits="userSpaceOnUse" x1="3063.3098" y1="156.0626" x2="3067.0903" y2="156.0626" gradientTransform="matrix(-1 0 0 1 3300.8469 0)">
	<stop  offset="0" style="stop-color:#E79677"/>
	<stop  offset="0.1991" style="stop-color:#E89A7C"/>
	<stop  offset="0.4336" style="stop-color:#EAA58A"/>
	<stop  offset="0.6862" style="stop-color:#EFB7A2"/>
	<stop  offset="0.9499" style="stop-color:#F5D0C3"/>
	<stop  offset="1" style="stop-color:#F6D6CA"/>
</linearGradient>
<path fill="url(#SVGID_16_)" d="M233.8,157.2c0,1.2,0.8,1.7,1.9,1.1c1-0.6,1.9-2.1,1.9-3.3c0-1.2-0.8-1.7-1.9-1.1
	C234.6,154.5,233.8,155.9,233.8,157.2z"/>
<path fill="#DF764D" d="M234.6,156.7c0,0.7,0.5,1,1.1,0.6c0.6-0.3,1.1-1.2,1.1-1.9s-0.5-1-1.1-0.6C235,155.2,234.6,156,234.6,156.7z
	"/>
<path fill="#110C0A" d="M254.7,229l-26.2-15.1c-0.2-0.1-0.3-0.3-0.3-0.4c0-0.2,0.1-0.4,0.3-0.4l26.2-15.1c0.2-0.1,0.4-0.1,0.5,0
	l26.2,15.1c0.2,0.1,0.3,0.3,0.3,0.4c0,0.2-0.1,0.4-0.3,0.4L255.2,229c-0.1,0-0.2,0.1-0.3,0.1C254.8,229.1,254.8,229.1,254.7,229z
	 M254.9,198.9l-25.2,14.5l25.2,14.5l25.2-14.5L254.9,198.9z"/>
<polygon fill="#D85623" points="231.3,208 231.3,203.2 254.9,216.2 278.5,203.2 278.5,208 254.9,221.6 "/>
<linearGradient id="SVGID_17_" gradientUnits="userSpaceOnUse" x1="3022.3118" y1="203.196" x2="3069.5205" y2="203.196" gradientTransform="matrix(-1 0 0 1 3300.8469 0)">
	<stop  offset="0" style="stop-color:#F6D6CA"/>
	<stop  offset="0.326" style="stop-color:#F7DACF"/>
	<stop  offset="0.7095" style="stop-color:#F9E5DD"/>
	<stop  offset="1" style="stop-color:#FCF1ED"/>
</linearGradient>
<polygon fill="url(#SVGID_17_)" points="254.9,216.8 278.5,203.2 254.9,189.6 231.3,203.2 "/>
<polygon opacity="0.5" fill="#FFFFFF" points="254.9,216.4 278.2,203 278.5,203.2 254.9,216.8 231.3,203.2 231.7,203 "/>
<polygon fill="#D85623" points="254.9,211.6 269.5,203.2 254.9,194.8 240.3,203.2 "/>
<linearGradient id="SVGID_18_" gradientUnits="userSpaceOnUse" x1="3031.3237" y1="203.1961" x2="3060.5088" y2="203.1961" gradientTransform="matrix(-1 0 0 1 3300.8469 0)">
	<stop  offset="0" style="stop-color:#F3CBBB"/>
	<stop  offset="0.223" style="stop-color:#F2C7B6"/>
	<stop  offset="0.4859" style="stop-color:#F0BCA8"/>
	<stop  offset="0.7678" style="stop-color:#EBAA90"/>
	<stop  offset="1" style="stop-color:#E79677"/>
</linearGradient>
<polygon opacity="0.5" fill="url(#SVGID_18_)" points="254.9,211.6 269.5,203.2 254.9,194.8 240.3,203.2 "/>
<linearGradient id="SVGID_19_" gradientUnits="userSpaceOnUse" x1="240.3382" y1="193.0904" x2="254.9311" y2="193.0904">
	<stop  offset="0" style="stop-color:#D85623;stop-opacity:0.4"/>
	<stop  offset="1" style="stop-color:#D85623"/>
</linearGradient>
<polygon opacity="0.5" fill="url(#SVGID_19_)" points="254.9,183 240.3,191.4 240.3,203.2 254.9,194.8 "/>
<linearGradient id="SVGID_20_" gradientUnits="userSpaceOnUse" x1="254.9306" y1="193.0903" x2="269.5234" y2="193.0903">
	<stop  offset="0" style="stop-color:#D85623;stop-opacity:0.4"/>
	<stop  offset="1" style="stop-color:#D85623"/>
</linearGradient>
<polygon opacity="0.5" fill="url(#SVGID_20_)" points="254.9,194.8 269.5,203.2 269.5,191.4 254.9,183 "/>
<linearGradient id="SVGID_21_" gradientUnits="userSpaceOnUse" x1="240.3382" y1="191.4097" x2="269.5234" y2="191.4097">
	<stop  offset="0" style="stop-color:#D85623;stop-opacity:0.4"/>
	<stop  offset="1" style="stop-color:#D85623"/>
</linearGradient>
<polygon opacity="0.5" fill="url(#SVGID_21_)" points="254.9,199.8 269.5,191.4 254.9,183 240.3,191.4 "/>
<linearGradient id="SVGID_22_" gradientUnits="userSpaceOnUse" x1="240.3382" y1="201.5154" x2="254.9306" y2="201.5154">
	<stop  offset="0" style="stop-color:#D85623;stop-opacity:0.4"/>
	<stop  offset="1" style="stop-color:#D85623"/>
</linearGradient>
<polygon opacity="0.5" fill="url(#SVGID_22_)" points="254.9,199.8 254.9,211.6 240.3,203.2 240.3,191.4 "/>
<linearGradient id="SVGID_23_" gradientUnits="userSpaceOnUse" x1="3031.3237" y1="201.5153" x2="3045.9165" y2="201.5153" gradientTransform="matrix(-1 0 0 1 3300.8469 0)">
	<stop  offset="0" style="stop-color:#F3CBBB"/>
	<stop  offset="0.223" style="stop-color:#F2C7B6"/>
	<stop  offset="0.4859" style="stop-color:#F0BCA8"/>
	<stop  offset="0.7678" style="stop-color:#EBAA90"/>
	<stop  offset="1" style="stop-color:#E79677"/>
</linearGradient>
<polygon opacity="0.5" fill="url(#SVGID_23_)" points="269.5,191.4 269.5,203.2 254.9,211.6 254.9,199.8 "/>
<polygon fill="#F3CBBB" points="217.8,106.8 223.1,103.7 223.1,102.5 217.8,105.6 "/>
<polygon fill="#F3CBBB" points="215.1,108.3 217,107.2 217,106.1 215.1,107.2 "/>
<polygon fill="#F3CBBB" points="213,109.6 214.3,108.8 214.3,107.6 213,108.4 "/>
<polygon fill="#F3CBBB" points="220.2,108 223.1,106.4 223.1,105.2 220.2,106.9 "/>
<polygon fill="#F3CBBB" points="215.9,110.5 219.4,108.5 219.4,107.3 215.9,109.4 "/>
<polygon fill="#F3CBBB" points="213.8,111.8 215.1,111 215.1,109.9 213.8,110.6 "/>
<polygon fill="#F3CBBB" points="211.8,112.9 213.1,112.2 213.1,111 211.8,111.8 "/>
<polygon fill="#F3CBBB" points="221,110.2 223.1,109 223.1,107.9 221,109.1 "/>
<polygon fill="#F3CBBB" points="219.5,111.1 220.2,110.7 220.2,109.5 219.5,110 "/>
<polygon fill="#F3CBBB" points="217.4,112.3 218.7,111.6 218.7,110.4 217.4,111.2 "/>
<polygon fill="#F3CBBB" points="215.4,116.1 223.1,111.7 223.1,110.5 215.4,115 "/>
<polygon fill="#F3CBBB" points="212.7,117.7 214.6,116.6 214.6,115.5 212.7,116.6 "/>
<polygon fill="#F3CBBB" points="221,115.6 223.1,114.4 223.1,113.2 221,114.4 "/>
<polygon fill="#F3CBBB" points="216.1,118.4 220.2,116 220.2,114.9 216.1,117.2 "/>
<polygon fill="#F3CBBB" points="214,119.6 215.3,118.9 215.3,117.7 214,118.4 "/>
<polygon fill="#F3CBBB" points="218.8,119.5 223.1,117 223.1,115.8 218.8,118.3 "/>
<polygon fill="#F3CBBB" points="214.9,121.7 218,120 218,118.8 214.9,120.6 "/>
<polygon fill="#F3CBBB" points="212,123.4 214.1,122.2 214.1,121 212,122.2 "/>
<polygon fill="#F3CBBB" points="221.7,120.5 223.1,119.7 223.1,118.5 221.7,119.3 "/>
<polygon fill="#F3CBBB" points="219,122.1 220.9,121 220.9,119.8 219,120.9 "/>
<polygon fill="#F3CBBB" points="215.1,124.3 218.1,122.5 218.1,121.4 215.1,123.2 "/>
<polygon fill="#F3CBBB" points="218.7,124.9 223.1,122.3 223.1,121.2 218.7,123.7 "/>
<polygon fill="#F3CBBB" points="213.7,127.8 217.9,125.4 217.9,124.2 213.7,126.6 "/>
<polygon fill="#F3CBBB" points="211.6,129 212.9,128.2 212.9,127.1 211.6,127.8 "/>
<polygon fill="#F3CBBB" points="209.6,130.1 210.9,129.4 210.9,128.2 209.6,129 "/>
<polygon fill="#F3CBBB" points="220.5,126.5 223.1,125 223.1,123.8 220.5,125.4 "/>
<polygon fill="#F3CBBB" points="209.4,111.6 205.7,113.8 205.7,112.6 209.4,110.5 "/>
<polygon fill="#F3CBBB" points="208.6,114.8 205.7,116.4 205.7,115.3 208.6,113.6 "/>
<polygon fill="#F3CBBB" points="207.8,117.9 205.7,119.1 205.7,117.9 207.8,116.7 "/>
<polygon fill="#F3CBBB" points="208.7,120 205.7,121.8 205.7,120.6 208.7,118.8 "/>
<polygon fill="#F3CBBB" points="207.8,123.2 205.7,124.4 205.7,123.2 207.8,122 "/>
<polygon fill="#F3CBBB" points="208.4,125.5 205.7,127.1 205.7,125.9 208.4,124.4 "/>
<polygon fill="#F3CBBB" points="207.1,128.9 205.7,129.7 205.7,128.6 207.1,127.7 "/>
<polygon fill="#F3CBBB" points="208.5,130.8 205.7,132.4 205.7,131.2 208.5,129.6 "/>
<polygon fill="#F3CBBB" points="208.4,133.5 205.7,135.1 205.7,133.9 208.4,132.4 "/>
<polygon fill="#F3CBBB" points="218.5,127.6 219.7,127 219.7,125.8 218.5,126.5 "/>
<polygon fill="#F3CBBB" points="215.2,129.6 217.7,128.1 217.7,127 215.2,128.4 "/>
<polygon fill="#F3CBBB" points="213.1,138.5 217.4,136.1 217.4,134.9 213.1,137.4 "/>
<polygon fill="#F3CBBB" points="210.1,140.2 211.8,139.3 211.8,138.1 210.1,139.1 "/>
<text transform="matrix(1 0 0 1 164.0399 88.8932)" font-family="'MyriadPro-Regular'" font-size="8.938">d85623</text>
<linearGradient id="SVGID_24_" gradientUnits="userSpaceOnUse" x1="3215.1711" y1="138.5499" x2="3262.6797" y2="138.5499" gradientTransform="matrix(-1 0 0 1 3300.8469 0)">
	<stop  offset="0" style="stop-color:#F3CBBB"/>
	<stop  offset="0.223" style="stop-color:#F2C7B6"/>
	<stop  offset="0.4859" style="stop-color:#F0BCA8"/>
	<stop  offset="0.7678" style="stop-color:#EBAA90"/>
	<stop  offset="1" style="stop-color:#E79677"/>
</linearGradient>
<polygon opacity="0.2" fill="url(#SVGID_24_)" points="85.7,72.2 85.7,177.5 38.2,204.9 38.2,99.6 "/>
<linearGradient id="SVGID_25_" gradientUnits="userSpaceOnUse" x1="3209.6082" y1="141.739" x2="3257.1169" y2="141.739" gradientTransform="matrix(-1 0 0 1 3300.8469 0)">
	<stop  offset="0" style="stop-color:#F3CBBB"/>
	<stop  offset="0.223" style="stop-color:#F2C7B6"/>
	<stop  offset="0.4859" style="stop-color:#F0BCA8"/>
	<stop  offset="0.7678" style="stop-color:#EBAA90"/>
	<stop  offset="1" style="stop-color:#E79677"/>
</linearGradient>
<polygon opacity="0.6" fill="url(#SVGID_25_)" points="91.2,75.4 91.2,180.7 43.7,208.1 43.7,102.8 "/>
<polygon fill="#D85623" points="96.8,78.6 96.8,183.9 49.3,211.3 49.3,106 "/>
<polygon fill="#D85623" points="101.6,136.4 149.1,109 101.6,81.5 54.1,109 "/>
<path fill="#110C0A" d="M99.7,264.9l-52-30c-0.5-0.3-0.9-0.9-0.9-1.5c0-0.6,0.3-1.2,0.9-1.5l52-30c1.1-0.6,2.5-0.6,3.6,0l52,30
	c0.5,0.3,0.9,0.9,0.9,1.5c0,0.6-0.3,1.2-0.9,1.5l-52,30l0,0c-0.6,0.3-1.2,0.5-1.8,0.5C100.9,265.4,100.3,265.2,99.7,264.9z
	 M154.8,234c0.3-0.2,0.3-0.5,0.3-0.6c0-0.1,0-0.4-0.3-0.6l-52-30c-0.8-0.5-1.8-0.5-2.6,0l-52,30c-0.3,0.2-0.3,0.5-0.3,0.6
	c0,0.1,0,0.4,0.3,0.6l52,30c0.8,0.5,1.8,0.5,2.6,0L154.8,234z"/>
<polygon fill="#D85623" points="101.6,256.6 141.8,233.4 101.6,210.1 61.3,233.4 "/>
<polygon fill="#FFFFFF" points="101.6,241.7 149.1,214.3 101.6,186.8 54.1,214.3 "/>
<polygon fill="#110C0A" points="54.1,109 54.1,214.3 101.6,241.7 101.6,136.4 "/>
<polygon fill="#110C0A" points="149.1,109 149.1,214.3 101.6,241.7 101.6,136.4 "/>
<polygon fill="#D85623" points="145.9,116 145.9,210.6 104.8,234.3 104.8,139.7 "/>
<polygon fill="#FFFFFF" points="61.2,134.4 61.2,137.2 94.4,156.4 94.4,153.6 "/>
<polygon fill="#D85623" points="61.2,146.2 61.2,149 94.4,168.2 94.4,165.4 "/>
<polygon fill="#FFFFFF" points="61.2,157.9 61.2,160.7 94.4,179.9 94.4,177.1 "/>
<polygon fill="#D85623" points="61.2,169.7 61.2,172.5 94.4,191.7 94.4,188.9 "/>
<polygon fill="#FFFFFF" points="61.2,181.5 61.2,184.3 94.4,203.5 94.4,200.7 "/>
<polygon fill="#D85623" points="61.2,193.2 61.2,196 94.4,215.2 94.4,212.4 "/>
<polygon fill="#110C0A" points="101.6,126.8 136,106.9 101.6,87 67.1,106.9 "/>
<linearGradient id="SVGID_26_" gradientUnits="userSpaceOnUse" x1="3220.9702" y1="125.8045" x2="3212.5894" y2="111.1714" gradientTransform="matrix(-1 0 0 1 3300.8469 0)">
	<stop  offset="0" style="stop-color:#F6D6CA"/>
	<stop  offset="0.326" style="stop-color:#F7DACF"/>
	<stop  offset="0.7095" style="stop-color:#F9E5DD"/>
	<stop  offset="1" style="stop-color:#FCF1ED"/>
</linearGradient>
<polygon fill="url(#SVGID_26_)" points="67.1,106.9 67.1,109.3 101.6,129.2 101.6,126.8 "/>
<linearGradient id="SVGID_27_" gradientUnits="userSpaceOnUse" x1="3182.05" y1="118.8613" x2="3182.05" y2="96.5387" gradientTransform="matrix(-1 0 0 1 3300.8469 0)">
	<stop  offset="0" style="stop-color:#E79677"/>
	<stop  offset="0.1991" style="stop-color:#E89A7C"/>
	<stop  offset="0.4336" style="stop-color:#EAA58A"/>
	<stop  offset="0.6862" style="stop-color:#EFB7A2"/>
	<stop  offset="0.9499" style="stop-color:#F5D0C3"/>
	<stop  offset="1" style="stop-color:#F6D6CA"/>
</linearGradient>
<polygon fill="url(#SVGID_27_)" points="136,106.9 136,109.3 101.6,129.2 101.6,126.8 "/>
<polygon fill="#DF764D" points="114.9,107.2 116.5,106.3 116.3,105.6 102.2,97.4 100.2,98.3 100.6,98.9 "/>
<linearGradient id="SVGID_28_" gradientUnits="userSpaceOnUse" x1="3183.4082" y1="101.5997" x2="3201.2603" y2="101.5997" gradientTransform="matrix(-1 0 0 1 3300.8469 0)">
	<stop  offset="0" style="stop-color:#E79677"/>
	<stop  offset="0.1991" style="stop-color:#E89A7C"/>
	<stop  offset="0.4336" style="stop-color:#EAA58A"/>
	<stop  offset="0.6862" style="stop-color:#EFB7A2"/>
	<stop  offset="0.9499" style="stop-color:#F5D0C3"/>
	<stop  offset="1" style="stop-color:#F6D6CA"/>
</linearGradient>
<polygon fill="url(#SVGID_28_)" points="102.1,98 100.6,98.9 99.6,98.3 102.1,96.9 117.4,105.7 116.5,106.3 "/>
<polygon fill="#DF764D" points="110.3,109.9 111.8,109 111.7,108.3 97.5,100 95.6,101 95.9,101.6 "/>
<linearGradient id="SVGID_29_" gradientUnits="userSpaceOnUse" x1="3188.042" y1="104.2668" x2="3205.8943" y2="104.2668" gradientTransform="matrix(-1 0 0 1 3300.8469 0)">
	<stop  offset="0" style="stop-color:#E79677"/>
	<stop  offset="0.1991" style="stop-color:#E89A7C"/>
	<stop  offset="0.4336" style="stop-color:#EAA58A"/>
	<stop  offset="0.6862" style="stop-color:#EFB7A2"/>
	<stop  offset="0.9499" style="stop-color:#F5D0C3"/>
	<stop  offset="1" style="stop-color:#F6D6CA"/>
</linearGradient>
<polygon fill="url(#SVGID_29_)" points="97.5,100.7 95.9,101.6 95,101 97.5,99.6 112.8,108.4 111.8,109 "/>
<polygon fill="#DF764D" points="105.7,112.5 107.2,111.6 107.1,110.9 92.9,102.7 90.9,103.6 91.3,104.2 "/>
<linearGradient id="SVGID_30_" gradientUnits="userSpaceOnUse" x1="3192.676" y1="106.9339" x2="3210.5283" y2="106.9339" gradientTransform="matrix(-1 0 0 1 3300.8469 0)">
	<stop  offset="0" style="stop-color:#E79677"/>
	<stop  offset="0.1991" style="stop-color:#E89A7C"/>
	<stop  offset="0.4336" style="stop-color:#EAA58A"/>
	<stop  offset="0.6862" style="stop-color:#EFB7A2"/>
	<stop  offset="0.9499" style="stop-color:#F5D0C3"/>
	<stop  offset="1" style="stop-color:#F6D6CA"/>
</linearGradient>
<polygon fill="url(#SVGID_30_)" points="92.8,103.4 91.3,104.2 90.3,103.7 92.8,102.2 108.2,111.1 107.2,111.6 "/>
<polygon fill="#DF764D" points="101,115.2 102.6,114.3 102.4,113.6 88.3,105.4 86.3,106.3 86.7,106.9 "/>
<linearGradient id="SVGID_31_" gradientUnits="userSpaceOnUse" x1="3197.3101" y1="109.601" x2="3215.1624" y2="109.601" gradientTransform="matrix(-1 0 0 1 3300.8469 0)">
	<stop  offset="0" style="stop-color:#E79677"/>
	<stop  offset="0.1991" style="stop-color:#E89A7C"/>
	<stop  offset="0.4336" style="stop-color:#EAA58A"/>
	<stop  offset="0.6862" style="stop-color:#EFB7A2"/>
	<stop  offset="0.9499" style="stop-color:#F5D0C3"/>
	<stop  offset="1" style="stop-color:#F6D6CA"/>
</linearGradient>
<polygon fill="url(#SVGID_31_)" points="88.2,106 86.7,106.9 85.7,106.3 88.2,104.9 103.5,113.7 102.6,114.3 "/>
<linearGradient id="SVGID_32_" gradientUnits="userSpaceOnUse" x1="3192.8323" y1="140.3707" x2="3197.4036" y2="140.3707" gradientTransform="matrix(-1 0 0 1 3300.8469 0)">
	<stop  offset="0" style="stop-color:#F6D6CA"/>
	<stop  offset="0.326" style="stop-color:#F7DACF"/>
	<stop  offset="0.7095" style="stop-color:#F9E5DD"/>
	<stop  offset="1" style="stop-color:#FCF1ED"/>
</linearGradient>
<path fill="url(#SVGID_32_)" d="M103.4,141.1c0-1.2,0.8-2.7,1.9-3.3c0.5-0.3,1-0.3,1.3-0.1l0,0l1.3,0.8l-0.8,0c0,0.1,0,0.3,0,0.4
	c0,1.2-0.8,2.7-1.9,3.3c-0.1,0.1-0.3,0.1-0.4,0.2l0.4,0.7l-1.3-0.8l0,0C103.7,142.2,103.4,141.7,103.4,141.1z"/>
<linearGradient id="SVGID_33_" gradientUnits="userSpaceOnUse" x1="3192.2759" y1="140.8365" x2="3196.0564" y2="140.8365" gradientTransform="matrix(-1 0 0 1 3300.8469 0)">
	<stop  offset="0" style="stop-color:#E79677"/>
	<stop  offset="0.1991" style="stop-color:#E89A7C"/>
	<stop  offset="0.4336" style="stop-color:#EAA58A"/>
	<stop  offset="0.6862" style="stop-color:#EFB7A2"/>
	<stop  offset="0.9499" style="stop-color:#F5D0C3"/>
	<stop  offset="1" style="stop-color:#F6D6CA"/>
</linearGradient>
<path fill="url(#SVGID_33_)" d="M104.8,141.9c0,1.2,0.8,1.7,1.9,1.1c1-0.6,1.9-2.1,1.9-3.3c0-1.2-0.8-1.7-1.9-1.1
	C105.6,139.3,104.8,140.7,104.8,141.9z"/>
<path fill="#DF764D" d="M105.6,141.5c0,0.7,0.5,1,1.1,0.6c0.6-0.3,1.1-1.2,1.1-1.9s-0.5-1-1.1-0.6
	C106.1,139.9,105.6,140.8,105.6,141.5z"/>
<linearGradient id="SVGID_34_" gradientUnits="userSpaceOnUse" x1="3192.8323" y1="234.6627" x2="3197.4036" y2="234.6627" gradientTransform="matrix(-1 0 0 1 3300.8469 0)">
	<stop  offset="0" style="stop-color:#F6D6CA"/>
	<stop  offset="0.326" style="stop-color:#F7DACF"/>
	<stop  offset="0.7095" style="stop-color:#F9E5DD"/>
	<stop  offset="1" style="stop-color:#FCF1ED"/>
</linearGradient>
<path fill="url(#SVGID_34_)" d="M103.4,235.4c0-1.2,0.8-2.7,1.9-3.3c0.5-0.3,1-0.3,1.3-0.1l0,0l1.3,0.8l-0.8,0c0,0.1,0,0.3,0,0.4
	c0,1.2-0.8,2.7-1.9,3.3c-0.1,0.1-0.3,0.1-0.4,0.2l0.4,0.7l-1.3-0.8l0,0C103.7,236.5,103.4,236,103.4,235.4z"/>
<linearGradient id="SVGID_35_" gradientUnits="userSpaceOnUse" x1="3192.2759" y1="235.1284" x2="3196.0564" y2="235.1284" gradientTransform="matrix(-1 0 0 1 3300.8469 0)">
	<stop  offset="0" style="stop-color:#E79677"/>
	<stop  offset="0.1991" style="stop-color:#E89A7C"/>
	<stop  offset="0.4336" style="stop-color:#EAA58A"/>
	<stop  offset="0.6862" style="stop-color:#EFB7A2"/>
	<stop  offset="0.9499" style="stop-color:#F5D0C3"/>
	<stop  offset="1" style="stop-color:#F6D6CA"/>
</linearGradient>
<path fill="url(#SVGID_35_)" d="M104.8,236.2c0,1.2,0.8,1.7,1.9,1.1c1-0.6,1.9-2.1,1.9-3.3c0-1.2-0.8-1.7-1.9-1.1
	C105.6,233.5,104.8,235,104.8,236.2z"/>
<path fill="#DF764D" d="M105.6,235.8c0,0.7,0.5,1,1.1,0.6c0.6-0.3,1.1-1.2,1.1-1.9s-0.5-1-1.1-0.6
	C106.1,234.2,105.6,235.1,105.6,235.8z"/>
<polygon fill="#F3CBBB" points="128.7,161.4 134,158.3 134,157.1 128.7,160.2 "/>
<polygon fill="#F3CBBB" points="126,162.9 127.9,161.8 127.9,160.7 126,161.8 "/>
<polygon fill="#F3CBBB" points="123.9,164.1 125.2,163.4 125.2,162.2 123.9,163 "/>
<polygon fill="#F3CBBB" points="131.1,162.6 134,161 134,159.8 131.1,161.5 "/>
<polygon fill="#F3CBBB" points="126.8,165.1 130.3,163.1 130.3,161.9 126.8,164 "/>
<polygon fill="#F3CBBB" points="124.6,166.4 125.9,165.6 125.9,164.4 124.6,165.2 "/>
<polygon fill="#F3CBBB" points="122.6,167.5 123.9,166.8 123.9,165.6 122.6,166.3 "/>
<polygon fill="#F3CBBB" points="131.9,164.8 134,163.6 134,162.4 131.9,163.7 "/>
<polygon fill="#F3CBBB" points="130.4,165.7 131.1,165.3 131.1,164.1 130.4,164.5 "/>
<polygon fill="#F3CBBB" points="128.3,166.9 129.6,166.2 129.6,165 128.3,165.8 "/>
<polygon fill="#F3CBBB" points="126.3,170.7 134,166.3 134,165.1 126.3,169.6 "/>
<polygon fill="#F3CBBB" points="123.6,172.3 125.5,171.2 125.5,170 123.6,171.1 "/>
<polygon fill="#F3CBBB" points="131.9,170.1 134,168.9 134,167.8 131.9,169 "/>
<polygon fill="#F3CBBB" points="127,173 131.1,170.6 131.1,169.4 127,171.8 "/>
<polygon fill="#F3CBBB" points="124.9,174.2 126.2,173.4 126.2,172.3 124.9,173 "/>
<polygon fill="#F3CBBB" points="129.7,174.1 134,171.6 134,170.4 129.7,172.9 "/>
<polygon fill="#F3CBBB" points="125.8,176.3 128.9,174.5 128.9,173.4 125.8,175.2 "/>
<polygon fill="#F3CBBB" points="122.9,178 125,176.8 125,175.6 122.9,176.8 "/>
<polygon fill="#F3CBBB" points="132.6,175.1 134,174.3 134,173.1 132.6,173.9 "/>
<polygon fill="#F3CBBB" points="129.8,176.7 131.7,175.6 131.7,174.4 129.8,175.5 "/>
<polygon fill="#F3CBBB" points="125.9,178.9 129,177.1 129,176 125.9,177.7 "/>
<polygon fill="#F3CBBB" points="129.6,179.5 134,176.9 134,175.8 129.6,178.3 "/>
<polygon fill="#F3CBBB" points="124.6,182.3 128.8,179.9 128.8,178.8 124.6,181.2 "/>
<polygon fill="#F3CBBB" points="122.5,183.6 123.8,182.8 123.8,181.6 122.5,182.4 "/>
<polygon fill="#F3CBBB" points="120.5,184.7 121.8,184 121.8,182.8 120.5,183.6 "/>
<polygon fill="#F3CBBB" points="131.3,181.1 134,179.6 134,178.4 131.3,179.9 "/>
<polygon fill="#F3CBBB" points="120.3,166.2 116.6,168.4 116.6,167.2 120.3,165.1 "/>
<polygon fill="#F3CBBB" points="119.5,169.3 116.6,171 116.6,169.8 119.5,168.2 "/>
<polygon fill="#F3CBBB" points="118.7,172.5 116.6,173.7 116.6,172.5 118.7,171.3 "/>
<polygon fill="#F3CBBB" points="119.6,174.6 116.6,176.3 116.6,175.2 119.6,173.4 "/>
<polygon fill="#F3CBBB" points="118.7,177.8 116.6,179 116.6,177.8 118.7,176.6 "/>
<polygon fill="#F3CBBB" points="119.2,180.1 116.6,181.7 116.6,180.5 119.2,179 "/>
<polygon fill="#F3CBBB" points="118,183.5 116.6,184.3 116.6,183.2 118,182.3 "/>
<polygon fill="#F3CBBB" points="119.4,185.4 116.6,187 116.6,185.8 119.4,184.2 "/>
<polygon fill="#F3CBBB" points="119.2,188.1 116.6,189.6 116.6,188.5 119.2,186.9 "/>
<polygon fill="#F3CBBB" points="129.4,182.2 130.5,181.6 130.5,180.4 129.4,181.1 "/>
<polygon fill="#F3CBBB" points="126.1,184.2 128.6,182.7 128.6,181.5 126.1,183 "/>
<polygon fill="#F3CBBB" points="124,193.1 128.2,190.6 128.2,189.5 124,192 "/>
<polygon fill="#F3CBBB" points="121,194.8 122.7,193.8 122.7,192.7 121,193.6 "/>
<text transform="matrix(1 0 0 1 74.918 143.4778)" font-family="'MyriadPro-Regular'" font-size="8.938">d85623</text>
</svg>
