<?xml version="1.0" encoding="utf-8"?>
<!-- Generator: Adobe Illustrator 18.0.0, SVG Export Plug-In . SVG Version: 6.00 Build 0)  -->
<!DOCTYPE svg PUBLIC "-//W3C//DTD SVG 1.1//EN" "http://www.w3.org/Graphics/SVG/1.1/DTD/svg11.dtd">
<svg version="1.1" id="Layer_1" xmlns="http://www.w3.org/2000/svg" xmlns:xlink="http://www.w3.org/1999/xlink" x="0px" y="0px"
	 viewBox="0 0 200 200" enable-background="new 0 0 200 200" xml:space="preserve">
<path fill="#132226" d="M120.9,62.1H77.7c-3.4,0-6.2-2.8-6.2-6.2v0c0-3.4,2.8-6.2,6.2-6.2h43.2c3.4,0,6.2,2.8,6.2,6.2v0
	C127.1,59.3,124.3,62.1,120.9,62.1z"/>
<circle fill="#FFFFFF" cx="78.4" cy="55.9" r="2.9"/>
<rect x="106.8" y="52.5" fill="#546D7B" width="2.3" height="6.7"/>
<linearGradient id="SVGID_1_" gradientUnits="userSpaceOnUse" x1="113.1156" y1="55.9013" x2="115.4197" y2="55.9013">
	<stop  offset="0" style="stop-color:#E96428"/>
	<stop  offset="1" style="stop-color:#C8491F"/>
</linearGradient>
<rect x="113.1" y="52.5" fill="url(#SVGID_1_)" width="2.3" height="6.7"/>
<rect x="119.5" y="52.5" fill="#546D7B" width="2.3" height="6.7"/>
<path fill="#132226" d="M120.9,74.5H77.7c-3.4,0-6.2-2.8-6.2-6.2v0c0-3.4,2.8-6.2,6.2-6.2h43.2c3.4,0,6.2,2.8,6.2,6.2v0
	C127.1,71.7,124.3,74.5,120.9,74.5z"/>
<circle fill="#FFFFFF" cx="78.4" cy="68.3" r="2.9"/>
<rect x="106.8" y="64.9" fill="#546D7B" width="2.3" height="6.7"/>
<linearGradient id="SVGID_2_" gradientUnits="userSpaceOnUse" x1="113.1156" y1="68.2711" x2="115.4197" y2="68.2711">
	<stop  offset="0" style="stop-color:#E96428"/>
	<stop  offset="1" style="stop-color:#C8491F"/>
</linearGradient>
<rect x="113.1" y="64.9" fill="url(#SVGID_2_)" width="2.3" height="6.7"/>
<rect x="119.5" y="64.9" fill="#546D7B" width="2.3" height="6.7"/>
<path fill="#132226" d="M120.9,86.9H77.7c-3.4,0-6.2-2.8-6.2-6.2v0c0-3.4,2.8-6.2,6.2-6.2h43.2c3.4,0,6.2,2.8,6.2,6.2v0
	C127.1,84.1,124.3,86.9,120.9,86.9z"/>
<circle fill="#FFFFFF" cx="78.4" cy="80.7" r="2.9"/>
<rect x="106.8" y="77.3" fill="#546D7B" width="2.3" height="6.7"/>
<linearGradient id="SVGID_3_" gradientUnits="userSpaceOnUse" x1="113.1156" y1="80.7103" x2="115.4197" y2="80.7103">
	<stop  offset="0" style="stop-color:#E96428"/>
	<stop  offset="1" style="stop-color:#C8491F"/>
</linearGradient>
<rect x="113.1" y="77.3" fill="url(#SVGID_3_)" width="2.3" height="6.7"/>
<rect x="119.5" y="77.3" fill="#546D7B" width="2.3" height="6.7"/>
<path fill="#132226" d="M64.5,148.6H14.5c-1.1,0-1.9-0.9-1.9-1.9v-33.3c0-1.1,0.9-1.9,1.9-1.9h50.1c1.1,0,1.9,0.9,1.9,1.9v33.3
	C66.4,147.8,65.6,148.6,64.5,148.6z"/>
<path fill="#FFFFFF" d="M63.7,147.1H15.5c-1.1,0-2-0.9-2-2v-30c0-1.1,0.9-2,2-2h48.2c1.1,0,2,0.9,2,2v30
	C65.7,146.2,64.8,147.1,63.7,147.1z"/>
<circle fill="#F9D839" cx="19.3" cy="116.3" r="0.6"/>
<circle fill="#EC1C26" cx="17.4" cy="116.3" r="0.6"/>
<circle fill="#5FBA46" cx="21.2" cy="116.3" r="0.6"/>
<path fill="#132226" d="M124.4,148.6H74.3c-1.1,0-1.9-0.9-1.9-1.9v-33.3c0-1.1,0.9-1.9,1.9-1.9h50.1c1.1,0,1.9,0.9,1.9,1.9v33.3
	C126.3,147.8,125.4,148.6,124.4,148.6z"/>
<path fill="#FFFFFF" d="M123.5,147.1H75.3c-1.1,0-2-0.9-2-2v-30c0-1.1,0.9-2,2-2h48.2c1.1,0,2,0.9,2,2v30
	C125.5,146.2,124.6,147.1,123.5,147.1z"/>
<circle fill="#F9D839" cx="79.1" cy="116.3" r="0.6"/>
<circle fill="#EC1C26" cx="77.3" cy="116.3" r="0.6"/>
<circle fill="#5FBA46" cx="81" cy="116.3" r="0.6"/>
<path fill="#132226" d="M185.4,148.6h-50.1c-1.1,0-1.9-0.9-1.9-1.9v-33.3c0-1.1,0.9-1.9,1.9-1.9h50.1c1.1,0,1.9,0.9,1.9,1.9v33.3
	C187.3,147.8,186.5,148.6,185.4,148.6z"/>
<path fill="#FFFFFF" d="M184.6,147.1h-48.2c-1.1,0-2-0.9-2-2v-30c0-1.1,0.9-2,2-2h48.2c1.1,0,2,0.9,2,2v30
	C186.6,146.2,185.7,147.1,184.6,147.1z"/>
<circle fill="#F9D839" cx="140.2" cy="116.3" r="0.6"/>
<circle fill="#EC1C26" cx="138.3" cy="116.3" r="0.6"/>
<circle fill="#5FBA46" cx="142.1" cy="116.3" r="0.6"/>
<polyline fill="none" stroke="#132226" stroke-width="1.6034" stroke-miterlimit="10" points="12.6,104.6 12.6,100.6 186.1,100.6 
	186.1,104.6 "/>
<line fill="none" stroke="#132226" stroke-width="1.6034" stroke-miterlimit="10" x1="99.3" y1="88.5" x2="99.3" y2="100.6"/>
</svg>
