<?xml version="1.0" encoding="utf-8"?>
<!-- Generator: Adobe Illustrator 18.0.0, SVG Export Plug-In . SVG Version: 6.00 Build 0)  -->
<!DOCTYPE svg PUBLIC "-//W3C//DTD SVG 1.1//EN" "http://www.w3.org/Graphics/SVG/1.1/DTD/svg11.dtd">
<svg version="1.1" id="Layer_1" xmlns="http://www.w3.org/2000/svg" xmlns:xlink="http://www.w3.org/1999/xlink" x="0px" y="0px"
	 viewBox="0 0 200 200" enable-background="new 0 0 200 200" xml:space="preserve">
<g>
	<g>
		<path fill="#132226" d="M177.1,126h-60.5c-4.8,0-8.7-3.9-8.7-8.7v0c0-4.8,3.9-8.7,8.7-8.7h60.5c4.8,0,8.7,3.9,8.7,8.7v0
			C185.8,122.1,181.9,126,177.1,126z"/>
		<circle fill="#FFFFFF" cx="117.6" cy="117.3" r="4"/>
		<rect x="157.4" y="112.6" fill="#546D7B" width="3.2" height="9.5"/>
		<linearGradient id="SVGID_1_" gradientUnits="userSpaceOnUse" x1="166.2452" y1="117.3387" x2="169.4737" y2="117.3387">
			<stop  offset="0" style="stop-color:#E96428"/>
			<stop  offset="1" style="stop-color:#C8491F"/>
		</linearGradient>
		<rect x="166.2" y="112.6" fill="url(#SVGID_1_)" width="3.2" height="9.5"/>
		<rect x="175.1" y="112.6" fill="#546D7B" width="3.2" height="9.5"/>
	</g>
	<g>
		<path fill="#132226" d="M177.1,143.3h-60.5c-4.8,0-8.7-3.9-8.7-8.7v0c0-4.8,3.9-8.7,8.7-8.7h60.5c4.8,0,8.7,3.9,8.7,8.7v0
			C185.8,139.5,181.9,143.3,177.1,143.3z"/>
		<circle fill="#FFFFFF" cx="117.6" cy="134.7" r="4"/>
		<rect x="157.4" y="129.9" fill="#546D7B" width="3.2" height="9.5"/>
		<linearGradient id="SVGID_2_" gradientUnits="userSpaceOnUse" x1="166.2452" y1="134.6718" x2="169.4737" y2="134.6718">
			<stop  offset="0" style="stop-color:#E96428"/>
			<stop  offset="1" style="stop-color:#C8491F"/>
		</linearGradient>
		<rect x="166.2" y="129.9" fill="url(#SVGID_2_)" width="3.2" height="9.5"/>
		<rect x="175.1" y="129.9" fill="#546D7B" width="3.2" height="9.5"/>
	</g>
	<g>
		<path fill="#132226" d="M177.1,160.8h-60.5c-4.8,0-8.7-3.9-8.7-8.7v0c0-4.8,3.9-8.7,8.7-8.7h60.5c4.8,0,8.7,3.9,8.7,8.7v0
			C185.8,156.9,181.9,160.8,177.1,160.8z"/>
		<circle fill="#FFFFFF" cx="117.6" cy="152.1" r="4"/>
		<rect x="157.4" y="147.4" fill="#546D7B" width="3.2" height="9.5"/>
		<linearGradient id="SVGID_3_" gradientUnits="userSpaceOnUse" x1="166.2452" y1="152.1022" x2="169.4737" y2="152.1022">
			<stop  offset="0" style="stop-color:#E96428"/>
			<stop  offset="1" style="stop-color:#C8491F"/>
		</linearGradient>
		<rect x="166.2" y="147.4" fill="url(#SVGID_3_)" width="3.2" height="9.5"/>
		<rect x="175.1" y="147.4" fill="#546D7B" width="3.2" height="9.5"/>
	</g>
	<g>
		<path fill="#132226" d="M83.8,159.5H16.7c-1.4,0-2.5-1.1-2.5-2.5v-44.6c0-1.4,1.1-2.5,2.5-2.5h67.1c1.4,0,2.5,1.1,2.5,2.5V157
			C86.4,158.4,85.3,159.5,83.8,159.5z"/>
		<path fill="#FFFFFF" d="M82.7,157.5H18.2c-1.5,0-2.7-1.2-2.7-2.7v-40.2c0-1.5,1.2-2.7,2.7-2.7h64.5c1.5,0,2.7,1.2,2.7,2.7v40.2
			C85.4,156.3,84.2,157.5,82.7,157.5z"/>
		<circle fill="#F9D839" cx="23.3" cy="116.2" r="0.8"/>
		<circle fill="#EC1C26" cx="20.7" cy="116.2" r="0.8"/>
		<circle fill="#5FBA46" cx="25.8" cy="116.2" r="0.8"/>
	</g>
	<linearGradient id="SVGID_4_" gradientUnits="userSpaceOnUse" x1="57.835" y1="64.2818" x2="140.887" y2="64.2818">
		<stop  offset="0" style="stop-color:#E96428"/>
		<stop  offset="1" style="stop-color:#C8491F"/>
	</linearGradient>
	<path fill="url(#SVGID_4_)" d="M58.5,79.1c-0.1-0.6-0.3-1.2-0.4-1.8c0.1-0.9-0.3-1.7-0.2-2.6c0.1-1.2,0.2-2.4,0.6-3.6
		c0,0,0-0.1,0-0.1c0.1-0.6,0.4-1.1,0.6-1.7c0.5-0.9,1-1.8,1.5-2.6c1.1-1.6,2.6-2.8,4.2-3.8c0.3-0.2,0.7-0.3,1-0.6
		c0.2,0,0.4-0.2,0.6-0.2c0.1,0,0.2,0,0.2-0.1c0.1,0,0.2,0,0.3-0.1c0.1,0.1,0.2,0,0.2-0.1c0.1,0,0.2,0,0.3-0.1c0.3-0.1,0.7-0.1,1-0.3
		c0.1,0,0.3,0,0.4,0c0.2,0,0.5,0.1,0.6-0.3c0.1-0.6-0.2-1.1-0.2-1.7c0-0.7,0-1.3,0-2c0.3-1.3,0.7-2.6,1.4-3.8c0,0,0.1,0,0.1,0
		c0.5-0.8,1.2-1.4,1.9-2.1c0.3-0.2,0.6-0.3,0.8-0.7c0.1,0,0.2,0,0.3-0.1c0.5-0.3,1.1-0.6,1.7-0.8c0.5-0.1,1.1-0.3,1.6-0.3
		c1.6-0.2,3.1,0,4.6,0.5c0.6,0.3,1.1,0.6,1.7,0.8c0,0.1,0.1,0.2,0.3,0.2c0,0.1,0.1,0.2,0.2,0.2c0,0,0.1,0,0.1,0
		c0.4,0.4,0.8,0.8,1.2,1.2c0.1,0.1,0.1,0.2,0.2,0.2l0,0c0.1,0.1,0.1,0.3,0.3,0.4c0.2,0.2,0.3,0.2,0.4,0c0.2-0.7,0.6-1.4,0.8-2.1
		c0,0,0-0.1,0-0.1c0.3-0.3,0.4-0.7,0.6-1c0.6-0.9,1.2-1.8,1.8-2.7c0.2-0.2,0.4-0.3,0.4-0.6c0.2-0.1,0.3-0.2,0.4-0.4
		c0.2-0.2,0.5-0.3,0.6-0.6l0,0c0.1,0,0.2,0,0.2-0.2l0,0c0.4-0.3,0.7-0.6,1-1c0.5-0.3,1-0.7,1.4-1.1l0,0c0.1-0.1,0.4-0.1,0.4-0.3
		c0.1,0,0.2,0,0.3-0.1c0.8-0.6,1.7-1.1,2.7-1.6c0.1-0.1,0.4,0,0.4-0.3l0,0l0,0c0.5,0,0.8-0.3,1.2-0.4c0.5-0.2,1-0.2,1.4-0.6
		c0.8,0,1.5-0.3,2.3-0.5c0.6-0.1,1.2,0,1.7-0.3c0.7,0,1.3,0,2,0c0.7,0,1.3,0,2,0c0.8,0.1,1.6,0.3,2.4,0.4c0.6,0.1,1.1,0.2,1.6,0.4
		c0.5,0,1,0.4,1.5,0.4c0.1,0.1,0.1,0.2,0.3,0.2c0.1,0,0.1,0,0.2,0c0.1,0.1,0.2,0.1,0.3,0.2c1.6,0.7,3.1,1.5,4.6,2.6
		c0.6,0.4,1.1,1,1.8,1.4c0.2,0.2,0.4,0.4,0.5,0.5c0.4,0.4,0.7,0.8,1.2,1.2c0.1,0.3,0.4,0.5,0.6,0.8c0.5,0.6,0.9,1.3,1.4,1.9
		c0,0,0,0.1,0,0.1c0.3,0.6,0.7,1.3,1,1.9c0.1,0.3,0.2,0.6,0.4,0.8c0.2,0.4,0.2,0.9,0.6,1.3c0,0.6,0.3,1.1,0.4,1.6
		c0.2,0.8,0.4,1.7,0.5,2.5c0,0,0.1,0.1,0.1,0.1c0,0.2,0,0.4,0,0.6c0.1,1.5,0,3.1,0,4.6c0,0,0,0.1,0,0.1c0,0.3,0.2,0.2,0.3,0.2
		c0.4,0,0.9,0,1.3,0c0.7,0,1.3,0.1,2,0.2c0.1,0.1,0.2,0.1,0.3,0c0.6,0.3,1.3,0.4,1.9,0.6c2.2,0.9,4.1,2.3,5.6,4.3
		c0.3,0.4,0.5,0.8,0.8,1.1c0.1,0.5,0.4,0.9,0.6,1.3c0.3,0.7,0.5,1.5,0.8,2.2c0,0.5,0.2,1,0.2,1.5c0.2,0.8,0.1,1.5,0.1,2.3
		c0,0.9-0.1,1.7-0.4,2.6c0,0.1,0,0.2,0,0.3c-0.3,1.1-0.7,2.3-1.3,3.3c0,0.1,0,0.2-0.1,0.2c-0.1,0-0.2,0.1-0.2,0.3c0,0,0,0.1,0,0.1
		c-0.2,0-0.3,0.2-0.3,0.3c-0.9,1.4-2.1,2.6-3.5,3.5c-0.5,0.3-1.1,0.7-1.6,1c-0.6,0.2-1.1,0.4-1.7,0.6c0,0-0.1,0-0.1,0
		c-1.3,0.4-2.6,0.6-3.9,0.6c-4.7,0-9.5,0-14.2,0c-8.7,0-17.4,0-26.1,0c-5.7,0-11.4,0-17.1,0c-0.3-0.1-0.6-0.1-0.9-0.1
		c-0.7-0.1-1.4-0.4-2.1-0.5c-0.7-0.3-1.3-0.5-2-0.8c-0.2-0.3-0.5-0.3-0.7-0.5c-1.4-0.8-2.6-2-3.6-3.2c-0.1-0.2-0.2-0.4-0.4-0.5l0,0
		c0-0.1-0.1-0.2-0.2-0.2c0,0,0-0.1,0-0.1c-0.2-0.6-0.6-1-0.8-1.6c-0.3-0.8-0.8-1.6-1-2.5C58.6,79.2,58.5,79.2,58.5,79.1z"/>
	<polyline fill="none" stroke="#132226" stroke-width="1.4776" stroke-miterlimit="10" points="69.4,104.2 69.4,100.5 129.3,100.5 
		129.3,104.2 	"/>
	<line fill="none" stroke="#132226" stroke-width="1.4776" stroke-miterlimit="10" x1="99.4" y1="89.3" x2="99.4" y2="100.5"/>
</g>
</svg>
