<?xml version="1.0" encoding="utf-8"?>
<!-- Generator: Adobe Illustrator 18.0.0, SVG Export Plug-In . SVG Version: 6.00 Build 0)  -->
<!DOCTYPE svg PUBLIC "-//W3C//DTD SVG 1.1//EN" "http://www.w3.org/Graphics/SVG/1.1/DTD/svg11.dtd">
<svg version="1.1" id="Layer_1" xmlns="http://www.w3.org/2000/svg" xmlns:xlink="http://www.w3.org/1999/xlink" x="0px" y="0px"
	 viewBox="0 0 300 250" enable-background="new 0 0 300 250" xml:space="preserve">
<g>
	<circle fill="none" stroke="#142226" stroke-width="10.7142" stroke-miterlimit="10" cx="227.5" cy="70.3" r="34.4"/>
	<path fill="#142226" d="M232.9,213.9H63c-3.6,0-6.5-2.9-6.5-6.5v-113c0-3.6,2.9-6.5,6.5-6.5h169.9c3.6,0,6.5,2.9,6.5,6.5v113
		C239.4,211.1,236.5,213.9,232.9,213.9z"/>
	<path fill="#FFFFFF" d="M230,208.8H66.7c-3.8,0-6.9-3.1-6.9-6.9V100.1c0-3.8,3.1-6.9,6.9-6.9H230c3.8,0,6.9,3.1,6.9,6.9v101.9
		C236.9,205.8,233.8,208.8,230,208.8z"/>
	<path fill="#142226" d="M254.1,218.8v3.5c0,4.1-3.3,7.4-7.4,7.4H49.3c-4.1,0-7.5-3.3-7.5-7.4v-3.5H254.1z"/>
	<path fill="#284349" d="M254.1,218.8v0.7c0,4.1-3.3,7.5-7.4,7.5H49.3c-4.1,0-7.5-3.3-7.5-7.5v-0.7H254.1z"/>
	<path fill="#142226" d="M107.7,79.8H60.3c-1.1,0-2-0.9-2-2V48.2c0-1.1,0.9-2,2-2h47.4c1.1,0,2,0.9,2,2v29.5
		C109.7,78.9,108.8,79.8,107.7,79.8z"/>
	<circle fill="none" stroke="#FFFFFF" stroke-width="1.6409" stroke-miterlimit="10" cx="69" cy="58.1" r="5.7"/>
	<circle fill="#F9D939" cx="79.6" cy="104.2" r="2"/>
	<circle fill="#ED1C26" cx="73.2" cy="104.2" r="2"/>
	<circle fill="#5FBB46" cx="86" cy="104.2" r="2"/>
	<rect x="80.2" y="52.4" fill="#FFFFFF" width="24.3" height="1.1"/>
	<rect x="80.2" y="55.6" fill="#FFFFFF" width="24.3" height="1.1"/>
	<linearGradient id="SVGID_1_" gradientUnits="userSpaceOnUse" x1="80.248" y1="59.4684" x2="104.5874" y2="59.4684">
		<stop  offset="0" style="stop-color:#EA6428"/>
		<stop  offset="1" style="stop-color:#C9491E"/>
	</linearGradient>
	<rect x="80.2" y="58.9" fill="url(#SVGID_1_)" width="24.3" height="1.1"/>
	<rect x="80.2" y="62.2" fill="#FFFFFF" width="24.3" height="1.1"/>
	<linearGradient id="SVGID_2_" gradientUnits="userSpaceOnUse" x1="63.2934" y1="69.5829" x2="104.5874" y2="69.5829">
		<stop  offset="0" style="stop-color:#EA6428"/>
		<stop  offset="1" style="stop-color:#C9491E"/>
	</linearGradient>
	<rect x="63.3" y="69" fill="url(#SVGID_2_)" width="41.3" height="1.1"/>
	<rect x="63.3" y="72.3" fill="#FFFFFF" width="41.3" height="1.1"/>
	<path fill="#142226" d="M175.6,79.8h-46.2c-1.4,0-2.6-1.1-2.6-2.6V27.4c0-1.4,1.1-2.6,2.6-2.6h46.2c1.4,0,2.6,1.1,2.6,2.6v49.8
		C178.2,78.6,177,79.8,175.6,79.8z"/>
	<circle fill="none" stroke="#FFFFFF" stroke-width="2.1428" stroke-miterlimit="10" cx="152.4" cy="63.8" r="8"/>
	<rect x="131.8" y="31.2" fill="#FFFFFF" width="41.3" height="1.1"/>
	<rect x="131.8" y="34.5" fill="#FFFFFF" width="41.3" height="1.1"/>
	<linearGradient id="SVGID_3_" gradientUnits="userSpaceOnUse" x1="131.7787" y1="38.3402" x2="173.0727" y2="38.3402">
		<stop  offset="0" style="stop-color:#EA6428"/>
		<stop  offset="1" style="stop-color:#C9491E"/>
	</linearGradient>
	<rect x="131.8" y="37.8" fill="url(#SVGID_3_)" width="41.3" height="1.1"/>
	<rect x="131.8" y="41.1" fill="#FFFFFF" width="41.3" height="1.1"/>
	<linearGradient id="SVGID_4_" gradientUnits="userSpaceOnUse" x1="131.7787" y1="44.5885" x2="173.0727" y2="44.5885">
		<stop  offset="0" style="stop-color:#EA6428"/>
		<stop  offset="1" style="stop-color:#C9491E"/>
	</linearGradient>
	<rect x="131.8" y="44" fill="url(#SVGID_4_)" width="41.3" height="1.1"/>
	<rect x="131.8" y="47.3" fill="#FFFFFF" width="41.3" height="1.1"/>
	<linearGradient id="SVGID_5_" gradientUnits="userSpaceOnUse" x1="71.1438" y1="118.6824" x2="225.9311" y2="118.6824">
		<stop  offset="0" style="stop-color:#EA6428"/>
		<stop  offset="1" style="stop-color:#C9491E"/>
	</linearGradient>
	<rect x="71.1" y="112.7" fill="url(#SVGID_5_)" width="154.8" height="12"/>
	<linearGradient id="SVGID_6_" gradientUnits="userSpaceOnUse" x1="71.1438" y1="198.844" x2="225.9311" y2="198.844">
		<stop  offset="0" style="stop-color:#EA6428"/>
		<stop  offset="1" style="stop-color:#C9491E"/>
	</linearGradient>
	<rect x="71.1" y="188.8" fill="url(#SVGID_6_)" width="154.8" height="20"/>
	<rect x="71.2" y="135.2" fill="#142226" width="42.8" height="42.8"/>
	<linearGradient id="SVGID_7_" gradientUnits="userSpaceOnUse" x1="126.8108" y1="156.6551" x2="169.621" y2="156.6551">
		<stop  offset="0" style="stop-color:#EA6428"/>
		<stop  offset="1" style="stop-color:#C9491E"/>
	</linearGradient>
	<rect x="126.8" y="135.2" fill="url(#SVGID_7_)" width="42.8" height="42.8"/>
	<rect x="183.1" y="135.2" fill="#142226" width="42.8" height="42.8"/>
	<rect x="80.8" y="151.2" fill="#FFFFFF" width="24.3" height="1.1"/>
	<rect x="80.8" y="154.5" fill="#FFFFFF" width="24.3" height="1.1"/>
	<linearGradient id="SVGID_8_" gradientUnits="userSpaceOnUse" x1="80.7927" y1="158.297" x2="105.1321" y2="158.297">
		<stop  offset="0" style="stop-color:#EA6428"/>
		<stop  offset="1" style="stop-color:#C9491E"/>
	</linearGradient>
	<rect x="80.8" y="157.7" fill="url(#SVGID_8_)" width="24.3" height="1.1"/>
	<rect x="80.8" y="161" fill="#FFFFFF" width="24.3" height="1.1"/>
	<rect x="136.5" y="151.2" fill="#FFFFFF" width="24.3" height="1.1"/>
	<rect x="136.5" y="154.5" fill="#FFFFFF" width="24.3" height="1.1"/>
	<rect x="136.5" y="157.7" fill="#142226" width="24.3" height="1.1"/>
	<rect x="136.5" y="161" fill="#FFFFFF" width="24.3" height="1.1"/>
	<rect x="193.4" y="151.2" fill="#FFFFFF" width="24.3" height="1.1"/>
	<rect x="193.4" y="154.5" fill="#FFFFFF" width="24.3" height="1.1"/>
	<linearGradient id="SVGID_9_" gradientUnits="userSpaceOnUse" x1="193.3623" y1="158.297" x2="217.7017" y2="158.297">
		<stop  offset="0" style="stop-color:#EA6428"/>
		<stop  offset="1" style="stop-color:#C9491E"/>
	</linearGradient>
	<rect x="193.4" y="157.7" fill="url(#SVGID_9_)" width="24.3" height="1.1"/>
	<rect x="193.4" y="161" fill="#FFFFFF" width="24.3" height="1.1"/>
	<linearGradient id="SVGID_10_" gradientUnits="userSpaceOnUse" x1="214.8221" y1="67.8874" x2="238.8259" y2="67.8874">
		<stop  offset="0" style="stop-color:#EA6428"/>
		<stop  offset="1" style="stop-color:#C9491E"/>
	</linearGradient>
	<path fill="url(#SVGID_10_)" d="M238.5,63.1l-10.8-10.8c-0.5-0.5-1.2-0.5-1.6,0l-10.8,10.8c-0.7,0.7-0.2,2,0.8,2h8.6v16.6
		c0,1.2,1,2.2,2.2,2.2s2.2-1,2.2-2.2V65.1h8.6C238.7,65.1,239.2,63.8,238.5,63.1z"/>
</g>
</svg>
