<?xml version="1.0" encoding="utf-8"?>
<!-- Generator: Adobe Illustrator 18.0.0, SVG Export Plug-In . SVG Version: 6.00 Build 0)  -->
<!DOCTYPE svg PUBLIC "-//W3C//DTD SVG 1.1//EN" "http://www.w3.org/Graphics/SVG/1.1/DTD/svg11.dtd">
<svg version="1.1" id="Layer_1" xmlns="http://www.w3.org/2000/svg" xmlns:xlink="http://www.w3.org/1999/xlink" x="0px" y="0px"
	 viewBox="0 0 200 200" enable-background="new 0 0 200 200" xml:space="preserve">
<path fill="#132226" d="M170.2,105.6H87.3c-6.6,0-11.9-5.3-11.9-11.9v0c0-6.6,5.3-11.9,11.9-11.9h82.9c6.6,0,11.9,5.3,11.9,11.9v0
	C182.1,100.3,176.8,105.6,170.2,105.6z"/>
<circle fill="#FFFFFF" cx="88.6" cy="93.7" r="5.5"/>
<rect x="143.1" y="87.3" fill="#546D7B" width="4.4" height="13"/>
<linearGradient id="SVGID_1_" gradientUnits="userSpaceOnUse" x1="155.2726" y1="93.7392" x2="159.6982" y2="93.7392">
	<stop  offset="0" style="stop-color:#E96428"/>
	<stop  offset="1" style="stop-color:#C8491F"/>
</linearGradient>
<rect x="155.3" y="87.3" fill="url(#SVGID_1_)" width="4.4" height="13"/>
<rect x="167.5" y="87.3" fill="#546D7B" width="4.4" height="13"/>
<path fill="#132226" d="M170.2,129.4H87.3c-6.6,0-11.9-5.3-11.9-11.9v0c0-6.6,5.3-11.9,11.9-11.9h82.9c6.6,0,11.9,5.3,11.9,11.9v0
	C182.1,124.1,176.8,129.4,170.2,129.4z"/>
<circle fill="#FFFFFF" cx="88.6" cy="117.5" r="5.5"/>
<rect x="143.1" y="111" fill="#546D7B" width="4.4" height="13"/>
<linearGradient id="SVGID_2_" gradientUnits="userSpaceOnUse" x1="155.2726" y1="117.4989" x2="159.6982" y2="117.4989">
	<stop  offset="0" style="stop-color:#E96428"/>
	<stop  offset="1" style="stop-color:#C8491F"/>
</linearGradient>
<rect x="155.3" y="111" fill="url(#SVGID_2_)" width="4.4" height="13"/>
<rect x="167.5" y="111" fill="#546D7B" width="4.4" height="13"/>
<path fill="#132226" d="M170.2,153.3H87.3c-6.6,0-11.9-5.3-11.9-11.9v0c0-6.6,5.3-11.9,11.9-11.9h82.9c6.6,0,11.9,5.3,11.9,11.9v0
	C182.1,148,176.8,153.3,170.2,153.3z"/>
<circle fill="#FFFFFF" cx="88.6" cy="141.4" r="5.5"/>
<rect x="143.1" y="134.9" fill="#546D7B" width="4.4" height="13"/>
<linearGradient id="SVGID_3_" gradientUnits="userSpaceOnUse" x1="155.2726" y1="141.3919" x2="159.6982" y2="141.3919">
	<stop  offset="0" style="stop-color:#E96428"/>
	<stop  offset="1" style="stop-color:#C8491F"/>
</linearGradient>
<rect x="155.3" y="134.9" fill="url(#SVGID_3_)" width="4.4" height="13"/>
<rect x="167.5" y="134.9" fill="#546D7B" width="4.4" height="13"/>
<path fill="#132226" d="M111.6,46.8v106.4c0,2.6-2.2,4.8-4.8,4.8h-84c-2.6,0-4.8-2.2-4.8-4.8V46.8c0-2.7,2.2-4.8,4.8-4.8h84
	C109.4,42,111.6,44.2,111.6,46.8z"/>
<linearGradient id="SVGID_4_" gradientUnits="userSpaceOnUse" x1="38.5344" y1="82.2876" x2="91.201" y2="82.2876">
	<stop  offset="0" style="stop-color:#E96428"/>
	<stop  offset="1" style="stop-color:#C8491F"/>
</linearGradient>
<circle fill="url(#SVGID_4_)" stroke="#FFFFFF" stroke-width="2" stroke-miterlimit="10" cx="64.9" cy="82.3" r="26.3"/>
<linearGradient id="SVGID_5_" gradientUnits="userSpaceOnUse" x1="54.6336" y1="82.2876" x2="75.1018" y2="82.2876">
	<stop  offset="0" style="stop-color:#E96428"/>
	<stop  offset="1" style="stop-color:#C8491F"/>
</linearGradient>
<circle fill="url(#SVGID_5_)" stroke="#FFFFFF" stroke-width="2" stroke-miterlimit="10" cx="64.9" cy="82.3" r="10.2"/>
<linearGradient id="SVGID_6_" gradientUnits="userSpaceOnUse" x1="35.5309" y1="105.619" x2="57.4177" y2="105.619">
	<stop  offset="0" style="stop-color:#E96428"/>
	<stop  offset="1" style="stop-color:#C8491F"/>
</linearGradient>
<path fill="url(#SVGID_6_)" stroke="#FFFFFF" stroke-width="2" stroke-miterlimit="10" d="M57.4,92l-19.2,15.4
	c-0.1,0.1-0.2,0.2-0.3,0.3l0,0l0,0c-0.6,0.5-1.1,1.1-1.5,1.8c-1.7,3.2-0.5,7.2,2.6,8.9c3.2,1.7,7.2,0.5,8.9-2.6
	c0.2-0.4,0.4-0.9,0.5-1.3L57.4,92z"/>
<linearGradient id="SVGID_7_" gradientUnits="userSpaceOnUse" x1="17.92" y1="149.69" x2="111.56" y2="149.69">
	<stop  offset="0" style="stop-color:#E96428"/>
	<stop  offset="1" style="stop-color:#C8491F"/>
</linearGradient>
<path fill="url(#SVGID_7_)" d="M111.6,141.4v11.8c0,2.6-2.2,4.8-4.8,4.8h-84c-2.6,0-4.8-2.2-4.8-4.8v-11.8H111.6z"/>
<circle fill="#FFFFFF" cx="29.9" cy="149.7" r="3"/>
<circle fill="#FFFFFF" cx="39.9" cy="149.7" r="3"/>
<circle fill="#FFFFFF" cx="49.9" cy="149.7" r="3"/>
</svg>
